<svg xmlns="http://www.w3.org/2000/svg" xmlns:xlink="http://www.w3.org/1999/xlink" width="500" zoomAndPan="magnify" viewBox="0 0 375 374.999991" height="500" preserveAspectRatio="xMidYMid meet" version="1.0"><defs><filter x="0%" y="0%" width="100%" height="100%" id="1a1d3e93f6"><feColorMatrix values="0 0 0 0 1 0 0 0 0 1 0 0 0 0 1 0 0 0 1 0" color-interpolation-filters="sRGB"/></filter><g/><clipPath id="c9844e9e5d"><path d="M 340 15 L 375 15 L 375 53 L 340 53 Z M 340 15 " clip-rule="nonzero"/></clipPath><clipPath id="1cb6fae914"><rect x="0" width="375" y="0" height="71"/></clipPath><clipPath id="10f42fba4b"><path d="M 0.757812 0.605469 L 207.019531 0.605469 L 207.019531 109.914062 L 0.757812 109.914062 Z M 0.757812 0.605469 " clip-rule="nonzero"/></clipPath><clipPath id="4d4e6aed2a"><path d="M 0.757812 0.605469 L 207.019531 0.605469 L 207.019531 109.914062 L 0.757812 109.914062 Z M 0.757812 0.605469 " clip-rule="nonzero"/></clipPath><clipPath id="9b12039778"><path d="M 0.761719 1.554688 L 207.019531 1.554688 L 207.019531 107.0625 L 0.761719 107.0625 Z M 0.761719 1.554688 " clip-rule="nonzero"/></clipPath><linearGradient x1="-42.667" gradientTransform="matrix(0.951088, 0, 0, 0.947671, 41.33997, 41.042613)" y1="14" x2="174.19965" gradientUnits="userSpaceOnUse" y2="14" id="e1ce07992c"><stop stop-opacity="1" stop-color="rgb(12.159729%, 24.708557%, 54.508972%)" offset="0"/><stop stop-opacity="1" stop-color="rgb(12.159729%, 24.708557%, 54.508972%)" offset="0.125"/><stop stop-opacity="1" stop-color="rgb(12.159729%, 24.708557%, 54.508972%)" offset="0.1875"/><stop stop-opacity="1" stop-color="rgb(12.159729%, 24.708557%, 54.508972%)" offset="0.195313"/><stop stop-opacity="1" stop-color="rgb(12.605286%, 24.906921%, 54.685974%)" offset="0.199219"/><stop stop-opacity="1" stop-color="rgb(13.050842%, 25.105286%, 54.864502%)" offset="0.203125"/><stop stop-opacity="1" stop-color="rgb(13.595581%, 25.3479%, 55.081177%)" offset="0.207031"/><stop stop-opacity="1" stop-color="rgb(14.141846%, 25.590515%, 55.297852%)" offset="0.210938"/><stop stop-opacity="1" stop-color="rgb(14.686584%, 25.831604%, 55.514526%)" offset="0.214844"/><stop stop-opacity="1" stop-color="rgb(15.232849%, 26.074219%, 55.732727%)" offset="0.21875"/><stop stop-opacity="1" stop-color="rgb(15.777588%, 26.316833%, 55.949402%)" offset="0.222656"/><stop stop-opacity="1" stop-color="rgb(16.322327%, 26.559448%, 56.167603%)" offset="0.226562"/><stop stop-opacity="1" stop-color="rgb(16.867065%, 26.802063%, 56.384277%)" offset="0.230469"/><stop stop-opacity="1" stop-color="rgb(17.41333%, 27.044678%, 56.600952%)" offset="0.234375"/><stop stop-opacity="1" stop-color="rgb(17.958069%, 27.287292%, 56.817627%)" offset="0.238281"/><stop stop-opacity="1" stop-color="rgb(18.504333%, 27.529907%, 57.035828%)" offset="0.242188"/><stop stop-opacity="1" stop-color="rgb(19.049072%, 27.770996%, 57.252502%)" offset="0.246094"/><stop stop-opacity="1" stop-color="rgb(19.595337%, 28.013611%, 57.469177%)" offset="0.25"/><stop stop-opacity="1" stop-color="rgb(20.140076%, 28.256226%, 57.685852%)" offset="0.253906"/><stop stop-opacity="1" stop-color="rgb(20.68634%, 28.49884%, 57.904053%)" offset="0.257812"/><stop stop-opacity="1" stop-color="rgb(21.231079%, 28.741455%, 58.120728%)" offset="0.261719"/><stop stop-opacity="1" stop-color="rgb(21.777344%, 28.98407%, 58.338928%)" offset="0.265625"/><stop stop-opacity="1" stop-color="rgb(22.322083%, 29.225159%, 58.555603%)" offset="0.269531"/><stop stop-opacity="1" stop-color="rgb(22.868347%, 29.467773%, 58.772278%)" offset="0.273438"/><stop stop-opacity="1" stop-color="rgb(23.413086%, 29.710388%, 58.988953%)" offset="0.277344"/><stop stop-opacity="1" stop-color="rgb(23.959351%, 29.953003%, 59.207153%)" offset="0.28125"/><stop stop-opacity="1" stop-color="rgb(24.504089%, 30.195618%, 59.423828%)" offset="0.285156"/><stop stop-opacity="1" stop-color="rgb(25.050354%, 30.438232%, 59.642029%)" offset="0.289062"/><stop stop-opacity="1" stop-color="rgb(25.595093%, 30.680847%, 59.858704%)" offset="0.292969"/><stop stop-opacity="1" stop-color="rgb(26.141357%, 30.923462%, 60.075378%)" offset="0.296875"/><stop stop-opacity="1" stop-color="rgb(26.686096%, 31.164551%, 60.292053%)" offset="0.300781"/><stop stop-opacity="1" stop-color="rgb(27.232361%, 31.407166%, 60.510254%)" offset="0.304688"/><stop stop-opacity="1" stop-color="rgb(27.7771%, 31.64978%, 60.726929%)" offset="0.308594"/><stop stop-opacity="1" stop-color="rgb(28.323364%, 31.892395%, 60.943604%)" offset="0.3125"/><stop stop-opacity="1" stop-color="rgb(28.868103%, 32.13501%, 61.160278%)" offset="0.316406"/><stop stop-opacity="1" stop-color="rgb(29.414368%, 32.377625%, 61.378479%)" offset="0.320312"/><stop stop-opacity="1" stop-color="rgb(29.959106%, 32.618713%, 61.595154%)" offset="0.324219"/><stop stop-opacity="1" stop-color="rgb(30.505371%, 32.861328%, 61.813354%)" offset="0.328125"/><stop stop-opacity="1" stop-color="rgb(31.05011%, 33.103943%, 62.030029%)" offset="0.332031"/><stop stop-opacity="1" stop-color="rgb(31.596375%, 33.346558%, 62.246704%)" offset="0.335938"/><stop stop-opacity="1" stop-color="rgb(32.141113%, 33.589172%, 62.463379%)" offset="0.339844"/><stop stop-opacity="1" stop-color="rgb(32.685852%, 33.831787%, 62.68158%)" offset="0.34375"/><stop stop-opacity="1" stop-color="rgb(33.230591%, 34.072876%, 62.898254%)" offset="0.347656"/><stop stop-opacity="1" stop-color="rgb(33.776855%, 34.315491%, 63.116455%)" offset="0.351562"/><stop stop-opacity="1" stop-color="rgb(34.321594%, 34.558105%, 63.33313%)" offset="0.355469"/><stop stop-opacity="1" stop-color="rgb(34.867859%, 34.80072%, 63.549805%)" offset="0.359375"/><stop stop-opacity="1" stop-color="rgb(35.412598%, 35.043335%, 63.766479%)" offset="0.363281"/><stop stop-opacity="1" stop-color="rgb(35.958862%, 35.28595%, 63.98468%)" offset="0.367188"/><stop stop-opacity="1" stop-color="rgb(36.503601%, 35.528564%, 64.201355%)" offset="0.371094"/><stop stop-opacity="1" stop-color="rgb(37.049866%, 35.771179%, 64.41803%)" offset="0.375"/><stop stop-opacity="1" stop-color="rgb(37.594604%, 36.012268%, 64.634705%)" offset="0.378906"/><stop stop-opacity="1" stop-color="rgb(38.140869%, 36.254883%, 64.852905%)" offset="0.382812"/><stop stop-opacity="1" stop-color="rgb(38.685608%, 36.497498%, 65.06958%)" offset="0.386719"/><stop stop-opacity="1" stop-color="rgb(39.231873%, 36.740112%, 65.287781%)" offset="0.390625"/><stop stop-opacity="1" stop-color="rgb(39.776611%, 36.982727%, 65.504456%)" offset="0.394531"/><stop stop-opacity="1" stop-color="rgb(40.322876%, 37.225342%, 65.72113%)" offset="0.398438"/><stop stop-opacity="1" stop-color="rgb(40.867615%, 37.466431%, 65.937805%)" offset="0.402344"/><stop stop-opacity="1" stop-color="rgb(41.413879%, 37.709045%, 66.156006%)" offset="0.40625"/><stop stop-opacity="1" stop-color="rgb(41.958618%, 37.95166%, 66.372681%)" offset="0.410156"/><stop stop-opacity="1" stop-color="rgb(42.504883%, 38.194275%, 66.589355%)" offset="0.414062"/><stop stop-opacity="1" stop-color="rgb(43.049622%, 38.43689%, 66.80603%)" offset="0.417969"/><stop stop-opacity="1" stop-color="rgb(43.595886%, 38.679504%, 67.024231%)" offset="0.421875"/><stop stop-opacity="1" stop-color="rgb(44.140625%, 38.922119%, 67.240906%)" offset="0.425781"/><stop stop-opacity="1" stop-color="rgb(44.68689%, 39.164734%, 67.459106%)" offset="0.429688"/><stop stop-opacity="1" stop-color="rgb(45.231628%, 39.405823%, 67.675781%)" offset="0.433594"/><stop stop-opacity="1" stop-color="rgb(45.777893%, 39.648438%, 67.892456%)" offset="0.4375"/><stop stop-opacity="1" stop-color="rgb(46.322632%, 39.891052%, 68.109131%)" offset="0.441406"/><stop stop-opacity="1" stop-color="rgb(46.868896%, 40.133667%, 68.327332%)" offset="0.445312"/><stop stop-opacity="1" stop-color="rgb(47.413635%, 40.376282%, 68.544006%)" offset="0.449219"/><stop stop-opacity="1" stop-color="rgb(47.9599%, 40.618896%, 68.762207%)" offset="0.453125"/><stop stop-opacity="1" stop-color="rgb(48.504639%, 40.859985%, 68.978882%)" offset="0.457031"/><stop stop-opacity="1" stop-color="rgb(49.049377%, 41.1026%, 69.195557%)" offset="0.460938"/><stop stop-opacity="1" stop-color="rgb(49.594116%, 41.345215%, 69.412231%)" offset="0.464844"/><stop stop-opacity="1" stop-color="rgb(50.140381%, 41.58783%, 69.630432%)" offset="0.46875"/><stop stop-opacity="1" stop-color="rgb(50.68512%, 41.830444%, 69.847107%)" offset="0.472656"/><stop stop-opacity="1" stop-color="rgb(51.231384%, 42.073059%, 70.063782%)" offset="0.476563"/><stop stop-opacity="1" stop-color="rgb(51.776123%, 42.315674%, 70.280457%)" offset="0.480469"/><stop stop-opacity="1" stop-color="rgb(52.322388%, 42.558289%, 70.498657%)" offset="0.484375"/><stop stop-opacity="1" stop-color="rgb(52.867126%, 42.799377%, 70.715332%)" offset="0.488281"/><stop stop-opacity="1" stop-color="rgb(53.413391%, 43.041992%, 70.933533%)" offset="0.492188"/><stop stop-opacity="1" stop-color="rgb(53.95813%, 43.284607%, 71.150208%)" offset="0.496094"/><stop stop-opacity="1" stop-color="rgb(54.504395%, 43.527222%, 71.366882%)" offset="0.5"/><stop stop-opacity="1" stop-color="rgb(54.963684%, 43.447876%, 71.276855%)" offset="0.503906"/><stop stop-opacity="1" stop-color="rgb(55.4245%, 43.36853%, 71.188354%)" offset="0.507812"/><stop stop-opacity="1" stop-color="rgb(55.883789%, 43.287659%, 71.096802%)" offset="0.511719"/><stop stop-opacity="1" stop-color="rgb(56.344604%, 43.206787%, 71.006775%)" offset="0.515625"/><stop stop-opacity="1" stop-color="rgb(56.803894%, 43.125916%, 70.915222%)" offset="0.519531"/><stop stop-opacity="1" stop-color="rgb(57.263184%, 43.045044%, 70.823669%)" offset="0.523438"/><stop stop-opacity="1" stop-color="rgb(57.722473%, 42.964172%, 70.732117%)" offset="0.527344"/><stop stop-opacity="1" stop-color="rgb(58.183289%, 42.883301%, 70.64209%)" offset="0.53125"/><stop stop-opacity="1" stop-color="rgb(58.642578%, 42.802429%, 70.550537%)" offset="0.535156"/><stop stop-opacity="1" stop-color="rgb(59.101868%, 42.721558%, 70.46051%)" offset="0.539062"/><stop stop-opacity="1" stop-color="rgb(59.561157%, 42.640686%, 70.368958%)" offset="0.542969"/><stop stop-opacity="1" stop-color="rgb(60.021973%, 42.559814%, 70.278931%)" offset="0.546875"/><stop stop-opacity="1" stop-color="rgb(60.481262%, 42.478943%, 70.187378%)" offset="0.550781"/><stop stop-opacity="1" stop-color="rgb(60.940552%, 42.398071%, 70.097351%)" offset="0.554688"/><stop stop-opacity="1" stop-color="rgb(61.399841%, 42.3172%, 70.005798%)" offset="0.558594"/><stop stop-opacity="1" stop-color="rgb(61.860657%, 42.236328%, 69.915771%)" offset="0.5625"/><stop stop-opacity="1" stop-color="rgb(62.319946%, 42.155457%, 69.824219%)" offset="0.566406"/><stop stop-opacity="1" stop-color="rgb(62.779236%, 42.074585%, 69.732666%)" offset="0.570312"/><stop stop-opacity="1" stop-color="rgb(63.238525%, 41.993713%, 69.641113%)" offset="0.574219"/><stop stop-opacity="1" stop-color="rgb(63.699341%, 41.912842%, 69.551086%)" offset="0.578125"/><stop stop-opacity="1" stop-color="rgb(64.15863%, 41.83197%, 69.459534%)" offset="0.582031"/><stop stop-opacity="1" stop-color="rgb(64.61792%, 41.751099%, 69.369507%)" offset="0.585938"/><stop stop-opacity="1" stop-color="rgb(65.077209%, 41.670227%, 69.277954%)" offset="0.589844"/><stop stop-opacity="1" stop-color="rgb(65.538025%, 41.589355%, 69.187927%)" offset="0.59375"/><stop stop-opacity="1" stop-color="rgb(65.997314%, 41.508484%, 69.096375%)" offset="0.597656"/><stop stop-opacity="1" stop-color="rgb(66.456604%, 41.427612%, 69.006348%)" offset="0.601562"/><stop stop-opacity="1" stop-color="rgb(66.915894%, 41.346741%, 68.914795%)" offset="0.605469"/><stop stop-opacity="1" stop-color="rgb(67.376709%, 41.265869%, 68.823242%)" offset="0.609375"/><stop stop-opacity="1" stop-color="rgb(67.835999%, 41.184998%, 68.731689%)" offset="0.613281"/><stop stop-opacity="1" stop-color="rgb(68.295288%, 41.104126%, 68.641663%)" offset="0.617188"/><stop stop-opacity="1" stop-color="rgb(68.754578%, 41.023254%, 68.55011%)" offset="0.621094"/><stop stop-opacity="1" stop-color="rgb(69.215393%, 40.942383%, 68.460083%)" offset="0.625"/><stop stop-opacity="1" stop-color="rgb(69.674683%, 40.859985%, 68.36853%)" offset="0.628906"/><stop stop-opacity="1" stop-color="rgb(70.133972%, 40.779114%, 68.278503%)" offset="0.632812"/><stop stop-opacity="1" stop-color="rgb(70.593262%, 40.698242%, 68.186951%)" offset="0.636719"/><stop stop-opacity="1" stop-color="rgb(71.054077%, 40.617371%, 68.096924%)" offset="0.640625"/><stop stop-opacity="1" stop-color="rgb(71.513367%, 40.536499%, 68.005371%)" offset="0.644531"/><stop stop-opacity="1" stop-color="rgb(71.972656%, 40.455627%, 67.915344%)" offset="0.648438"/><stop stop-opacity="1" stop-color="rgb(72.431946%, 40.374756%, 67.823792%)" offset="0.652344"/><stop stop-opacity="1" stop-color="rgb(72.892761%, 40.293884%, 67.732239%)" offset="0.65625"/><stop stop-opacity="1" stop-color="rgb(73.352051%, 40.213013%, 67.640686%)" offset="0.660156"/><stop stop-opacity="1" stop-color="rgb(73.81134%, 40.132141%, 67.550659%)" offset="0.664062"/><stop stop-opacity="1" stop-color="rgb(74.27063%, 40.05127%, 67.459106%)" offset="0.667969"/><stop stop-opacity="1" stop-color="rgb(74.731445%, 39.970398%, 67.36908%)" offset="0.671875"/><stop stop-opacity="1" stop-color="rgb(75.190735%, 39.889526%, 67.277527%)" offset="0.675781"/><stop stop-opacity="1" stop-color="rgb(75.650024%, 39.808655%, 67.1875%)" offset="0.679688"/><stop stop-opacity="1" stop-color="rgb(76.109314%, 39.727783%, 67.095947%)" offset="0.683594"/><stop stop-opacity="1" stop-color="rgb(76.570129%, 39.646912%, 67.00592%)" offset="0.6875"/><stop stop-opacity="1" stop-color="rgb(77.029419%, 39.56604%, 66.914368%)" offset="0.691406"/><stop stop-opacity="1" stop-color="rgb(77.488708%, 39.485168%, 66.822815%)" offset="0.695312"/><stop stop-opacity="1" stop-color="rgb(77.947998%, 39.404297%, 66.731262%)" offset="0.699219"/><stop stop-opacity="1" stop-color="rgb(78.408813%, 39.323425%, 66.641235%)" offset="0.703125"/><stop stop-opacity="1" stop-color="rgb(78.868103%, 39.242554%, 66.549683%)" offset="0.707031"/><stop stop-opacity="1" stop-color="rgb(79.327393%, 39.161682%, 66.459656%)" offset="0.710938"/><stop stop-opacity="1" stop-color="rgb(79.786682%, 39.080811%, 66.368103%)" offset="0.714844"/><stop stop-opacity="1" stop-color="rgb(80.247498%, 38.999939%, 66.278076%)" offset="0.71875"/><stop stop-opacity="1" stop-color="rgb(80.706787%, 38.919067%, 66.186523%)" offset="0.722656"/><stop stop-opacity="1" stop-color="rgb(81.166077%, 38.838196%, 66.096497%)" offset="0.726562"/><stop stop-opacity="1" stop-color="rgb(81.625366%, 38.757324%, 66.004944%)" offset="0.730469"/><stop stop-opacity="1" stop-color="rgb(82.086182%, 38.676453%, 65.914917%)" offset="0.734375"/><stop stop-opacity="1" stop-color="rgb(82.545471%, 38.595581%, 65.823364%)" offset="0.738281"/><stop stop-opacity="1" stop-color="rgb(83.004761%, 38.514709%, 65.731812%)" offset="0.742188"/><stop stop-opacity="1" stop-color="rgb(83.46405%, 38.433838%, 65.640259%)" offset="0.746094"/><stop stop-opacity="1" stop-color="rgb(83.924866%, 38.352966%, 65.550232%)" offset="0.75"/><stop stop-opacity="1" stop-color="rgb(84.384155%, 38.272095%, 65.458679%)" offset="0.753906"/><stop stop-opacity="1" stop-color="rgb(84.843445%, 38.191223%, 65.368652%)" offset="0.757812"/><stop stop-opacity="1" stop-color="rgb(85.302734%, 38.110352%, 65.2771%)" offset="0.761719"/><stop stop-opacity="1" stop-color="rgb(85.76355%, 38.02948%, 65.187073%)" offset="0.765625"/><stop stop-opacity="1" stop-color="rgb(86.222839%, 37.948608%, 65.09552%)" offset="0.769531"/><stop stop-opacity="1" stop-color="rgb(86.682129%, 37.867737%, 65.005493%)" offset="0.773438"/><stop stop-opacity="1" stop-color="rgb(87.141418%, 37.786865%, 64.91394%)" offset="0.777344"/><stop stop-opacity="1" stop-color="rgb(87.602234%, 37.705994%, 64.822388%)" offset="0.78125"/><stop stop-opacity="1" stop-color="rgb(88.061523%, 37.625122%, 64.730835%)" offset="0.785156"/><stop stop-opacity="1" stop-color="rgb(88.520813%, 37.54425%, 64.640808%)" offset="0.789062"/><stop stop-opacity="1" stop-color="rgb(88.980103%, 37.463379%, 64.549255%)" offset="0.792969"/><stop stop-opacity="1" stop-color="rgb(89.440918%, 37.382507%, 64.459229%)" offset="0.796875"/><stop stop-opacity="1" stop-color="rgb(89.819336%, 37.315369%, 64.38446%)" offset="0.800781"/><stop stop-opacity="1" stop-color="rgb(90.19928%, 37.249756%, 64.309692%)" offset="0.804688"/><stop stop-opacity="1" stop-color="rgb(90.19928%, 37.249756%, 64.309692%)" offset="0.8125"/><stop stop-opacity="1" stop-color="rgb(90.19928%, 37.249756%, 64.309692%)" offset="0.875"/><stop stop-opacity="1" stop-color="rgb(90.19928%, 37.249756%, 64.309692%)" offset="1"/></linearGradient><clipPath id="9f5ac86516"><rect x="0" width="208" y="0" height="110"/></clipPath><clipPath id="38bb33e70b"><path d="M 0.757812 0.605469 L 207.019531 0.605469 L 207.019531 109.914062 L 0.757812 109.914062 Z M 0.757812 0.605469 " clip-rule="nonzero"/></clipPath><clipPath id="53ee45d3f6"><rect x="0" width="208" y="0" height="110"/></clipPath><clipPath id="e31efc5ed1"><rect x="0" width="208" y="0" height="110"/></clipPath><mask id="9d7e93518c"><g filter="url(#1a1d3e93f6)"><g><g clip-path="url(#e31efc5ed1)"><g clip-path="url(#38bb33e70b)"><g><g clip-path="url(#53ee45d3f6)"><g fill="#000000" fill-opacity="1"><g transform="translate(41.629835, 61.438389)"><g><path d="M 1.71875 0 L 1.71875 -14.75 L 6.96875 -14.75 C 7.988281 -14.75 8.835938 -14.578125 9.515625 -14.234375 C 10.191406 -13.890625 10.695312 -13.421875 11.03125 -12.828125 C 11.375 -12.242188 11.546875 -11.582031 11.546875 -10.84375 C 11.546875 -10.21875 11.4375 -9.695312 11.21875 -9.28125 C 11 -8.875 10.707031 -8.546875 10.34375 -8.296875 C 9.976562 -8.046875 9.570312 -7.851562 9.125 -7.71875 L 9.125 -7.609375 C 9.613281 -7.566406 10.085938 -7.398438 10.546875 -7.109375 C 11.003906 -6.828125 11.378906 -6.421875 11.671875 -5.890625 C 11.972656 -5.367188 12.125 -4.734375 12.125 -3.984375 C 12.125 -3.210938 11.945312 -2.53125 11.59375 -1.9375 C 11.25 -1.34375 10.707031 -0.867188 9.96875 -0.515625 C 9.226562 -0.171875 8.273438 0 7.109375 0 Z M 3.578125 -1.640625 L 7.078125 -1.640625 C 8.210938 -1.640625 9.035156 -1.859375 9.546875 -2.296875 C 10.054688 -2.742188 10.3125 -3.304688 10.3125 -3.984375 C 10.3125 -4.484375 10.1875 -4.9375 9.9375 -5.34375 C 9.6875 -5.757812 9.328125 -6.085938 8.859375 -6.328125 C 8.390625 -6.566406 7.828125 -6.6875 7.171875 -6.6875 L 3.578125 -6.6875 Z M 3.578125 -8.28125 L 6.90625 -8.28125 C 7.445312 -8.28125 7.929688 -8.378906 8.359375 -8.578125 C 8.796875 -8.785156 9.132812 -9.078125 9.375 -9.453125 C 9.625 -9.828125 9.75 -10.269531 9.75 -10.78125 C 9.75 -11.445312 9.519531 -12 9.0625 -12.4375 C 8.601562 -12.882812 7.898438 -13.109375 6.953125 -13.109375 L 3.578125 -13.109375 Z M 3.578125 -8.28125 "/></g></g></g><g fill="#000000" fill-opacity="1"><g transform="translate(54.013811, 61.438389)"><g><path d="M 5.671875 0.203125 C 4.710938 0.203125 3.878906 0.0234375 3.171875 -0.328125 C 2.460938 -0.691406 1.914062 -1.179688 1.53125 -1.796875 C 1.144531 -2.410156 0.953125 -3.101562 0.953125 -3.875 C 0.953125 -4.476562 1.070312 -5.007812 1.3125 -5.46875 C 1.5625 -5.925781 1.914062 -6.359375 2.375 -6.765625 C 2.84375 -7.179688 3.394531 -7.625 4.03125 -8.09375 L 6.25 -9.734375 C 6.445312 -9.890625 6.644531 -10.0625 6.84375 -10.25 C 7.050781 -10.4375 7.222656 -10.648438 7.359375 -10.890625 C 7.492188 -11.140625 7.5625 -11.425781 7.5625 -11.75 C 7.5625 -12.21875 7.398438 -12.601562 7.078125 -12.90625 C 6.753906 -13.21875 6.328125 -13.375 5.796875 -13.375 C 5.429688 -13.375 5.101562 -13.296875 4.8125 -13.140625 C 4.53125 -12.984375 4.3125 -12.769531 4.15625 -12.5 C 4 -12.226562 3.921875 -11.914062 3.921875 -11.5625 C 3.921875 -11.207031 4 -10.867188 4.15625 -10.546875 C 4.3125 -10.234375 4.535156 -9.890625 4.828125 -9.515625 C 5.117188 -9.148438 5.460938 -8.722656 5.859375 -8.234375 L 12.65625 0 L 10.53125 0 L 4.9375 -6.71875 C 4.351562 -7.425781 3.851562 -8.035156 3.4375 -8.546875 C 3.019531 -9.054688 2.703125 -9.546875 2.484375 -10.015625 C 2.265625 -10.492188 2.15625 -11.007812 2.15625 -11.5625 C 2.15625 -12.21875 2.300781 -12.796875 2.59375 -13.296875 C 2.894531 -13.796875 3.316406 -14.1875 3.859375 -14.46875 C 4.398438 -14.75 5.035156 -14.890625 5.765625 -14.890625 C 6.492188 -14.890625 7.125 -14.75 7.65625 -14.46875 C 8.195312 -14.1875 8.613281 -13.804688 8.90625 -13.328125 C 9.195312 -12.859375 9.34375 -12.328125 9.34375 -11.734375 C 9.34375 -11.296875 9.257812 -10.882812 9.09375 -10.5 C 8.9375 -10.125 8.710938 -9.769531 8.421875 -9.4375 C 8.128906 -9.101562 7.785156 -8.789062 7.390625 -8.5 L 4.4375 -6.3125 C 3.832031 -5.863281 3.398438 -5.445312 3.140625 -5.0625 C 2.890625 -4.6875 2.765625 -4.269531 2.765625 -3.8125 C 2.765625 -3.332031 2.882812 -2.90625 3.125 -2.53125 C 3.363281 -2.164062 3.695312 -1.875 4.125 -1.65625 C 4.550781 -1.445312 5.035156 -1.34375 5.578125 -1.34375 C 6.160156 -1.34375 6.71875 -1.46875 7.25 -1.71875 C 7.789062 -1.96875 8.273438 -2.320312 8.703125 -2.78125 C 9.128906 -3.238281 9.460938 -3.78125 9.703125 -4.40625 C 9.953125 -5.03125 10.078125 -5.726562 10.078125 -6.5 L 11.78125 -6.5 C 11.78125 -5.601562 11.675781 -4.847656 11.46875 -4.234375 C 11.269531 -3.617188 11.023438 -3.117188 10.734375 -2.734375 C 10.453125 -2.347656 10.195312 -2.035156 9.96875 -1.796875 L 9.625 -1.359375 C 9.144531 -0.847656 8.546875 -0.457031 7.828125 -0.1875 C 7.109375 0.0703125 6.390625 0.203125 5.671875 0.203125 Z M 5.671875 0.203125 "/></g></g></g><g fill="#000000" fill-opacity="1"><g transform="translate(66.100823, 61.438389)"><g><path d="M 7.75 0.203125 C 6.46875 0.203125 5.328125 -0.101562 4.328125 -0.71875 C 3.328125 -1.34375 2.546875 -2.222656 1.984375 -3.359375 C 1.421875 -4.492188 1.140625 -5.832031 1.140625 -7.375 C 1.140625 -8.914062 1.421875 -10.253906 1.984375 -11.390625 C 2.546875 -12.523438 3.328125 -13.40625 4.328125 -14.03125 C 5.328125 -14.65625 6.46875 -14.96875 7.75 -14.96875 C 8.5 -14.96875 9.207031 -14.851562 9.875 -14.625 C 10.539062 -14.40625 11.140625 -14.082031 11.671875 -13.65625 C 12.203125 -13.238281 12.644531 -12.726562 13 -12.125 C 13.351562 -11.53125 13.59375 -10.847656 13.71875 -10.078125 L 11.859375 -10.078125 C 11.753906 -10.597656 11.570312 -11.050781 11.3125 -11.4375 C 11.0625 -11.820312 10.75 -12.148438 10.375 -12.421875 C 10.007812 -12.691406 9.601562 -12.894531 9.15625 -13.03125 C 8.707031 -13.164062 8.238281 -13.234375 7.75 -13.234375 C 6.832031 -13.234375 6.007812 -13.003906 5.28125 -12.546875 C 4.5625 -12.085938 3.992188 -11.421875 3.578125 -10.546875 C 3.171875 -9.671875 2.96875 -8.613281 2.96875 -7.375 C 2.96875 -6.132812 3.171875 -5.078125 3.578125 -4.203125 C 3.992188 -3.328125 4.5625 -2.660156 5.28125 -2.203125 C 6.007812 -1.742188 6.832031 -1.515625 7.75 -1.515625 C 8.238281 -1.515625 8.707031 -1.582031 9.15625 -1.71875 C 9.601562 -1.863281 10.007812 -2.066406 10.375 -2.328125 C 10.738281 -2.597656 11.050781 -2.925781 11.3125 -3.3125 C 11.570312 -3.707031 11.753906 -4.160156 11.859375 -4.671875 L 13.71875 -4.671875 C 13.59375 -3.910156 13.351562 -3.234375 13 -2.640625 C 12.644531 -2.046875 12.203125 -1.535156 11.671875 -1.109375 C 11.148438 -0.679688 10.554688 -0.351562 9.890625 -0.125 C 9.222656 0.09375 8.507812 0.203125 7.75 0.203125 Z M 7.75 0.203125 "/></g></g></g><g fill="#000000" fill-opacity="1"><g transform="translate(80.058696, 61.438389)"><g/></g></g><g fill="#000000" fill-opacity="1"><g transform="translate(84.810714, 61.438389)"><g><path d="M 6.46875 0.25 C 5.394531 0.25 4.457031 0.0703125 3.65625 -0.28125 C 2.863281 -0.644531 2.242188 -1.144531 1.796875 -1.78125 C 1.359375 -2.425781 1.113281 -3.1875 1.0625 -4.0625 L 2.96875 -4.0625 C 3.007812 -3.46875 3.1875 -2.972656 3.5 -2.578125 C 3.820312 -2.191406 4.238281 -1.898438 4.75 -1.703125 C 5.269531 -1.515625 5.84375 -1.421875 6.46875 -1.421875 C 7.144531 -1.421875 7.75 -1.523438 8.28125 -1.734375 C 8.8125 -1.953125 9.226562 -2.257812 9.53125 -2.65625 C 9.84375 -3.050781 10 -3.507812 10 -4.03125 C 10 -4.488281 9.875 -4.867188 9.625 -5.171875 C 9.375 -5.472656 9.03125 -5.722656 8.59375 -5.921875 C 8.15625 -6.117188 7.648438 -6.296875 7.078125 -6.453125 L 5.328125 -6.9375 C 4.066406 -7.28125 3.101562 -7.757812 2.4375 -8.375 C 1.78125 -9 1.453125 -9.804688 1.453125 -10.796875 C 1.453125 -11.628906 1.671875 -12.359375 2.109375 -12.984375 C 2.554688 -13.609375 3.160156 -14.09375 3.921875 -14.4375 C 4.691406 -14.789062 5.5625 -14.96875 6.53125 -14.96875 C 7.507812 -14.96875 8.375 -14.789062 9.125 -14.4375 C 9.875 -14.082031 10.460938 -13.597656 10.890625 -12.984375 C 11.316406 -12.378906 11.546875 -11.679688 11.578125 -10.890625 L 9.75 -10.890625 C 9.675781 -11.660156 9.335938 -12.253906 8.734375 -12.671875 C 8.128906 -13.097656 7.375 -13.3125 6.46875 -13.3125 C 5.832031 -13.3125 5.269531 -13.203125 4.78125 -12.984375 C 4.300781 -12.773438 3.925781 -12.488281 3.65625 -12.125 C 3.394531 -11.769531 3.265625 -11.359375 3.265625 -10.890625 C 3.265625 -10.398438 3.410156 -10 3.703125 -9.6875 C 4.003906 -9.382812 4.375 -9.140625 4.8125 -8.953125 C 5.25 -8.773438 5.6875 -8.625 6.125 -8.5 L 7.640625 -8.09375 C 8.109375 -7.976562 8.582031 -7.816406 9.0625 -7.609375 C 9.550781 -7.410156 10.003906 -7.15625 10.421875 -6.84375 C 10.835938 -6.539062 11.175781 -6.15625 11.4375 -5.6875 C 11.695312 -5.226562 11.828125 -4.675781 11.828125 -4.03125 C 11.828125 -3.207031 11.613281 -2.472656 11.1875 -1.828125 C 10.757812 -1.179688 10.144531 -0.671875 9.34375 -0.296875 C 8.550781 0.0664062 7.59375 0.25 6.46875 0.25 Z M 6.46875 0.25 "/></g></g></g><g fill="#000000" fill-opacity="1"><g transform="translate(96.88782, 61.438389)"><g><path d="M 5.90625 -10.9375 L 5.90625 -9.421875 L 0.1875 -9.421875 L 0.1875 -10.9375 Z M 1.890625 -13.609375 L 3.65625 -13.609375 L 3.65625 -2.796875 C 3.65625 -2.328125 3.75 -1.984375 3.9375 -1.765625 C 4.132812 -1.554688 4.46875 -1.453125 4.9375 -1.453125 C 5.050781 -1.453125 5.195312 -1.457031 5.375 -1.46875 C 5.550781 -1.488281 5.710938 -1.507812 5.859375 -1.53125 L 6.140625 -0.046875 C 5.953125 0.00390625 5.742188 0.0390625 5.515625 0.0625 C 5.285156 0.09375 5.066406 0.109375 4.859375 0.109375 C 3.910156 0.109375 3.175781 -0.128906 2.65625 -0.609375 C 2.144531 -1.097656 1.890625 -1.78125 1.890625 -2.65625 Z M 1.890625 -13.609375 "/></g></g></g><g fill="#000000" fill-opacity="1"><g transform="translate(102.639621, 61.438389)"><g><path d="M 1.5 0 L 1.5 -10.9375 L 3.1875 -10.9375 L 3.1875 -9.25 L 3.28125 -9.25 C 3.488281 -9.800781 3.84375 -10.242188 4.34375 -10.578125 C 4.84375 -10.921875 5.421875 -11.09375 6.078125 -11.09375 C 6.210938 -11.09375 6.363281 -11.085938 6.53125 -11.078125 C 6.707031 -11.078125 6.84375 -11.070312 6.9375 -11.0625 L 6.9375 -9.28125 C 6.882812 -9.300781 6.753906 -9.320312 6.546875 -9.34375 C 6.335938 -9.375 6.113281 -9.390625 5.875 -9.390625 C 5.382812 -9.390625 4.9375 -9.28125 4.53125 -9.0625 C 4.132812 -8.851562 3.820312 -8.554688 3.59375 -8.171875 C 3.375 -7.796875 3.265625 -7.347656 3.265625 -6.828125 L 3.265625 0 Z M 1.5 0 "/></g></g></g><g fill="#000000" fill-opacity="1"><g transform="translate(109.143714, 61.438389)"><g><path d="M 4.609375 0.234375 C 3.910156 0.234375 3.28125 0.109375 2.71875 -0.140625 C 2.15625 -0.398438 1.707031 -0.78125 1.375 -1.28125 C 1.039062 -1.789062 0.875 -2.40625 0.875 -3.125 C 0.875 -3.75 0.992188 -4.253906 1.234375 -4.640625 C 1.484375 -5.035156 1.816406 -5.34375 2.234375 -5.5625 C 2.648438 -5.789062 3.109375 -5.960938 3.609375 -6.078125 C 4.117188 -6.191406 4.628906 -6.28125 5.140625 -6.34375 C 5.804688 -6.425781 6.34375 -6.488281 6.75 -6.53125 C 7.15625 -6.582031 7.453125 -6.660156 7.640625 -6.765625 C 7.835938 -6.878906 7.9375 -7.070312 7.9375 -7.34375 L 7.9375 -7.421875 C 7.9375 -7.859375 7.847656 -8.234375 7.671875 -8.546875 C 7.503906 -8.867188 7.25 -9.113281 6.90625 -9.28125 C 6.5625 -9.445312 6.132812 -9.53125 5.625 -9.53125 C 5.101562 -9.53125 4.65625 -9.445312 4.28125 -9.28125 C 3.90625 -9.125 3.597656 -8.914062 3.359375 -8.65625 C 3.128906 -8.40625 2.96875 -8.140625 2.875 -7.859375 L 1.171875 -8.3125 C 1.390625 -8.976562 1.726562 -9.515625 2.1875 -9.921875 C 2.644531 -10.328125 3.164062 -10.625 3.75 -10.8125 C 4.34375 -11 4.953125 -11.09375 5.578125 -11.09375 C 6.003906 -11.09375 6.453125 -11.035156 6.921875 -10.921875 C 7.398438 -10.816406 7.847656 -10.628906 8.265625 -10.359375 C 8.691406 -10.085938 9.035156 -9.703125 9.296875 -9.203125 C 9.554688 -8.703125 9.6875 -8.0625 9.6875 -7.28125 L 9.6875 0 L 7.96875 0 L 7.96875 -1.5 L 7.859375 -1.5 C 7.734375 -1.25 7.535156 -0.988281 7.265625 -0.71875 C 6.992188 -0.445312 6.640625 -0.21875 6.203125 -0.03125 C 5.773438 0.144531 5.242188 0.234375 4.609375 0.234375 Z M 4.90625 -1.328125 C 5.570312 -1.328125 6.128906 -1.453125 6.578125 -1.703125 C 7.023438 -1.960938 7.363281 -2.296875 7.59375 -2.703125 C 7.820312 -3.109375 7.9375 -3.535156 7.9375 -3.984375 L 7.9375 -5.46875 C 7.863281 -5.394531 7.710938 -5.320312 7.484375 -5.25 C 7.265625 -5.1875 7.003906 -5.128906 6.703125 -5.078125 C 6.398438 -5.023438 6.101562 -4.976562 5.8125 -4.9375 C 5.519531 -4.90625 5.269531 -4.878906 5.0625 -4.859375 C 4.632812 -4.796875 4.234375 -4.703125 3.859375 -4.578125 C 3.492188 -4.453125 3.195312 -4.265625 2.96875 -4.015625 C 2.75 -3.773438 2.640625 -3.445312 2.640625 -3.03125 C 2.640625 -2.65625 2.738281 -2.34375 2.9375 -2.09375 C 3.132812 -1.84375 3.398438 -1.648438 3.734375 -1.515625 C 4.066406 -1.390625 4.457031 -1.328125 4.90625 -1.328125 Z M 4.90625 -1.328125 "/></g></g></g><g fill="#000000" fill-opacity="1"><g transform="translate(119.518232, 61.438389)"><g><path d="M 5.90625 -10.9375 L 5.90625 -9.421875 L 0.1875 -9.421875 L 0.1875 -10.9375 Z M 1.890625 -13.609375 L 3.65625 -13.609375 L 3.65625 -2.796875 C 3.65625 -2.328125 3.75 -1.984375 3.9375 -1.765625 C 4.132812 -1.554688 4.46875 -1.453125 4.9375 -1.453125 C 5.050781 -1.453125 5.195312 -1.457031 5.375 -1.46875 C 5.550781 -1.488281 5.710938 -1.507812 5.859375 -1.53125 L 6.140625 -0.046875 C 5.953125 0.00390625 5.742188 0.0390625 5.515625 0.0625 C 5.285156 0.09375 5.066406 0.109375 4.859375 0.109375 C 3.910156 0.109375 3.175781 -0.128906 2.65625 -0.609375 C 2.144531 -1.097656 1.890625 -1.78125 1.890625 -2.65625 Z M 1.890625 -13.609375 "/></g></g></g><g fill="#000000" fill-opacity="1"><g transform="translate(125.072043, 61.438389)"><g><path d="M 6.078125 0.234375 C 5.015625 0.234375 4.097656 0 3.328125 -0.46875 C 2.566406 -0.945312 1.976562 -1.609375 1.5625 -2.453125 C 1.15625 -3.296875 0.953125 -4.273438 0.953125 -5.390625 C 0.953125 -6.515625 1.15625 -7.503906 1.5625 -8.359375 C 1.96875 -9.210938 2.539062 -9.878906 3.28125 -10.359375 C 4.03125 -10.847656 4.894531 -11.09375 5.875 -11.09375 C 6.5 -11.09375 7.097656 -10.988281 7.671875 -10.78125 C 8.242188 -10.570312 8.757812 -10.242188 9.21875 -9.796875 C 9.675781 -9.347656 10.035156 -8.773438 10.296875 -8.078125 C 10.554688 -7.378906 10.6875 -6.546875 10.6875 -5.578125 L 10.6875 -4.890625 L 2.09375 -4.890625 L 2.09375 -6.375 L 9.734375 -6.375 L 8.9375 -5.84375 C 8.9375 -6.5625 8.816406 -7.195312 8.578125 -7.75 C 8.347656 -8.300781 8.003906 -8.734375 7.546875 -9.046875 C 7.097656 -9.367188 6.539062 -9.53125 5.875 -9.53125 C 5.226562 -9.53125 4.664062 -9.367188 4.1875 -9.046875 C 3.71875 -8.734375 3.359375 -8.3125 3.109375 -7.78125 C 2.859375 -7.257812 2.734375 -6.6875 2.734375 -6.0625 L 2.734375 -5.125 C 2.734375 -4.332031 2.867188 -3.648438 3.140625 -3.078125 C 3.421875 -2.515625 3.8125 -2.082031 4.3125 -1.78125 C 4.820312 -1.488281 5.410156 -1.34375 6.078125 -1.34375 C 6.523438 -1.34375 6.925781 -1.40625 7.28125 -1.53125 C 7.644531 -1.664062 7.957031 -1.859375 8.21875 -2.109375 C 8.476562 -2.367188 8.671875 -2.6875 8.796875 -3.0625 L 10.515625 -2.6875 C 10.347656 -2.113281 10.0625 -1.601562 9.65625 -1.15625 C 9.25 -0.71875 8.738281 -0.375 8.125 -0.125 C 7.507812 0.113281 6.828125 0.234375 6.078125 0.234375 Z M 6.078125 0.234375 "/></g></g></g><g fill="#000000" fill-opacity="1"><g transform="translate(135.872216, 61.438389)"><g><path d="M 5.953125 4.359375 C 5.148438 4.359375 4.441406 4.25 3.828125 4.03125 C 3.222656 3.820312 2.722656 3.53125 2.328125 3.15625 C 1.929688 2.78125 1.632812 2.359375 1.4375 1.890625 L 2.9375 1.171875 C 3.082031 1.421875 3.273438 1.671875 3.515625 1.921875 C 3.753906 2.179688 4.066406 2.394531 4.453125 2.5625 C 4.847656 2.726562 5.347656 2.8125 5.953125 2.8125 C 6.835938 2.8125 7.5625 2.59375 8.125 2.15625 C 8.6875 1.71875 8.96875 1.050781 8.96875 0.15625 L 8.96875 -1.9375 L 8.84375 -1.9375 C 8.6875 -1.6875 8.484375 -1.414062 8.234375 -1.125 C 7.984375 -0.832031 7.644531 -0.585938 7.21875 -0.390625 C 6.789062 -0.191406 6.253906 -0.09375 5.609375 -0.09375 C 4.710938 -0.09375 3.914062 -0.304688 3.21875 -0.734375 C 2.519531 -1.160156 1.96875 -1.773438 1.5625 -2.578125 C 1.15625 -3.390625 0.953125 -4.363281 0.953125 -5.5 C 0.953125 -6.632812 1.148438 -7.617188 1.546875 -8.453125 C 1.953125 -9.285156 2.503906 -9.929688 3.203125 -10.390625 C 3.910156 -10.859375 4.722656 -11.09375 5.640625 -11.09375 C 6.285156 -11.09375 6.816406 -10.984375 7.234375 -10.765625 C 7.660156 -10.554688 8.003906 -10.300781 8.265625 -10 C 8.523438 -9.707031 8.734375 -9.4375 8.890625 -9.1875 L 9.015625 -9.1875 L 9.015625 -10.9375 L 10.71875 -10.9375 L 10.71875 0.234375 C 10.71875 1.191406 10.503906 1.972656 10.078125 2.578125 C 9.660156 3.191406 9.085938 3.640625 8.359375 3.921875 C 7.640625 4.210938 6.835938 4.359375 5.953125 4.359375 Z M 5.890625 -1.65625 C 6.554688 -1.65625 7.117188 -1.8125 7.578125 -2.125 C 8.046875 -2.4375 8.398438 -2.882812 8.640625 -3.46875 C 8.890625 -4.050781 9.015625 -4.738281 9.015625 -5.53125 C 9.015625 -6.320312 8.894531 -7.015625 8.65625 -7.609375 C 8.414062 -8.203125 8.0625 -8.664062 7.59375 -9 C 7.132812 -9.34375 6.566406 -9.515625 5.890625 -9.515625 C 5.210938 -9.515625 4.640625 -9.34375 4.171875 -9 C 3.703125 -8.65625 3.347656 -8.179688 3.109375 -7.578125 C 2.867188 -6.984375 2.75 -6.300781 2.75 -5.53125 C 2.75 -4.757812 2.867188 -4.082031 3.109375 -3.5 C 3.347656 -2.914062 3.703125 -2.460938 4.171875 -2.140625 C 4.640625 -1.816406 5.210938 -1.65625 5.890625 -1.65625 Z M 5.890625 -1.65625 "/></g></g></g><g fill="#000000" fill-opacity="1"><g transform="translate(147.276206, 61.438389)"><g><path d="M 1.5 0 L 1.5 -10.9375 L 3.265625 -10.9375 L 3.265625 0 Z M 2.375 -12.796875 C 2.050781 -12.796875 1.769531 -12.910156 1.53125 -13.140625 C 1.289062 -13.367188 1.171875 -13.644531 1.171875 -13.96875 C 1.171875 -14.289062 1.289062 -14.566406 1.53125 -14.796875 C 1.769531 -15.023438 2.050781 -15.140625 2.375 -15.140625 C 2.71875 -15.140625 3.007812 -15.023438 3.25 -14.796875 C 3.488281 -14.566406 3.609375 -14.289062 3.609375 -13.96875 C 3.609375 -13.644531 3.488281 -13.367188 3.25 -13.140625 C 3.007812 -12.910156 2.71875 -12.796875 2.375 -12.796875 Z M 2.375 -12.796875 "/></g></g></g><g fill="#000000" fill-opacity="1"><g transform="translate(151.216525, 61.438389)"><g><path d="M 5.234375 0.234375 C 4.472656 0.234375 3.796875 0.117188 3.203125 -0.109375 C 2.609375 -0.335938 2.117188 -0.675781 1.734375 -1.125 C 1.359375 -1.570312 1.113281 -2.125 1 -2.78125 L 2.6875 -3.09375 C 2.820312 -2.476562 3.101562 -2.023438 3.53125 -1.734375 C 3.96875 -1.441406 4.523438 -1.296875 5.203125 -1.296875 C 5.960938 -1.296875 6.566406 -1.457031 7.015625 -1.78125 C 7.472656 -2.113281 7.703125 -2.507812 7.703125 -2.96875 C 7.703125 -3.34375 7.5625 -3.65625 7.28125 -3.90625 C 7.007812 -4.15625 6.613281 -4.34375 6.09375 -4.46875 L 4.28125 -4.90625 C 3.28125 -5.132812 2.535156 -5.5 2.046875 -6 C 1.554688 -6.5 1.3125 -7.132812 1.3125 -7.90625 C 1.3125 -8.53125 1.484375 -9.082031 1.828125 -9.5625 C 2.179688 -10.039062 2.660156 -10.414062 3.265625 -10.6875 C 3.867188 -10.957031 4.5625 -11.09375 5.34375 -11.09375 C 6.09375 -11.09375 6.738281 -10.972656 7.28125 -10.734375 C 7.820312 -10.492188 8.257812 -10.160156 8.59375 -9.734375 C 8.925781 -9.316406 9.160156 -8.832031 9.296875 -8.28125 L 7.6875 -7.953125 C 7.5625 -8.378906 7.316406 -8.757812 6.953125 -9.09375 C 6.585938 -9.425781 6.054688 -9.59375 5.359375 -9.59375 C 4.703125 -9.59375 4.160156 -9.441406 3.734375 -9.140625 C 3.304688 -8.835938 3.09375 -8.453125 3.09375 -7.984375 C 3.09375 -7.578125 3.238281 -7.25 3.53125 -7 C 3.832031 -6.757812 4.289062 -6.566406 4.90625 -6.421875 L 6.578125 -6.03125 C 7.578125 -5.789062 8.316406 -5.425781 8.796875 -4.9375 C 9.273438 -4.445312 9.515625 -3.820312 9.515625 -3.0625 C 9.515625 -2.414062 9.332031 -1.84375 8.96875 -1.34375 C 8.601562 -0.851562 8.097656 -0.46875 7.453125 -0.1875 C 6.816406 0.09375 6.078125 0.234375 5.234375 0.234375 Z M 5.234375 0.234375 "/></g></g></g><g fill="#000000" fill-opacity="1"><g transform="translate(160.908035, 61.438389)"><g><path d="M 5.90625 -10.9375 L 5.90625 -9.421875 L 0.1875 -9.421875 L 0.1875 -10.9375 Z M 1.890625 -13.609375 L 3.65625 -13.609375 L 3.65625 -2.796875 C 3.65625 -2.328125 3.75 -1.984375 3.9375 -1.765625 C 4.132812 -1.554688 4.46875 -1.453125 4.9375 -1.453125 C 5.050781 -1.453125 5.195312 -1.457031 5.375 -1.46875 C 5.550781 -1.488281 5.710938 -1.507812 5.859375 -1.53125 L 6.140625 -0.046875 C 5.953125 0.00390625 5.742188 0.0390625 5.515625 0.0625 C 5.285156 0.09375 5.066406 0.109375 4.859375 0.109375 C 3.910156 0.109375 3.175781 -0.128906 2.65625 -0.609375 C 2.144531 -1.097656 1.890625 -1.78125 1.890625 -2.65625 Z M 1.890625 -13.609375 "/></g></g></g></g></g></g></g></g></g></mask><clipPath id="9d24a6d6cf"><path d="M 0.761719 1.554688 L 207.019531 1.554688 L 207.019531 107.0625 L 0.761719 107.0625 Z M 0.761719 1.554688 " clip-rule="nonzero"/></clipPath><clipPath id="0d4797f189"><rect x="0" width="208" y="0" height="110"/></clipPath><clipPath id="c58bf8c19c"><rect x="0" width="208" y="0" height="110"/></clipPath><clipPath id="6770298ed6"><rect x="0" width="209" y="0" height="110"/></clipPath><clipPath id="591e1297cb"><path d="M 47.363281 201.246094 L 237.113281 201.246094 L 237.113281 205.746094 L 47.363281 205.746094 Z M 47.363281 201.246094 " clip-rule="nonzero"/></clipPath><clipPath id="df6cf2b814"><path d="M 0.714844 0.246094 L 190.113281 0.246094 L 190.113281 4.746094 L 0.714844 4.746094 Z M 0.714844 0.246094 " clip-rule="nonzero"/></clipPath><clipPath id="a68d319150"><rect x="0" width="191" y="0" height="5"/></clipPath><clipPath id="3cb11b49f9"><path d="M 231.808594 197.84375 L 243.058594 197.84375 L 243.058594 209.09375 L 231.808594 209.09375 Z M 231.808594 197.84375 " clip-rule="nonzero"/></clipPath></defs><g transform="matrix(1, 0, 0, 1, 0, 144)"><g clip-path="url(#1cb6fae914)"><g fill="#1f3f8b" fill-opacity="1"><g transform="translate(-1.54363, 52.841642)"><g><path d="M 20.5 0.640625 C 16.738281 0.640625 13.507812 -0.164062 10.8125 -1.78125 C 8.113281 -3.394531 6.035156 -5.644531 4.578125 -8.53125 C 3.117188 -11.425781 2.390625 -14.773438 2.390625 -18.578125 C 2.390625 -22.378906 3.117188 -25.734375 4.578125 -28.640625 C 6.035156 -31.546875 8.113281 -33.816406 10.8125 -35.453125 C 13.507812 -37.085938 16.738281 -37.90625 20.5 -37.90625 C 24.96875 -37.90625 28.628906 -36.796875 31.484375 -34.578125 C 34.347656 -32.359375 36.132812 -29.242188 36.84375 -25.234375 L 29.328125 -25.234375 C 28.867188 -27.253906 27.882812 -28.84375 26.375 -30 C 24.863281 -31.15625 22.867188 -31.734375 20.390625 -31.734375 C 16.941406 -31.734375 14.242188 -30.5625 12.296875 -28.21875 C 10.347656 -25.875 9.375 -22.660156 9.375 -18.578125 C 9.375 -14.492188 10.347656 -11.289062 12.296875 -8.96875 C 14.242188 -6.644531 16.941406 -5.484375 20.390625 -5.484375 C 22.867188 -5.484375 24.863281 -6.023438 26.375 -7.109375 C 27.882812 -8.191406 28.867188 -9.691406 29.328125 -11.609375 L 36.84375 -11.609375 C 36.132812 -7.773438 34.347656 -4.773438 31.484375 -2.609375 C 28.628906 -0.441406 24.96875 0.640625 20.5 0.640625 Z M 20.5 0.640625 "/></g></g></g><g fill="#1f3f8b" fill-opacity="1"><g transform="translate(34.598724, 52.841642)"><g><path d="M 3.625 0 L 3.625 -37.265625 L 10.4375 -37.265625 L 10.4375 -21.765625 L 27.15625 -21.765625 L 27.15625 -37.265625 L 33.96875 -37.265625 L 33.96875 0 L 27.15625 0 L 27.15625 -16.234375 L 10.4375 -16.234375 L 10.4375 0 Z M 3.625 0 "/></g></g></g><g fill="#1f3f8b" fill-opacity="1"><g transform="translate(69.090979, 52.841642)"><g><path d="M 3.625 0 L 3.625 -37.265625 L 10.4375 -37.265625 L 10.4375 0 Z M 3.625 0 "/></g></g></g><g fill="#1f3f8b" fill-opacity="1"><g transform="translate(80.056116, 52.841642)"><g><path d="M 1.21875 0 L 14.859375 -37.265625 L 22.515625 -37.265625 L 36.140625 0 L 28.90625 0 L 25.921875 -8.625 L 11.390625 -8.625 L 8.359375 0 Z M 13.25 -13.953125 L 24.0625 -13.953125 L 18.625 -29.4375 Z M 13.25 -13.953125 "/></g></g></g><g fill="#1f3f8b" fill-opacity="1"><g transform="translate(114.282228, 52.841642)"><g><path d="M 3.625 0 L 3.625 -37.265625 L 17.296875 -37.265625 C 20.273438 -37.265625 22.734375 -36.757812 24.671875 -35.75 C 26.609375 -34.738281 28.054688 -33.367188 29.015625 -31.640625 C 29.972656 -29.921875 30.453125 -28.015625 30.453125 -25.921875 C 30.453125 -23.648438 29.859375 -21.570312 28.671875 -19.6875 C 27.484375 -17.8125 25.628906 -16.445312 23.109375 -15.59375 L 30.828125 0 L 23 0 L 16.078125 -14.6875 L 10.4375 -14.6875 L 10.4375 0 Z M 10.4375 -19.703125 L 16.875 -19.703125 C 19.144531 -19.703125 20.8125 -20.25 21.875 -21.34375 C 22.9375 -22.445312 23.46875 -23.90625 23.46875 -25.71875 C 23.46875 -27.488281 22.941406 -28.90625 21.890625 -29.96875 C 20.847656 -31.03125 19.160156 -31.5625 16.828125 -31.5625 L 10.4375 -31.5625 Z M 10.4375 -19.703125 "/></g></g></g><g fill="#1f3f8b" fill-opacity="1"><g transform="translate(144.3565, 52.841642)"><g><path d="M 1.21875 0 L 14.859375 -37.265625 L 22.515625 -37.265625 L 36.140625 0 L 28.90625 0 L 25.921875 -8.625 L 11.390625 -8.625 L 8.359375 0 Z M 13.25 -13.953125 L 24.0625 -13.953125 L 18.625 -29.4375 Z M 13.25 -13.953125 "/></g></g></g><g fill="#1f3f8b" fill-opacity="1"><g transform="translate(178.582612, 52.841642)"><g/></g></g><g fill="#1f3f8b" fill-opacity="1"><g transform="translate(188.163807, 52.841642)"><g><path d="M 3.625 0 L 3.625 -37.265625 L 11.71875 -37.265625 L 23.578125 -13.625 L 35.296875 -37.265625 L 43.390625 -37.265625 L 43.390625 0 L 36.578125 0 L 36.578125 -25.71875 L 26.1875 -5.328125 L 20.8125 -5.328125 L 10.4375 -25.71875 L 10.4375 0 Z M 3.625 0 "/></g></g></g><g fill="#1f3f8b" fill-opacity="1"><g transform="translate(232.077557, 52.841642)"><g/></g></g><g fill="#1f3f8b" fill-opacity="1"><g transform="translate(241.658752, 52.841642)"><g><path d="M 14.421875 0 L 0.796875 -37.265625 L 8.09375 -37.265625 L 18.625 -6.96875 L 29.21875 -37.265625 L 36.40625 -37.265625 L 22.78125 0 Z M 14.421875 0 "/></g></g></g><g fill="#1f3f8b" fill-opacity="1"><g transform="translate(275.778407, 52.841642)"><g><path d="M 3.625 0 L 3.625 -37.265625 L 10.4375 -37.265625 L 10.4375 0 Z M 3.625 0 "/></g></g></g><g fill="#1f3f8b" fill-opacity="1"><g transform="translate(286.743544, 52.841642)"><g><path d="M 3.625 0 L 3.625 -37.265625 L 10.4375 -37.265625 L 10.4375 -5.328125 L 26.9375 -5.328125 L 26.9375 0 Z M 3.625 0 "/></g></g></g><g fill="#1f3f8b" fill-opacity="1"><g transform="translate(312.98536, 52.841642)"><g><path d="M 3.625 0 L 3.625 -37.265625 L 10.4375 -37.265625 L 10.4375 -5.328125 L 26.9375 -5.328125 L 26.9375 0 Z M 3.625 0 "/></g></g></g><g clip-path="url(#c9844e9e5d)"><g fill="#1f3f8b" fill-opacity="1"><g transform="translate(339.227148, 52.841642)"><g><path d="M 1.21875 0 L 14.859375 -37.265625 L 22.515625 -37.265625 L 36.140625 0 L 28.90625 0 L 25.921875 -8.625 L 11.390625 -8.625 L 8.359375 0 Z M 13.25 -13.953125 L 24.0625 -13.953125 L 18.625 -29.4375 Z M 13.25 -13.953125 "/></g></g></g></g></g></g><g transform="matrix(1, 0, 0, 1, 88, 160)"><g clip-path="url(#6770298ed6)"><g clip-path="url(#10f42fba4b)"><g><g clip-path="url(#c58bf8c19c)"><g clip-path="url(#4d4e6aed2a)"><g mask="url(#9d7e93518c)"><g><g clip-path="url(#0d4797f189)"><g clip-path="url(#9d24a6d6cf)"><path fill="url(#e1ce07992c)" d="M 0.761719 1.554688 L 0.761719 107.0625 L 207.019531 107.0625 L 207.019531 1.554688 Z M 0.761719 1.554688 " fill-rule="nonzero"/></g></g></g></g></g></g></g></g></g></g><g clip-path="url(#591e1297cb)"><g transform="matrix(1, 0, 0, 1, 47, 201)"><g clip-path="url(#a68d319150)"><g clip-path="url(#df6cf2b814)"><path fill="#e65fa4" d="M 188.179688 0.257812 L 0.371094 2.503906 L 188.179688 4.75 C 189.421875 4.765625 190.4375 3.769531 190.449219 2.53125 C 190.464844 1.289062 189.472656 0.273438 188.230469 0.257812 C 188.222656 0.257812 188.195312 0.257812 188.179688 0.257812 Z M 188.179688 0.257812 " fill-opacity="1" fill-rule="nonzero"/></g></g></g></g><g clip-path="url(#3cb11b49f9)"><path fill="#e65fa4" d="M 243.128906 203.503906 C 243.128906 203.875 243.089844 204.246094 243.019531 204.609375 C 242.945312 204.972656 242.839844 205.328125 242.695312 205.671875 C 242.554688 206.015625 242.378906 206.339844 242.171875 206.648438 C 241.964844 206.957031 241.730469 207.242188 241.46875 207.507812 C 241.207031 207.769531 240.921875 208.003906 240.613281 208.210938 C 240.300781 208.417969 239.976562 208.589844 239.632812 208.734375 C 239.289062 208.875 238.9375 208.984375 238.570312 209.054688 C 238.207031 209.128906 237.839844 209.164062 237.46875 209.164062 C 237.09375 209.164062 236.726562 209.128906 236.363281 209.054688 C 236 208.984375 235.644531 208.875 235.300781 208.734375 C 234.957031 208.589844 234.632812 208.417969 234.324219 208.210938 C 234.011719 208.003906 233.726562 207.769531 233.464844 207.507812 C 233.203125 207.242188 232.96875 206.957031 232.761719 206.648438 C 232.554688 206.339844 232.378906 206.015625 232.238281 205.671875 C 232.09375 205.328125 231.988281 204.972656 231.914062 204.609375 C 231.84375 204.246094 231.808594 203.875 231.808594 203.503906 C 231.808594 203.132812 231.84375 202.765625 231.914062 202.398438 C 231.988281 202.035156 232.09375 201.683594 232.238281 201.339844 C 232.378906 200.996094 232.554688 200.667969 232.761719 200.359375 C 232.96875 200.050781 233.203125 199.765625 233.464844 199.503906 C 233.726562 199.238281 234.011719 199.003906 234.324219 198.796875 C 234.632812 198.59375 234.957031 198.417969 235.300781 198.273438 C 235.644531 198.132812 236 198.027344 236.363281 197.953125 C 236.726562 197.878906 237.09375 197.84375 237.46875 197.84375 C 237.839844 197.84375 238.207031 197.878906 238.570312 197.953125 C 238.9375 198.027344 239.289062 198.132812 239.632812 198.273438 C 239.976562 198.417969 240.300781 198.59375 240.613281 198.796875 C 240.921875 199.003906 241.207031 199.238281 241.46875 199.503906 C 241.730469 199.765625 241.964844 200.050781 242.171875 200.359375 C 242.378906 200.667969 242.554688 200.996094 242.695312 201.339844 C 242.839844 201.683594 242.945312 202.035156 243.019531 202.398438 C 243.089844 202.765625 243.128906 203.132812 243.128906 203.503906 Z M 243.128906 203.503906 " fill-opacity="1" fill-rule="nonzero"/></g></svg>