<svg xmlns="http://www.w3.org/2000/svg" xmlns:xlink="http://www.w3.org/1999/xlink" width="420" zoomAndPan="magnify" viewBox="0 0 315 77.249999" height="103" preserveAspectRatio="xMidYMid meet" version="1.0"><defs><filter x="0%" y="0%" width="100%" height="100%" id="c3ac7b5a24"><feColorMatrix values="0 0 0 0 1 0 0 0 0 1 0 0 0 0 1 0 0 0 1 0" color-interpolation-filters="sRGB"/></filter><g/><clipPath id="830f36ab5b"><path d="M 1.515625 0 L 313.484375 0 L 313.484375 76.507812 L 1.515625 76.507812 Z M 1.515625 0 " clip-rule="nonzero"/></clipPath><clipPath id="c8dc8f0595"><path d="M 47.867188 50.960938 L 196.425781 50.960938 L 196.425781 54.675781 L 47.867188 54.675781 Z M 47.867188 50.960938 " clip-rule="nonzero"/></clipPath><clipPath id="b40dbe1243"><path d="M 0.867188 0.960938 L 149.425781 0.960938 L 149.425781 4.675781 L 0.867188 4.675781 Z M 0.867188 0.960938 " clip-rule="nonzero"/></clipPath><clipPath id="8dedd679a7"><rect x="0" width="150" y="0" height="5"/></clipPath><clipPath id="7ba3e6f6c8"><path d="M 192 48.300781 L 200.914062 48.300781 L 200.914062 57.214844 L 192 57.214844 Z M 192 48.300781 " clip-rule="nonzero"/></clipPath><clipPath id="2b37350e92"><path d="M 80.214844 19.199219 L 241.398438 19.199219 L 241.398438 76.507812 L 80.214844 76.507812 Z M 80.214844 19.199219 " clip-rule="nonzero"/></clipPath><clipPath id="358d09ba68"><path d="M 0.214844 0.199219 L 161.398438 0.199219 L 161.398438 57.507812 L 0.214844 57.507812 Z M 0.214844 0.199219 " clip-rule="nonzero"/></clipPath><clipPath id="9f72755ddc"><path d="M 0.214844 0.941406 L 161.398438 0.941406 L 161.398438 57.507812 L 0.214844 57.507812 Z M 0.214844 0.941406 " clip-rule="nonzero"/></clipPath><linearGradient x1="-42.667" gradientTransform="matrix(0.743237, 0, 0, 0.740567, 31.926747, 31.800548)" y1="14" x2="174.19965" gradientUnits="userSpaceOnUse" y2="14" id="257595f2f2"><stop stop-opacity="1" stop-color="rgb(12.159729%, 24.708557%, 54.508972%)" offset="0"/><stop stop-opacity="1" stop-color="rgb(12.159729%, 24.708557%, 54.508972%)" offset="0.125"/><stop stop-opacity="1" stop-color="rgb(12.159729%, 24.708557%, 54.508972%)" offset="0.1875"/><stop stop-opacity="1" stop-color="rgb(12.159729%, 24.708557%, 54.508972%)" offset="0.195313"/><stop stop-opacity="1" stop-color="rgb(12.605286%, 24.906921%, 54.685974%)" offset="0.199219"/><stop stop-opacity="1" stop-color="rgb(13.050842%, 25.105286%, 54.864502%)" offset="0.203125"/><stop stop-opacity="1" stop-color="rgb(13.595581%, 25.3479%, 55.081177%)" offset="0.207031"/><stop stop-opacity="1" stop-color="rgb(14.141846%, 25.590515%, 55.297852%)" offset="0.210938"/><stop stop-opacity="1" stop-color="rgb(14.686584%, 25.831604%, 55.514526%)" offset="0.214844"/><stop stop-opacity="1" stop-color="rgb(15.232849%, 26.074219%, 55.732727%)" offset="0.21875"/><stop stop-opacity="1" stop-color="rgb(15.777588%, 26.316833%, 55.949402%)" offset="0.222656"/><stop stop-opacity="1" stop-color="rgb(16.322327%, 26.559448%, 56.167603%)" offset="0.226562"/><stop stop-opacity="1" stop-color="rgb(16.867065%, 26.802063%, 56.384277%)" offset="0.230469"/><stop stop-opacity="1" stop-color="rgb(17.41333%, 27.044678%, 56.600952%)" offset="0.234375"/><stop stop-opacity="1" stop-color="rgb(17.958069%, 27.287292%, 56.817627%)" offset="0.238281"/><stop stop-opacity="1" stop-color="rgb(18.504333%, 27.529907%, 57.035828%)" offset="0.242188"/><stop stop-opacity="1" stop-color="rgb(19.049072%, 27.770996%, 57.252502%)" offset="0.246094"/><stop stop-opacity="1" stop-color="rgb(19.595337%, 28.013611%, 57.469177%)" offset="0.25"/><stop stop-opacity="1" stop-color="rgb(20.140076%, 28.256226%, 57.685852%)" offset="0.253906"/><stop stop-opacity="1" stop-color="rgb(20.68634%, 28.49884%, 57.904053%)" offset="0.257812"/><stop stop-opacity="1" stop-color="rgb(21.231079%, 28.741455%, 58.120728%)" offset="0.261719"/><stop stop-opacity="1" stop-color="rgb(21.777344%, 28.98407%, 58.338928%)" offset="0.265625"/><stop stop-opacity="1" stop-color="rgb(22.322083%, 29.225159%, 58.555603%)" offset="0.269531"/><stop stop-opacity="1" stop-color="rgb(22.868347%, 29.467773%, 58.772278%)" offset="0.273438"/><stop stop-opacity="1" stop-color="rgb(23.413086%, 29.710388%, 58.988953%)" offset="0.277344"/><stop stop-opacity="1" stop-color="rgb(23.959351%, 29.953003%, 59.207153%)" offset="0.28125"/><stop stop-opacity="1" stop-color="rgb(24.504089%, 30.195618%, 59.423828%)" offset="0.285156"/><stop stop-opacity="1" stop-color="rgb(25.050354%, 30.438232%, 59.642029%)" offset="0.289062"/><stop stop-opacity="1" stop-color="rgb(25.595093%, 30.680847%, 59.858704%)" offset="0.292969"/><stop stop-opacity="1" stop-color="rgb(26.141357%, 30.923462%, 60.075378%)" offset="0.296875"/><stop stop-opacity="1" stop-color="rgb(26.686096%, 31.164551%, 60.292053%)" offset="0.300781"/><stop stop-opacity="1" stop-color="rgb(27.232361%, 31.407166%, 60.510254%)" offset="0.304688"/><stop stop-opacity="1" stop-color="rgb(27.7771%, 31.64978%, 60.726929%)" offset="0.308594"/><stop stop-opacity="1" stop-color="rgb(28.323364%, 31.892395%, 60.943604%)" offset="0.3125"/><stop stop-opacity="1" stop-color="rgb(28.868103%, 32.13501%, 61.160278%)" offset="0.316406"/><stop stop-opacity="1" stop-color="rgb(29.414368%, 32.377625%, 61.378479%)" offset="0.320312"/><stop stop-opacity="1" stop-color="rgb(29.959106%, 32.618713%, 61.595154%)" offset="0.324219"/><stop stop-opacity="1" stop-color="rgb(30.505371%, 32.861328%, 61.813354%)" offset="0.328125"/><stop stop-opacity="1" stop-color="rgb(31.05011%, 33.103943%, 62.030029%)" offset="0.332031"/><stop stop-opacity="1" stop-color="rgb(31.596375%, 33.346558%, 62.246704%)" offset="0.335938"/><stop stop-opacity="1" stop-color="rgb(32.141113%, 33.589172%, 62.463379%)" offset="0.339844"/><stop stop-opacity="1" stop-color="rgb(32.685852%, 33.831787%, 62.68158%)" offset="0.34375"/><stop stop-opacity="1" stop-color="rgb(33.230591%, 34.072876%, 62.898254%)" offset="0.347656"/><stop stop-opacity="1" stop-color="rgb(33.776855%, 34.315491%, 63.116455%)" offset="0.351562"/><stop stop-opacity="1" stop-color="rgb(34.321594%, 34.558105%, 63.33313%)" offset="0.355469"/><stop stop-opacity="1" stop-color="rgb(34.867859%, 34.80072%, 63.549805%)" offset="0.359375"/><stop stop-opacity="1" stop-color="rgb(35.412598%, 35.043335%, 63.766479%)" offset="0.363281"/><stop stop-opacity="1" stop-color="rgb(35.958862%, 35.28595%, 63.98468%)" offset="0.367188"/><stop stop-opacity="1" stop-color="rgb(36.503601%, 35.528564%, 64.201355%)" offset="0.371094"/><stop stop-opacity="1" stop-color="rgb(37.049866%, 35.771179%, 64.41803%)" offset="0.375"/><stop stop-opacity="1" stop-color="rgb(37.594604%, 36.012268%, 64.634705%)" offset="0.378906"/><stop stop-opacity="1" stop-color="rgb(38.140869%, 36.254883%, 64.852905%)" offset="0.382812"/><stop stop-opacity="1" stop-color="rgb(38.685608%, 36.497498%, 65.06958%)" offset="0.386719"/><stop stop-opacity="1" stop-color="rgb(39.231873%, 36.740112%, 65.287781%)" offset="0.390625"/><stop stop-opacity="1" stop-color="rgb(39.776611%, 36.982727%, 65.504456%)" offset="0.394531"/><stop stop-opacity="1" stop-color="rgb(40.322876%, 37.225342%, 65.72113%)" offset="0.398438"/><stop stop-opacity="1" stop-color="rgb(40.867615%, 37.466431%, 65.937805%)" offset="0.402344"/><stop stop-opacity="1" stop-color="rgb(41.413879%, 37.709045%, 66.156006%)" offset="0.40625"/><stop stop-opacity="1" stop-color="rgb(41.958618%, 37.95166%, 66.372681%)" offset="0.410156"/><stop stop-opacity="1" stop-color="rgb(42.504883%, 38.194275%, 66.589355%)" offset="0.414062"/><stop stop-opacity="1" stop-color="rgb(43.049622%, 38.43689%, 66.80603%)" offset="0.417969"/><stop stop-opacity="1" stop-color="rgb(43.595886%, 38.679504%, 67.024231%)" offset="0.421875"/><stop stop-opacity="1" stop-color="rgb(44.140625%, 38.922119%, 67.240906%)" offset="0.425781"/><stop stop-opacity="1" stop-color="rgb(44.68689%, 39.164734%, 67.459106%)" offset="0.429688"/><stop stop-opacity="1" stop-color="rgb(45.231628%, 39.405823%, 67.675781%)" offset="0.433594"/><stop stop-opacity="1" stop-color="rgb(45.777893%, 39.648438%, 67.892456%)" offset="0.4375"/><stop stop-opacity="1" stop-color="rgb(46.322632%, 39.891052%, 68.109131%)" offset="0.441406"/><stop stop-opacity="1" stop-color="rgb(46.868896%, 40.133667%, 68.327332%)" offset="0.445313"/><stop stop-opacity="1" stop-color="rgb(47.413635%, 40.376282%, 68.544006%)" offset="0.449219"/><stop stop-opacity="1" stop-color="rgb(47.9599%, 40.618896%, 68.762207%)" offset="0.453125"/><stop stop-opacity="1" stop-color="rgb(48.504639%, 40.859985%, 68.978882%)" offset="0.457031"/><stop stop-opacity="1" stop-color="rgb(49.049377%, 41.1026%, 69.195557%)" offset="0.460938"/><stop stop-opacity="1" stop-color="rgb(49.594116%, 41.345215%, 69.412231%)" offset="0.464844"/><stop stop-opacity="1" stop-color="rgb(50.140381%, 41.58783%, 69.630432%)" offset="0.46875"/><stop stop-opacity="1" stop-color="rgb(50.68512%, 41.830444%, 69.847107%)" offset="0.472656"/><stop stop-opacity="1" stop-color="rgb(51.231384%, 42.073059%, 70.063782%)" offset="0.476563"/><stop stop-opacity="1" stop-color="rgb(51.776123%, 42.315674%, 70.280457%)" offset="0.480469"/><stop stop-opacity="1" stop-color="rgb(52.322388%, 42.558289%, 70.498657%)" offset="0.484375"/><stop stop-opacity="1" stop-color="rgb(52.867126%, 42.799377%, 70.715332%)" offset="0.488281"/><stop stop-opacity="1" stop-color="rgb(53.413391%, 43.041992%, 70.933533%)" offset="0.492188"/><stop stop-opacity="1" stop-color="rgb(53.95813%, 43.284607%, 71.150208%)" offset="0.496094"/><stop stop-opacity="1" stop-color="rgb(54.504395%, 43.527222%, 71.366882%)" offset="0.5"/><stop stop-opacity="1" stop-color="rgb(54.963684%, 43.447876%, 71.276855%)" offset="0.503906"/><stop stop-opacity="1" stop-color="rgb(55.4245%, 43.36853%, 71.188354%)" offset="0.507812"/><stop stop-opacity="1" stop-color="rgb(55.883789%, 43.287659%, 71.096802%)" offset="0.511719"/><stop stop-opacity="1" stop-color="rgb(56.344604%, 43.206787%, 71.006775%)" offset="0.515625"/><stop stop-opacity="1" stop-color="rgb(56.803894%, 43.125916%, 70.915222%)" offset="0.519531"/><stop stop-opacity="1" stop-color="rgb(57.263184%, 43.045044%, 70.823669%)" offset="0.523438"/><stop stop-opacity="1" stop-color="rgb(57.722473%, 42.964172%, 70.732117%)" offset="0.527344"/><stop stop-opacity="1" stop-color="rgb(58.183289%, 42.883301%, 70.64209%)" offset="0.53125"/><stop stop-opacity="1" stop-color="rgb(58.642578%, 42.802429%, 70.550537%)" offset="0.535156"/><stop stop-opacity="1" stop-color="rgb(59.101868%, 42.721558%, 70.46051%)" offset="0.539062"/><stop stop-opacity="1" stop-color="rgb(59.561157%, 42.640686%, 70.368958%)" offset="0.542969"/><stop stop-opacity="1" stop-color="rgb(60.021973%, 42.559814%, 70.278931%)" offset="0.546875"/><stop stop-opacity="1" stop-color="rgb(60.481262%, 42.478943%, 70.187378%)" offset="0.550781"/><stop stop-opacity="1" stop-color="rgb(60.940552%, 42.398071%, 70.097351%)" offset="0.554688"/><stop stop-opacity="1" stop-color="rgb(61.399841%, 42.3172%, 70.005798%)" offset="0.558594"/><stop stop-opacity="1" stop-color="rgb(61.860657%, 42.236328%, 69.915771%)" offset="0.5625"/><stop stop-opacity="1" stop-color="rgb(62.319946%, 42.155457%, 69.824219%)" offset="0.566406"/><stop stop-opacity="1" stop-color="rgb(62.779236%, 42.074585%, 69.732666%)" offset="0.570312"/><stop stop-opacity="1" stop-color="rgb(63.238525%, 41.993713%, 69.641113%)" offset="0.574219"/><stop stop-opacity="1" stop-color="rgb(63.699341%, 41.912842%, 69.551086%)" offset="0.578125"/><stop stop-opacity="1" stop-color="rgb(64.15863%, 41.83197%, 69.459534%)" offset="0.582031"/><stop stop-opacity="1" stop-color="rgb(64.61792%, 41.751099%, 69.369507%)" offset="0.585938"/><stop stop-opacity="1" stop-color="rgb(65.077209%, 41.670227%, 69.277954%)" offset="0.589844"/><stop stop-opacity="1" stop-color="rgb(65.538025%, 41.589355%, 69.187927%)" offset="0.59375"/><stop stop-opacity="1" stop-color="rgb(65.997314%, 41.508484%, 69.096375%)" offset="0.597656"/><stop stop-opacity="1" stop-color="rgb(66.456604%, 41.427612%, 69.006348%)" offset="0.601562"/><stop stop-opacity="1" stop-color="rgb(66.915894%, 41.346741%, 68.914795%)" offset="0.605469"/><stop stop-opacity="1" stop-color="rgb(67.376709%, 41.265869%, 68.823242%)" offset="0.609375"/><stop stop-opacity="1" stop-color="rgb(67.835999%, 41.184998%, 68.731689%)" offset="0.613281"/><stop stop-opacity="1" stop-color="rgb(68.295288%, 41.104126%, 68.641663%)" offset="0.617188"/><stop stop-opacity="1" stop-color="rgb(68.754578%, 41.023254%, 68.55011%)" offset="0.621094"/><stop stop-opacity="1" stop-color="rgb(69.215393%, 40.942383%, 68.460083%)" offset="0.625"/><stop stop-opacity="1" stop-color="rgb(69.674683%, 40.859985%, 68.36853%)" offset="0.628906"/><stop stop-opacity="1" stop-color="rgb(70.133972%, 40.779114%, 68.278503%)" offset="0.632812"/><stop stop-opacity="1" stop-color="rgb(70.593262%, 40.698242%, 68.186951%)" offset="0.636719"/><stop stop-opacity="1" stop-color="rgb(71.054077%, 40.617371%, 68.096924%)" offset="0.640625"/><stop stop-opacity="1" stop-color="rgb(71.513367%, 40.536499%, 68.005371%)" offset="0.644531"/><stop stop-opacity="1" stop-color="rgb(71.972656%, 40.455627%, 67.915344%)" offset="0.648438"/><stop stop-opacity="1" stop-color="rgb(72.431946%, 40.374756%, 67.823792%)" offset="0.652344"/><stop stop-opacity="1" stop-color="rgb(72.892761%, 40.293884%, 67.732239%)" offset="0.65625"/><stop stop-opacity="1" stop-color="rgb(73.352051%, 40.213013%, 67.640686%)" offset="0.660156"/><stop stop-opacity="1" stop-color="rgb(73.81134%, 40.132141%, 67.550659%)" offset="0.664062"/><stop stop-opacity="1" stop-color="rgb(74.27063%, 40.05127%, 67.459106%)" offset="0.667969"/><stop stop-opacity="1" stop-color="rgb(74.731445%, 39.970398%, 67.36908%)" offset="0.671875"/><stop stop-opacity="1" stop-color="rgb(75.190735%, 39.889526%, 67.277527%)" offset="0.675781"/><stop stop-opacity="1" stop-color="rgb(75.650024%, 39.808655%, 67.1875%)" offset="0.679688"/><stop stop-opacity="1" stop-color="rgb(76.109314%, 39.727783%, 67.095947%)" offset="0.683594"/><stop stop-opacity="1" stop-color="rgb(76.570129%, 39.646912%, 67.00592%)" offset="0.6875"/><stop stop-opacity="1" stop-color="rgb(77.029419%, 39.56604%, 66.914368%)" offset="0.691406"/><stop stop-opacity="1" stop-color="rgb(77.488708%, 39.485168%, 66.822815%)" offset="0.695312"/><stop stop-opacity="1" stop-color="rgb(77.947998%, 39.404297%, 66.731262%)" offset="0.699219"/><stop stop-opacity="1" stop-color="rgb(78.408813%, 39.323425%, 66.641235%)" offset="0.703125"/><stop stop-opacity="1" stop-color="rgb(78.868103%, 39.242554%, 66.549683%)" offset="0.707031"/><stop stop-opacity="1" stop-color="rgb(79.327393%, 39.161682%, 66.459656%)" offset="0.710938"/><stop stop-opacity="1" stop-color="rgb(79.786682%, 39.080811%, 66.368103%)" offset="0.714844"/><stop stop-opacity="1" stop-color="rgb(80.247498%, 38.999939%, 66.278076%)" offset="0.71875"/><stop stop-opacity="1" stop-color="rgb(80.706787%, 38.919067%, 66.186523%)" offset="0.722656"/><stop stop-opacity="1" stop-color="rgb(81.166077%, 38.838196%, 66.096497%)" offset="0.726562"/><stop stop-opacity="1" stop-color="rgb(81.625366%, 38.757324%, 66.004944%)" offset="0.730469"/><stop stop-opacity="1" stop-color="rgb(82.086182%, 38.676453%, 65.914917%)" offset="0.734375"/><stop stop-opacity="1" stop-color="rgb(82.545471%, 38.595581%, 65.823364%)" offset="0.738281"/><stop stop-opacity="1" stop-color="rgb(83.004761%, 38.514709%, 65.731812%)" offset="0.742188"/><stop stop-opacity="1" stop-color="rgb(83.46405%, 38.433838%, 65.640259%)" offset="0.746094"/><stop stop-opacity="1" stop-color="rgb(83.924866%, 38.352966%, 65.550232%)" offset="0.75"/><stop stop-opacity="1" stop-color="rgb(84.384155%, 38.272095%, 65.458679%)" offset="0.753906"/><stop stop-opacity="1" stop-color="rgb(84.843445%, 38.191223%, 65.368652%)" offset="0.757812"/><stop stop-opacity="1" stop-color="rgb(85.302734%, 38.110352%, 65.2771%)" offset="0.761719"/><stop stop-opacity="1" stop-color="rgb(85.76355%, 38.02948%, 65.187073%)" offset="0.765625"/><stop stop-opacity="1" stop-color="rgb(86.222839%, 37.948608%, 65.09552%)" offset="0.769531"/><stop stop-opacity="1" stop-color="rgb(86.682129%, 37.867737%, 65.005493%)" offset="0.773438"/><stop stop-opacity="1" stop-color="rgb(87.141418%, 37.786865%, 64.91394%)" offset="0.777344"/><stop stop-opacity="1" stop-color="rgb(87.602234%, 37.705994%, 64.822388%)" offset="0.78125"/><stop stop-opacity="1" stop-color="rgb(88.061523%, 37.625122%, 64.730835%)" offset="0.785156"/><stop stop-opacity="1" stop-color="rgb(88.520813%, 37.54425%, 64.640808%)" offset="0.789062"/><stop stop-opacity="1" stop-color="rgb(88.980103%, 37.463379%, 64.549255%)" offset="0.792969"/><stop stop-opacity="1" stop-color="rgb(89.440918%, 37.382507%, 64.459229%)" offset="0.796875"/><stop stop-opacity="1" stop-color="rgb(89.819336%, 37.315369%, 64.38446%)" offset="0.800781"/><stop stop-opacity="1" stop-color="rgb(90.19928%, 37.249756%, 64.309692%)" offset="0.804688"/><stop stop-opacity="1" stop-color="rgb(90.19928%, 37.249756%, 64.309692%)" offset="0.8125"/><stop stop-opacity="1" stop-color="rgb(90.19928%, 37.249756%, 64.309692%)" offset="0.875"/><stop stop-opacity="1" stop-color="rgb(90.19928%, 37.249756%, 64.309692%)" offset="1"/></linearGradient><clipPath id="f6210ebea7"><rect x="0" width="162" y="0" height="58"/></clipPath><clipPath id="313d0d4c4d"><path d="M 0.214844 0.199219 L 161.398438 0.199219 L 161.398438 57.507812 L 0.214844 57.507812 Z M 0.214844 0.199219 " clip-rule="nonzero"/></clipPath><clipPath id="bd50e02b5f"><rect x="0" width="162" y="0" height="58"/></clipPath><clipPath id="cb5bb63a9a"><rect x="0" width="162" y="0" height="58"/></clipPath><mask id="518296f7c5"><g filter="url(#c3ac7b5a24)"><g><g clip-path="url(#cb5bb63a9a)"><g clip-path="url(#313d0d4c4d)"><g><g clip-path="url(#bd50e02b5f)"><g fill="#000000" fill-opacity="1"><g transform="translate(32.153268, 47.739029)"><g><path d="M 1.34375 0 L 1.34375 -11.53125 L 5.4375 -11.53125 C 6.238281 -11.53125 6.898438 -11.394531 7.421875 -11.125 C 7.953125 -10.851562 8.347656 -10.488281 8.609375 -10.03125 C 8.878906 -9.570312 9.015625 -9.050781 9.015625 -8.46875 C 9.015625 -7.988281 8.929688 -7.585938 8.765625 -7.265625 C 8.597656 -6.941406 8.367188 -6.679688 8.078125 -6.484375 C 7.796875 -6.285156 7.476562 -6.132812 7.125 -6.03125 L 7.125 -5.9375 C 7.507812 -5.90625 7.878906 -5.773438 8.234375 -5.546875 C 8.585938 -5.328125 8.882812 -5.007812 9.125 -4.59375 C 9.363281 -4.1875 9.484375 -3.691406 9.484375 -3.109375 C 9.484375 -2.515625 9.34375 -1.984375 9.0625 -1.515625 C 8.789062 -1.046875 8.363281 -0.675781 7.78125 -0.40625 C 7.207031 -0.132812 6.460938 0 5.546875 0 Z M 2.796875 -1.28125 L 5.53125 -1.28125 C 6.414062 -1.28125 7.054688 -1.453125 7.453125 -1.796875 C 7.859375 -2.140625 8.0625 -2.578125 8.0625 -3.109375 C 8.0625 -3.503906 7.960938 -3.863281 7.765625 -4.1875 C 7.566406 -4.507812 7.28125 -4.765625 6.90625 -4.953125 C 6.539062 -5.140625 6.101562 -5.234375 5.59375 -5.234375 L 2.796875 -5.234375 Z M 2.796875 -6.46875 L 5.390625 -6.46875 C 5.816406 -6.46875 6.195312 -6.546875 6.53125 -6.703125 C 6.875 -6.867188 7.140625 -7.097656 7.328125 -7.390625 C 7.523438 -7.679688 7.625 -8.023438 7.625 -8.421875 C 7.625 -8.941406 7.441406 -9.375 7.078125 -9.71875 C 6.710938 -10.070312 6.164062 -10.25 5.4375 -10.25 L 2.796875 -10.25 Z M 2.796875 -6.46875 "/></g></g></g><g fill="#000000" fill-opacity="1"><g transform="translate(41.830848, 47.739029)"><g><path d="M 4.421875 0.15625 C 3.671875 0.15625 3.019531 0.015625 2.46875 -0.265625 C 1.914062 -0.546875 1.488281 -0.925781 1.1875 -1.40625 C 0.894531 -1.882812 0.75 -2.425781 0.75 -3.03125 C 0.75 -3.5 0.84375 -3.910156 1.03125 -4.265625 C 1.226562 -4.617188 1.503906 -4.957031 1.859375 -5.28125 C 2.222656 -5.601562 2.65625 -5.953125 3.15625 -6.328125 L 4.875 -7.609375 C 5.03125 -7.722656 5.1875 -7.851562 5.34375 -8 C 5.507812 -8.144531 5.644531 -8.3125 5.75 -8.5 C 5.851562 -8.695312 5.90625 -8.921875 5.90625 -9.171875 C 5.90625 -9.535156 5.78125 -9.835938 5.53125 -10.078125 C 5.28125 -10.328125 4.945312 -10.453125 4.53125 -10.453125 C 4.238281 -10.453125 3.984375 -10.390625 3.765625 -10.265625 C 3.546875 -10.148438 3.375 -9.984375 3.25 -9.765625 C 3.125 -9.554688 3.0625 -9.3125 3.0625 -9.03125 C 3.0625 -8.757812 3.125 -8.5 3.25 -8.25 C 3.375 -8 3.546875 -7.726562 3.765625 -7.4375 C 3.992188 -7.15625 4.265625 -6.820312 4.578125 -6.4375 L 9.890625 0 L 8.21875 0 L 3.859375 -5.25 C 3.398438 -5.800781 3.007812 -6.273438 2.6875 -6.671875 C 2.363281 -7.078125 2.113281 -7.460938 1.9375 -7.828125 C 1.757812 -8.203125 1.671875 -8.601562 1.671875 -9.03125 C 1.671875 -9.539062 1.785156 -9.992188 2.015625 -10.390625 C 2.253906 -10.785156 2.585938 -11.09375 3.015625 -11.3125 C 3.441406 -11.53125 3.9375 -11.640625 4.5 -11.640625 C 5.070312 -11.640625 5.566406 -11.53125 5.984375 -11.3125 C 6.398438 -11.09375 6.722656 -10.796875 6.953125 -10.421875 C 7.179688 -10.046875 7.296875 -9.628906 7.296875 -9.171875 C 7.296875 -8.828125 7.234375 -8.503906 7.109375 -8.203125 C 6.984375 -7.910156 6.804688 -7.632812 6.578125 -7.375 C 6.347656 -7.113281 6.078125 -6.867188 5.765625 -6.640625 L 3.46875 -4.9375 C 2.988281 -4.582031 2.648438 -4.253906 2.453125 -3.953125 C 2.265625 -3.660156 2.171875 -3.335938 2.171875 -2.984375 C 2.171875 -2.609375 2.257812 -2.273438 2.4375 -1.984375 C 2.625 -1.691406 2.882812 -1.460938 3.21875 -1.296875 C 3.550781 -1.128906 3.929688 -1.046875 4.359375 -1.046875 C 4.816406 -1.046875 5.253906 -1.140625 5.671875 -1.328125 C 6.085938 -1.523438 6.460938 -1.800781 6.796875 -2.15625 C 7.128906 -2.519531 7.390625 -2.945312 7.578125 -3.4375 C 7.773438 -3.925781 7.875 -4.472656 7.875 -5.078125 L 9.203125 -5.078125 C 9.203125 -4.367188 9.117188 -3.773438 8.953125 -3.296875 C 8.796875 -2.828125 8.609375 -2.4375 8.390625 -2.125 C 8.171875 -1.820312 7.972656 -1.582031 7.796875 -1.40625 L 7.515625 -1.0625 C 7.148438 -0.664062 6.6875 -0.363281 6.125 -0.15625 C 5.5625 0.0507812 4.992188 0.15625 4.421875 0.15625 Z M 4.421875 0.15625 "/></g></g></g><g fill="#000000" fill-opacity="1"><g transform="translate(51.276364, 47.739029)"><g><path d="M 6.046875 0.15625 C 5.046875 0.15625 4.15625 -0.0820312 3.375 -0.5625 C 2.601562 -1.050781 1.992188 -1.738281 1.546875 -2.625 C 1.109375 -3.507812 0.890625 -4.550781 0.890625 -5.75 C 0.890625 -6.96875 1.109375 -8.019531 1.546875 -8.90625 C 1.992188 -9.789062 2.601562 -10.472656 3.375 -10.953125 C 4.15625 -11.441406 5.046875 -11.6875 6.046875 -11.6875 C 6.640625 -11.6875 7.195312 -11.597656 7.71875 -11.421875 C 8.238281 -11.253906 8.703125 -11.003906 9.109375 -10.671875 C 9.523438 -10.347656 9.867188 -9.945312 10.140625 -9.46875 C 10.421875 -9 10.613281 -8.46875 10.71875 -7.875 L 9.265625 -7.875 C 9.179688 -8.28125 9.039062 -8.632812 8.84375 -8.9375 C 8.644531 -9.238281 8.398438 -9.492188 8.109375 -9.703125 C 7.816406 -9.921875 7.492188 -10.082031 7.140625 -10.1875 C 6.796875 -10.289062 6.429688 -10.34375 6.046875 -10.34375 C 5.328125 -10.34375 4.6875 -10.160156 4.125 -9.796875 C 3.5625 -9.441406 3.117188 -8.921875 2.796875 -8.234375 C 2.472656 -7.546875 2.3125 -6.71875 2.3125 -5.75 C 2.3125 -4.789062 2.472656 -3.96875 2.796875 -3.28125 C 3.117188 -2.601562 3.5625 -2.082031 4.125 -1.71875 C 4.695312 -1.363281 5.335938 -1.1875 6.046875 -1.1875 C 6.429688 -1.1875 6.796875 -1.238281 7.140625 -1.34375 C 7.492188 -1.457031 7.8125 -1.617188 8.09375 -1.828125 C 8.382812 -2.035156 8.628906 -2.289062 8.828125 -2.59375 C 9.035156 -2.894531 9.179688 -3.242188 9.265625 -3.640625 L 10.71875 -3.640625 C 10.625 -3.054688 10.4375 -2.53125 10.15625 -2.0625 C 9.875 -1.59375 9.523438 -1.191406 9.109375 -0.859375 C 8.703125 -0.523438 8.238281 -0.269531 7.71875 -0.09375 C 7.195312 0.0703125 6.640625 0.15625 6.046875 0.15625 Z M 6.046875 0.15625 "/></g></g></g><g fill="#000000" fill-opacity="1"><g transform="translate(62.183881, 47.739029)"><g/></g></g><g fill="#000000" fill-opacity="1"><g transform="translate(65.897393, 47.739029)"><g><path d="M 5.046875 0.203125 C 4.210938 0.203125 3.484375 0.0625 2.859375 -0.21875 C 2.234375 -0.5 1.75 -0.890625 1.40625 -1.390625 C 1.0625 -1.898438 0.867188 -2.492188 0.828125 -3.171875 L 2.328125 -3.171875 C 2.359375 -2.710938 2.492188 -2.328125 2.734375 -2.015625 C 2.984375 -1.710938 3.3125 -1.484375 3.71875 -1.328125 C 4.125 -1.179688 4.566406 -1.109375 5.046875 -1.109375 C 5.578125 -1.109375 6.050781 -1.191406 6.46875 -1.359375 C 6.882812 -1.523438 7.210938 -1.757812 7.453125 -2.0625 C 7.691406 -2.375 7.8125 -2.738281 7.8125 -3.15625 C 7.8125 -3.507812 7.710938 -3.800781 7.515625 -4.03125 C 7.316406 -4.269531 7.046875 -4.46875 6.703125 -4.625 C 6.367188 -4.78125 5.976562 -4.914062 5.53125 -5.03125 L 4.15625 -5.421875 C 3.175781 -5.679688 2.425781 -6.054688 1.90625 -6.546875 C 1.394531 -7.035156 1.140625 -7.664062 1.140625 -8.4375 C 1.140625 -9.09375 1.3125 -9.660156 1.65625 -10.140625 C 2 -10.628906 2.46875 -11.007812 3.0625 -11.28125 C 3.664062 -11.550781 4.34375 -11.6875 5.09375 -11.6875 C 5.863281 -11.6875 6.539062 -11.550781 7.125 -11.28125 C 7.707031 -11.007812 8.164062 -10.632812 8.5 -10.15625 C 8.84375 -9.675781 9.023438 -9.128906 9.046875 -8.515625 L 7.625 -8.515625 C 7.5625 -9.109375 7.296875 -9.566406 6.828125 -9.890625 C 6.359375 -10.222656 5.765625 -10.390625 5.046875 -10.390625 C 4.554688 -10.390625 4.117188 -10.304688 3.734375 -10.140625 C 3.359375 -9.984375 3.066406 -9.757812 2.859375 -9.46875 C 2.648438 -9.1875 2.546875 -8.863281 2.546875 -8.5 C 2.546875 -8.125 2.660156 -7.816406 2.890625 -7.578125 C 3.117188 -7.335938 3.40625 -7.144531 3.75 -7 C 4.09375 -6.851562 4.4375 -6.734375 4.78125 -6.640625 L 5.96875 -6.328125 C 6.332031 -6.234375 6.703125 -6.109375 7.078125 -5.953125 C 7.460938 -5.796875 7.816406 -5.59375 8.140625 -5.34375 C 8.472656 -5.101562 8.738281 -4.800781 8.9375 -4.4375 C 9.132812 -4.082031 9.234375 -3.65625 9.234375 -3.15625 C 9.234375 -2.507812 9.066406 -1.929688 8.734375 -1.421875 C 8.398438 -0.921875 7.921875 -0.523438 7.296875 -0.234375 C 6.671875 0.0546875 5.921875 0.203125 5.046875 0.203125 Z M 5.046875 0.203125 "/></g></g></g><g fill="#000000" fill-opacity="1"><g transform="translate(75.335167, 47.739029)"><g><path d="M 4.609375 -8.546875 L 4.609375 -7.359375 L 0.140625 -7.359375 L 0.140625 -8.546875 Z M 1.484375 -10.640625 L 2.859375 -10.640625 L 2.859375 -2.1875 C 2.859375 -1.8125 2.929688 -1.539062 3.078125 -1.375 C 3.234375 -1.207031 3.492188 -1.125 3.859375 -1.125 C 3.941406 -1.125 4.050781 -1.128906 4.1875 -1.140625 C 4.332031 -1.160156 4.460938 -1.179688 4.578125 -1.203125 L 4.796875 -0.03125 C 4.648438 0 4.488281 0.0234375 4.3125 0.046875 C 4.132812 0.0664062 3.960938 0.078125 3.796875 0.078125 C 3.054688 0.078125 2.484375 -0.109375 2.078125 -0.484375 C 1.679688 -0.859375 1.484375 -1.390625 1.484375 -2.078125 Z M 1.484375 -10.640625 "/></g></g></g><g fill="#000000" fill-opacity="1"><g transform="translate(79.829969, 47.739029)"><g><path d="M 1.171875 0 L 1.171875 -8.546875 L 2.484375 -8.546875 L 2.484375 -7.21875 L 2.5625 -7.21875 C 2.726562 -7.65625 3.003906 -8.003906 3.390625 -8.265625 C 3.785156 -8.535156 4.238281 -8.671875 4.75 -8.671875 C 4.851562 -8.671875 4.972656 -8.664062 5.109375 -8.65625 C 5.242188 -8.65625 5.347656 -8.648438 5.421875 -8.640625 L 5.421875 -7.25 C 5.378906 -7.257812 5.273438 -7.273438 5.109375 -7.296875 C 4.953125 -7.316406 4.78125 -7.328125 4.59375 -7.328125 C 4.207031 -7.328125 3.859375 -7.242188 3.546875 -7.078125 C 3.234375 -6.921875 2.988281 -6.691406 2.8125 -6.390625 C 2.632812 -6.085938 2.546875 -5.734375 2.546875 -5.328125 L 2.546875 0 Z M 1.171875 0 "/></g></g></g><g fill="#000000" fill-opacity="1"><g transform="translate(84.912656, 47.739029)"><g><path d="M 3.609375 0.1875 C 3.054688 0.1875 2.5625 0.0859375 2.125 -0.109375 C 1.6875 -0.316406 1.335938 -0.613281 1.078125 -1 C 0.816406 -1.394531 0.6875 -1.875 0.6875 -2.4375 C 0.6875 -2.925781 0.78125 -3.320312 0.96875 -3.625 C 1.164062 -3.925781 1.425781 -4.164062 1.75 -4.34375 C 2.070312 -4.53125 2.425781 -4.664062 2.8125 -4.75 C 3.207031 -4.832031 3.609375 -4.898438 4.015625 -4.953125 C 4.535156 -5.023438 4.953125 -5.078125 5.265625 -5.109375 C 5.585938 -5.148438 5.820312 -5.210938 5.96875 -5.296875 C 6.125 -5.378906 6.203125 -5.523438 6.203125 -5.734375 L 6.203125 -5.796875 C 6.203125 -6.140625 6.132812 -6.4375 6 -6.6875 C 5.863281 -6.9375 5.660156 -7.125 5.390625 -7.25 C 5.117188 -7.382812 4.785156 -7.453125 4.390625 -7.453125 C 3.984375 -7.453125 3.632812 -7.390625 3.34375 -7.265625 C 3.050781 -7.140625 2.8125 -6.972656 2.625 -6.765625 C 2.445312 -6.566406 2.320312 -6.359375 2.25 -6.140625 L 0.90625 -6.484375 C 1.082031 -7.003906 1.347656 -7.421875 1.703125 -7.734375 C 2.066406 -8.054688 2.476562 -8.289062 2.9375 -8.4375 C 3.394531 -8.59375 3.867188 -8.671875 4.359375 -8.671875 C 4.691406 -8.671875 5.039062 -8.625 5.40625 -8.53125 C 5.78125 -8.445312 6.128906 -8.300781 6.453125 -8.09375 C 6.785156 -7.882812 7.054688 -7.582031 7.265625 -7.1875 C 7.472656 -6.800781 7.578125 -6.300781 7.578125 -5.6875 L 7.578125 0 L 6.21875 0 L 6.21875 -1.171875 L 6.140625 -1.171875 C 6.046875 -0.972656 5.890625 -0.765625 5.671875 -0.546875 C 5.460938 -0.335938 5.1875 -0.160156 4.84375 -0.015625 C 4.507812 0.117188 4.097656 0.1875 3.609375 0.1875 Z M 3.828125 -1.03125 C 4.347656 -1.03125 4.78125 -1.128906 5.125 -1.328125 C 5.476562 -1.523438 5.742188 -1.785156 5.921875 -2.109375 C 6.109375 -2.429688 6.203125 -2.769531 6.203125 -3.125 L 6.203125 -4.28125 C 6.148438 -4.21875 6.03125 -4.160156 5.84375 -4.109375 C 5.664062 -4.054688 5.457031 -4.007812 5.21875 -3.96875 C 4.988281 -3.925781 4.757812 -3.890625 4.53125 -3.859375 C 4.300781 -3.835938 4.109375 -3.816406 3.953125 -3.796875 C 3.617188 -3.753906 3.304688 -3.679688 3.015625 -3.578125 C 2.734375 -3.472656 2.503906 -3.328125 2.328125 -3.140625 C 2.148438 -2.953125 2.0625 -2.695312 2.0625 -2.375 C 2.0625 -2.082031 2.132812 -1.835938 2.28125 -1.640625 C 2.4375 -1.441406 2.644531 -1.289062 2.90625 -1.1875 C 3.175781 -1.082031 3.484375 -1.03125 3.828125 -1.03125 Z M 3.828125 -1.03125 "/></g></g></g><g fill="#000000" fill-opacity="1"><g transform="translate(93.019926, 47.739029)"><g><path d="M 4.609375 -8.546875 L 4.609375 -7.359375 L 0.140625 -7.359375 L 0.140625 -8.546875 Z M 1.484375 -10.640625 L 2.859375 -10.640625 L 2.859375 -2.1875 C 2.859375 -1.8125 2.929688 -1.539062 3.078125 -1.375 C 3.234375 -1.207031 3.492188 -1.125 3.859375 -1.125 C 3.941406 -1.125 4.050781 -1.128906 4.1875 -1.140625 C 4.332031 -1.160156 4.460938 -1.179688 4.578125 -1.203125 L 4.796875 -0.03125 C 4.648438 0 4.488281 0.0234375 4.3125 0.046875 C 4.132812 0.0664062 3.960938 0.078125 3.796875 0.078125 C 3.054688 0.078125 2.484375 -0.109375 2.078125 -0.484375 C 1.679688 -0.859375 1.484375 -1.390625 1.484375 -2.078125 Z M 1.484375 -10.640625 "/></g></g></g><g fill="#000000" fill-opacity="1"><g transform="translate(97.360006, 47.739029)"><g><path d="M 4.75 0.1875 C 3.914062 0.1875 3.195312 0.00390625 2.59375 -0.359375 C 2 -0.734375 1.539062 -1.25 1.21875 -1.90625 C 0.90625 -2.570312 0.75 -3.34375 0.75 -4.21875 C 0.75 -5.09375 0.90625 -5.863281 1.21875 -6.53125 C 1.539062 -7.195312 1.988281 -7.71875 2.5625 -8.09375 C 3.144531 -8.476562 3.820312 -8.671875 4.59375 -8.671875 C 5.082031 -8.671875 5.550781 -8.585938 6 -8.421875 C 6.445312 -8.253906 6.847656 -7.992188 7.203125 -7.640625 C 7.554688 -7.296875 7.835938 -6.851562 8.046875 -6.3125 C 8.253906 -5.769531 8.359375 -5.117188 8.359375 -4.359375 L 8.359375 -3.828125 L 1.640625 -3.828125 L 1.640625 -4.984375 L 7.609375 -4.984375 L 6.984375 -4.5625 C 6.984375 -5.125 6.890625 -5.617188 6.703125 -6.046875 C 6.515625 -6.484375 6.242188 -6.820312 5.890625 -7.0625 C 5.546875 -7.3125 5.113281 -7.4375 4.59375 -7.4375 C 4.082031 -7.4375 3.640625 -7.3125 3.265625 -7.0625 C 2.898438 -6.820312 2.617188 -6.492188 2.421875 -6.078125 C 2.234375 -5.671875 2.140625 -5.222656 2.140625 -4.734375 L 2.140625 -4 C 2.140625 -3.382812 2.242188 -2.851562 2.453125 -2.40625 C 2.671875 -1.957031 2.976562 -1.617188 3.375 -1.390625 C 3.769531 -1.160156 4.226562 -1.046875 4.75 -1.046875 C 5.101562 -1.046875 5.421875 -1.097656 5.703125 -1.203125 C 5.984375 -1.304688 6.222656 -1.457031 6.421875 -1.65625 C 6.617188 -1.851562 6.769531 -2.097656 6.875 -2.390625 L 8.21875 -2.109375 C 8.082031 -1.660156 7.851562 -1.257812 7.53125 -0.90625 C 7.21875 -0.5625 6.820312 -0.289062 6.34375 -0.09375 C 5.863281 0.09375 5.332031 0.1875 4.75 0.1875 Z M 4.75 0.1875 "/></g></g></g><g fill="#000000" fill-opacity="1"><g transform="translate(105.799908, 47.739029)"><g><path d="M 4.65625 3.40625 C 4.019531 3.40625 3.460938 3.320312 2.984375 3.15625 C 2.515625 2.988281 2.125 2.757812 1.8125 2.46875 C 1.507812 2.175781 1.28125 1.847656 1.125 1.484375 L 2.296875 0.90625 C 2.410156 1.101562 2.5625 1.300781 2.75 1.5 C 2.9375 1.695312 3.179688 1.863281 3.484375 2 C 3.796875 2.132812 4.1875 2.203125 4.65625 2.203125 C 5.34375 2.203125 5.90625 2.03125 6.34375 1.6875 C 6.789062 1.34375 7.015625 0.816406 7.015625 0.109375 L 7.015625 -1.515625 L 6.90625 -1.515625 C 6.78125 -1.316406 6.617188 -1.101562 6.421875 -0.875 C 6.234375 -0.65625 5.972656 -0.46875 5.640625 -0.3125 C 5.304688 -0.15625 4.882812 -0.078125 4.375 -0.078125 C 3.675781 -0.078125 3.050781 -0.242188 2.5 -0.578125 C 1.957031 -0.910156 1.53125 -1.390625 1.21875 -2.015625 C 0.90625 -2.648438 0.75 -3.410156 0.75 -4.296875 C 0.75 -5.179688 0.898438 -5.945312 1.203125 -6.59375 C 1.515625 -7.25 1.945312 -7.757812 2.5 -8.125 C 3.050781 -8.488281 3.6875 -8.671875 4.40625 -8.671875 C 4.914062 -8.671875 5.332031 -8.585938 5.65625 -8.421875 C 5.988281 -8.253906 6.253906 -8.050781 6.453125 -7.8125 C 6.660156 -7.582031 6.820312 -7.367188 6.9375 -7.171875 L 7.046875 -7.171875 L 7.046875 -8.546875 L 8.375 -8.546875 L 8.375 0.171875 C 8.375 0.929688 8.207031 1.546875 7.875 2.015625 C 7.539062 2.492188 7.09375 2.84375 6.53125 3.0625 C 5.96875 3.289062 5.34375 3.40625 4.65625 3.40625 Z M 4.609375 -1.296875 C 5.128906 -1.296875 5.566406 -1.414062 5.921875 -1.65625 C 6.285156 -1.90625 6.5625 -2.253906 6.75 -2.703125 C 6.945312 -3.160156 7.046875 -3.703125 7.046875 -4.328125 C 7.046875 -4.941406 6.953125 -5.476562 6.765625 -5.9375 C 6.578125 -6.40625 6.300781 -6.769531 5.9375 -7.03125 C 5.570312 -7.300781 5.128906 -7.4375 4.609375 -7.4375 C 4.078125 -7.4375 3.625 -7.300781 3.25 -7.03125 C 2.882812 -6.757812 2.609375 -6.390625 2.421875 -5.921875 C 2.234375 -5.453125 2.140625 -4.921875 2.140625 -4.328125 C 2.140625 -3.710938 2.234375 -3.175781 2.421875 -2.71875 C 2.617188 -2.269531 2.898438 -1.921875 3.265625 -1.671875 C 3.628906 -1.421875 4.078125 -1.296875 4.609375 -1.296875 Z M 4.609375 -1.296875 "/></g></g></g><g fill="#000000" fill-opacity="1"><g transform="translate(114.711669, 47.739029)"><g><path d="M 1.171875 0 L 1.171875 -8.546875 L 2.546875 -8.546875 L 2.546875 0 Z M 1.84375 -10 C 1.59375 -10 1.367188 -10.085938 1.171875 -10.265625 C 0.984375 -10.441406 0.890625 -10.660156 0.890625 -10.921875 C 0.890625 -11.171875 0.984375 -11.382812 1.171875 -11.5625 C 1.367188 -11.738281 1.59375 -11.828125 1.84375 -11.828125 C 2.113281 -11.828125 2.34375 -11.738281 2.53125 -11.5625 C 2.71875 -11.382812 2.8125 -11.171875 2.8125 -10.921875 C 2.8125 -10.660156 2.71875 -10.441406 2.53125 -10.265625 C 2.34375 -10.085938 2.113281 -10 1.84375 -10 Z M 1.84375 -10 "/></g></g></g><g fill="#000000" fill-opacity="1"><g transform="translate(117.79087, 47.739029)"><g><path d="M 4.078125 0.1875 C 3.492188 0.1875 2.96875 0.0976562 2.5 -0.078125 C 2.039062 -0.253906 1.660156 -0.519531 1.359375 -0.875 C 1.054688 -1.226562 0.863281 -1.660156 0.78125 -2.171875 L 2.09375 -2.421875 C 2.207031 -1.941406 2.429688 -1.585938 2.765625 -1.359375 C 3.097656 -1.128906 3.53125 -1.015625 4.0625 -1.015625 C 4.65625 -1.015625 5.128906 -1.140625 5.484375 -1.390625 C 5.835938 -1.648438 6.015625 -1.957031 6.015625 -2.3125 C 6.015625 -2.613281 5.90625 -2.859375 5.6875 -3.046875 C 5.476562 -3.242188 5.164062 -3.390625 4.75 -3.484375 L 3.34375 -3.828125 C 2.5625 -4.003906 1.976562 -4.285156 1.59375 -4.671875 C 1.21875 -5.066406 1.03125 -5.566406 1.03125 -6.171875 C 1.03125 -6.660156 1.164062 -7.09375 1.4375 -7.46875 C 1.707031 -7.84375 2.078125 -8.132812 2.546875 -8.34375 C 3.023438 -8.5625 3.566406 -8.671875 4.171875 -8.671875 C 4.765625 -8.671875 5.269531 -8.578125 5.6875 -8.390625 C 6.113281 -8.203125 6.457031 -7.941406 6.71875 -7.609375 C 6.976562 -7.285156 7.160156 -6.90625 7.265625 -6.46875 L 6 -6.21875 C 5.90625 -6.550781 5.710938 -6.847656 5.421875 -7.109375 C 5.140625 -7.367188 4.726562 -7.5 4.1875 -7.5 C 3.664062 -7.5 3.238281 -7.378906 2.90625 -7.140625 C 2.570312 -6.898438 2.40625 -6.601562 2.40625 -6.25 C 2.40625 -5.925781 2.519531 -5.664062 2.75 -5.46875 C 2.988281 -5.28125 3.347656 -5.128906 3.828125 -5.015625 L 5.140625 -4.71875 C 5.921875 -4.53125 6.5 -4.242188 6.875 -3.859375 C 7.25 -3.472656 7.4375 -2.984375 7.4375 -2.390625 C 7.4375 -1.878906 7.289062 -1.429688 7 -1.046875 C 6.71875 -0.660156 6.328125 -0.359375 5.828125 -0.140625 C 5.328125 0.078125 4.742188 0.1875 4.078125 0.1875 Z M 4.078125 0.1875 "/></g></g></g><g fill="#000000" fill-opacity="1"><g transform="translate(125.364397, 47.739029)"><g><path d="M 4.609375 -8.546875 L 4.609375 -7.359375 L 0.140625 -7.359375 L 0.140625 -8.546875 Z M 1.484375 -10.640625 L 2.859375 -10.640625 L 2.859375 -2.1875 C 2.859375 -1.8125 2.929688 -1.539062 3.078125 -1.375 C 3.234375 -1.207031 3.492188 -1.125 3.859375 -1.125 C 3.941406 -1.125 4.050781 -1.128906 4.1875 -1.140625 C 4.332031 -1.160156 4.460938 -1.179688 4.578125 -1.203125 L 4.796875 -0.03125 C 4.648438 0 4.488281 0.0234375 4.3125 0.046875 C 4.132812 0.0664062 3.960938 0.078125 3.796875 0.078125 C 3.054688 0.078125 2.484375 -0.109375 2.078125 -0.484375 C 1.679688 -0.859375 1.484375 -1.390625 1.484375 -2.078125 Z M 1.484375 -10.640625 "/></g></g></g></g></g></g></g></g></g></mask><clipPath id="2d2912cd37"><path d="M 0.214844 0.941406 L 161.398438 0.941406 L 161.398438 57.507812 L 0.214844 57.507812 Z M 0.214844 0.941406 " clip-rule="nonzero"/></clipPath><clipPath id="1caecb05ce"><rect x="0" width="162" y="0" height="58"/></clipPath><clipPath id="7072bfd3b0"><rect x="0" width="162" y="0" height="58"/></clipPath></defs><g clip-path="url(#830f36ab5b)"><path fill="#ffffff" d="M 1.515625 0 L 313.484375 0 L 313.484375 76.507812 L 1.515625 76.507812 Z M 1.515625 0 " fill-opacity="1" fill-rule="nonzero"/></g><g fill="#1f3f8b" fill-opacity="1"><g transform="translate(9.646474, 47.517661)"><g><path d="M 16.015625 0.5 C 13.078125 0.5 10.550781 -0.128906 8.4375 -1.390625 C 6.332031 -2.648438 4.710938 -4.410156 3.578125 -6.671875 C 2.441406 -8.929688 1.875 -11.546875 1.875 -14.515625 C 1.875 -17.484375 2.441406 -20.101562 3.578125 -22.375 C 4.710938 -24.644531 6.332031 -26.414062 8.4375 -27.6875 C 10.550781 -28.96875 13.078125 -29.609375 16.015625 -29.609375 C 19.503906 -29.609375 22.363281 -28.742188 24.59375 -27.015625 C 26.832031 -25.285156 28.226562 -22.851562 28.78125 -19.71875 L 22.921875 -19.71875 C 22.554688 -21.300781 21.785156 -22.539062 20.609375 -23.4375 C 19.429688 -24.34375 17.875 -24.796875 15.9375 -24.796875 C 13.238281 -24.796875 11.128906 -23.878906 9.609375 -22.046875 C 8.085938 -20.210938 7.328125 -17.703125 7.328125 -14.515625 C 7.328125 -11.328125 8.085938 -8.820312 9.609375 -7 C 11.128906 -5.1875 13.238281 -4.28125 15.9375 -4.28125 C 17.875 -4.28125 19.429688 -4.703125 20.609375 -5.546875 C 21.785156 -6.398438 22.554688 -7.570312 22.921875 -9.0625 L 28.78125 -9.0625 C 28.226562 -6.070312 26.832031 -3.726562 24.59375 -2.03125 C 22.363281 -0.34375 19.503906 0.5 16.015625 0.5 Z M 16.015625 0.5 "/></g></g></g><g fill="#1f3f8b" fill-opacity="1"><g transform="translate(37.890274, 47.517661)"><g><path d="M 2.828125 0 L 2.828125 -29.109375 L 8.15625 -29.109375 L 8.15625 -17.015625 L 21.21875 -17.015625 L 21.21875 -29.109375 L 26.53125 -29.109375 L 26.53125 0 L 21.21875 0 L 21.21875 -12.6875 L 8.15625 -12.6875 L 8.15625 0 Z M 2.828125 0 "/></g></g></g><g fill="#1f3f8b" fill-opacity="1"><g transform="translate(64.844587, 47.517661)"><g><path d="M 2.828125 0 L 2.828125 -29.109375 L 8.15625 -29.109375 L 8.15625 0 Z M 2.828125 0 "/></g></g></g><g fill="#1f3f8b" fill-opacity="1"><g transform="translate(73.413402, 47.517661)"><g><path d="M 0.953125 0 L 11.609375 -29.109375 L 17.59375 -29.109375 L 28.234375 0 L 22.578125 0 L 20.25 -6.734375 L 8.90625 -6.734375 L 6.53125 0 Z M 10.359375 -10.890625 L 18.796875 -10.890625 L 14.5625 -23 Z M 10.359375 -10.890625 "/></g></g></g><g fill="#1f3f8b" fill-opacity="1"><g transform="translate(100.159736, 47.517661)"><g><path d="M 2.828125 0 L 2.828125 -29.109375 L 13.515625 -29.109375 C 15.847656 -29.109375 17.769531 -28.710938 19.28125 -27.921875 C 20.789062 -27.140625 21.921875 -26.070312 22.671875 -24.71875 C 23.421875 -23.375 23.796875 -21.882812 23.796875 -20.25 C 23.796875 -18.476562 23.328125 -16.859375 22.390625 -15.390625 C 21.460938 -13.921875 20.015625 -12.851562 18.046875 -12.1875 L 24.078125 0 L 17.96875 0 L 12.5625 -11.484375 L 8.15625 -11.484375 L 8.15625 0 Z M 8.15625 -15.390625 L 13.1875 -15.390625 C 14.957031 -15.390625 16.257812 -15.816406 17.09375 -16.671875 C 17.925781 -17.535156 18.34375 -18.675781 18.34375 -20.09375 C 18.34375 -21.476562 17.929688 -22.585938 17.109375 -23.421875 C 16.296875 -24.253906 14.972656 -24.671875 13.140625 -24.671875 L 8.15625 -24.671875 Z M 8.15625 -15.390625 "/></g></g></g><g fill="#1f3f8b" fill-opacity="1"><g transform="translate(123.661572, 47.517661)"><g><path d="M 0.953125 0 L 11.609375 -29.109375 L 17.59375 -29.109375 L 28.234375 0 L 22.578125 0 L 20.25 -6.734375 L 8.90625 -6.734375 L 6.53125 0 Z M 10.359375 -10.890625 L 18.796875 -10.890625 L 14.5625 -23 Z M 10.359375 -10.890625 "/></g></g></g><g fill="#1f3f8b" fill-opacity="1"><g transform="translate(150.407906, 47.517661)"><g/></g></g><g fill="#1f3f8b" fill-opacity="1"><g transform="translate(157.895226, 47.517661)"><g><path d="M 2.828125 0 L 2.828125 -29.109375 L 9.15625 -29.109375 L 18.421875 -10.640625 L 27.578125 -29.109375 L 33.90625 -29.109375 L 33.90625 0 L 28.578125 0 L 28.578125 -20.09375 L 20.46875 -4.15625 L 16.265625 -4.15625 L 8.15625 -20.09375 L 8.15625 0 Z M 2.828125 0 "/></g></g></g><g fill="#1f3f8b" fill-opacity="1"><g transform="translate(192.212059, 47.517661)"><g/></g></g><g fill="#1f3f8b" fill-opacity="1"><g transform="translate(199.699379, 47.517661)"><g><path d="M 11.265625 0 L 0.625 -29.109375 L 6.328125 -29.109375 L 14.5625 -5.453125 L 22.828125 -29.109375 L 28.453125 -29.109375 L 17.796875 0 Z M 11.265625 0 "/></g></g></g><g fill="#1f3f8b" fill-opacity="1"><g transform="translate(226.36252, 47.517661)"><g><path d="M 2.828125 0 L 2.828125 -29.109375 L 8.15625 -29.109375 L 8.15625 0 Z M 2.828125 0 "/></g></g></g><g fill="#1f3f8b" fill-opacity="1"><g transform="translate(234.931336, 47.517661)"><g><path d="M 2.828125 0 L 2.828125 -29.109375 L 8.15625 -29.109375 L 8.15625 -4.15625 L 21.046875 -4.15625 L 21.046875 0 Z M 2.828125 0 "/></g></g></g><g fill="#1f3f8b" fill-opacity="1"><g transform="translate(255.438262, 47.517661)"><g><path d="M 2.828125 0 L 2.828125 -29.109375 L 8.15625 -29.109375 L 8.15625 -4.15625 L 21.046875 -4.15625 L 21.046875 0 Z M 2.828125 0 "/></g></g></g><g fill="#1f3f8b" fill-opacity="1"><g transform="translate(275.945166, 47.517661)"><g><path d="M 0.953125 0 L 11.609375 -29.109375 L 17.59375 -29.109375 L 28.234375 0 L 22.578125 0 L 20.25 -6.734375 L 8.90625 -6.734375 L 6.53125 0 Z M 10.359375 -10.890625 L 18.796875 -10.890625 L 14.5625 -23 Z M 10.359375 -10.890625 "/></g></g></g><g clip-path="url(#c8dc8f0595)"><g transform="matrix(1, 0, 0, 1, 47, 50)"><g clip-path="url(#8dedd679a7)"><g clip-path="url(#b40dbe1243)"><path fill="#e65fa4" d="M 147.636719 0.972656 L 0.871094 2.726562 L 147.636719 4.480469 C 148.609375 4.492188 149.402344 3.714844 149.410156 2.746094 C 149.421875 1.777344 148.648438 0.980469 147.679688 0.972656 C 147.671875 0.972656 147.648438 0.972656 147.636719 0.972656 Z M 147.636719 0.972656 " fill-opacity="1" fill-rule="nonzero"/></g></g></g></g><g clip-path="url(#7ba3e6f6c8)"><path fill="#e65fa4" d="M 200.84375 52.722656 C 200.84375 53.011719 200.816406 53.300781 200.757812 53.585938 C 200.703125 53.871094 200.617188 54.148438 200.507812 54.414062 C 200.398438 54.683594 200.261719 54.9375 200.097656 55.179688 C 199.9375 55.421875 199.753906 55.644531 199.550781 55.851562 C 199.34375 56.054688 199.121094 56.238281 198.878906 56.398438 C 198.636719 56.5625 198.382812 56.699219 198.113281 56.808594 C 197.847656 56.917969 197.570312 57.003906 197.285156 57.058594 C 197 57.117188 196.710938 57.144531 196.421875 57.144531 C 196.132812 57.144531 195.84375 57.117188 195.558594 57.058594 C 195.273438 57.003906 195 56.917969 194.730469 56.808594 C 194.460938 56.699219 194.207031 56.5625 193.964844 56.398438 C 193.722656 56.238281 193.5 56.054688 193.296875 55.851562 C 193.089844 55.644531 192.90625 55.421875 192.746094 55.179688 C 192.585938 54.9375 192.449219 54.683594 192.335938 54.414062 C 192.226562 54.148438 192.140625 53.871094 192.085938 53.585938 C 192.027344 53.300781 192 53.011719 192 52.722656 C 192 52.433594 192.027344 52.144531 192.085938 51.859375 C 192.140625 51.574219 192.226562 51.300781 192.335938 51.03125 C 192.449219 50.761719 192.585938 50.507812 192.746094 50.265625 C 192.90625 50.023438 193.089844 49.800781 193.296875 49.597656 C 193.5 49.390625 193.722656 49.207031 193.964844 49.046875 C 194.207031 48.886719 194.460938 48.75 194.730469 48.636719 C 195 48.527344 195.273438 48.441406 195.558594 48.386719 C 195.84375 48.328125 196.132812 48.300781 196.421875 48.300781 C 196.710938 48.300781 197 48.328125 197.285156 48.386719 C 197.570312 48.441406 197.847656 48.527344 198.113281 48.636719 C 198.382812 48.75 198.636719 48.886719 198.878906 49.046875 C 199.121094 49.207031 199.34375 49.390625 199.550781 49.597656 C 199.753906 49.800781 199.9375 50.023438 200.097656 50.265625 C 200.261719 50.507812 200.398438 50.761719 200.507812 51.03125 C 200.617188 51.300781 200.703125 51.574219 200.757812 51.859375 C 200.816406 52.144531 200.84375 52.433594 200.84375 52.722656 Z M 200.84375 52.722656 " fill-opacity="1" fill-rule="nonzero"/></g><g clip-path="url(#2b37350e92)"><g transform="matrix(1, 0, 0, 1, 80, 19)"><g clip-path="url(#7072bfd3b0)"><g clip-path="url(#358d09ba68)"><g mask="url(#518296f7c5)"><g><g clip-path="url(#1caecb05ce)"><g clip-path="url(#2d2912cd37)"><path fill="url(#257595f2f2)" d="M 0.214844 0.941406 L 0.214844 57.507812 L 161.398438 57.507812 L 161.398438 0.941406 Z M 0.214844 0.941406 " fill-rule="nonzero"/></g></g></g></g></g></g></g></g></svg>