<svg xmlns="http://www.w3.org/2000/svg" version="1.1" xmlns:xlink="http://www.w3.org/1999/xlink" width="512" height="512"><svg xmlns="http://www.w3.org/2000/svg" version="1.1" xmlns:xlink="http://www.w3.org/1999/xlink" width="512" height="512"><svg xmlns="http://www.w3.org/2000/svg" xmlns:xlink="http://www.w3.org/1999/xlink" width="512" zoomAndPan="magnify" viewBox="0 0 384 383.999986" height="512" preserveAspectRatio="xMidYMid meet" version="1.0"><defs><filter x="0%" y="0%" width="100%" height="100%" id="9556e5c676"><feColorMatrix values="0 0 0 0 1 0 0 0 0 1 0 0 0 0 1 0 0 0 1 0" color-interpolation-filters="sRGB"></feColorMatrix></filter><g></g><clipPath id="b88b3ada5c"><rect x="0" width="134" y="0" height="244"></rect></clipPath><clipPath id="2963f39b1b"><rect x="0" width="158" y="0" height="241"></rect></clipPath><clipPath id="8211ea0109"><rect x="0" width="124" y="0" height="241"></rect></clipPath><clipPath id="572b825afa"><path d="M 0 0.0078125 L 384 0.0078125 L 384 270 L 0 270 Z M 0 0.0078125 " clip-rule="nonzero"></path></clipPath><clipPath id="37ce880388"><path d="M 0 0.0078125 L 384 0.0078125 L 384 270 L 0 270 Z M 0 0.0078125 " clip-rule="nonzero"></path></clipPath><clipPath id="7a76b4f991"><path d="M 0 2.910156 L 384 2.910156 L 384 270 L 0 270 Z M 0 2.910156 " clip-rule="nonzero"></path></clipPath><linearGradient x1="-0.022961" gradientTransform="matrix(2.904045, 0, 0, 2.89361, 0.0666869, 123.477946)" y1="14" x2="132.206376" gradientUnits="userSpaceOnUse" y2="14" id="6fd3484e88"><stop stop-opacity="1" stop-color="rgb(12.159729%, 24.708557%, 54.508972%)" offset="0"></stop><stop stop-opacity="1" stop-color="rgb(12.484741%, 24.853516%, 54.638672%)" offset="0.00390625"></stop><stop stop-opacity="1" stop-color="rgb(12.809753%, 24.998474%, 54.768372%)" offset="0.0078125"></stop><stop stop-opacity="1" stop-color="rgb(13.142395%, 25.146484%, 54.899597%)" offset="0.0117188"></stop><stop stop-opacity="1" stop-color="rgb(13.475037%, 25.294495%, 55.032349%)" offset="0.015625"></stop><stop stop-opacity="1" stop-color="rgb(13.807678%, 25.440979%, 55.1651%)" offset="0.0195313"></stop><stop stop-opacity="1" stop-color="rgb(14.14032%, 25.588989%, 55.297852%)" offset="0.0234375"></stop><stop stop-opacity="1" stop-color="rgb(14.472961%, 25.737%, 55.429077%)" offset="0.0273438"></stop><stop stop-opacity="1" stop-color="rgb(14.805603%, 25.88501%, 55.561829%)" offset="0.03125"></stop><stop stop-opacity="1" stop-color="rgb(15.138245%, 26.03302%, 55.69458%)" offset="0.0351563"></stop><stop stop-opacity="1" stop-color="rgb(15.470886%, 26.18103%, 55.827332%)" offset="0.0390625"></stop><stop stop-opacity="1" stop-color="rgb(15.802002%, 26.327515%, 55.960083%)" offset="0.0429688"></stop><stop stop-opacity="1" stop-color="rgb(16.134644%, 26.475525%, 56.092834%)" offset="0.046875"></stop><stop stop-opacity="1" stop-color="rgb(16.467285%, 26.623535%, 56.22406%)" offset="0.0507812"></stop><stop stop-opacity="1" stop-color="rgb(16.799927%, 26.771545%, 56.356812%)" offset="0.0546875"></stop><stop stop-opacity="1" stop-color="rgb(17.132568%, 26.919556%, 56.489563%)" offset="0.0585938"></stop><stop stop-opacity="1" stop-color="rgb(17.46521%, 27.067566%, 56.622314%)" offset="0.0625"></stop><stop stop-opacity="1" stop-color="rgb(17.797852%, 27.215576%, 56.75354%)" offset="0.0664062"></stop><stop stop-opacity="1" stop-color="rgb(18.130493%, 27.363586%, 56.886292%)" offset="0.0703125"></stop><stop stop-opacity="1" stop-color="rgb(18.463135%, 27.510071%, 57.019043%)" offset="0.0742188"></stop><stop stop-opacity="1" stop-color="rgb(18.795776%, 27.658081%, 57.151794%)" offset="0.078125"></stop><stop stop-opacity="1" stop-color="rgb(19.128418%, 27.806091%, 57.28302%)" offset="0.0820313"></stop><stop stop-opacity="1" stop-color="rgb(19.46106%, 27.954102%, 57.415771%)" offset="0.0859375"></stop><stop stop-opacity="1" stop-color="rgb(19.793701%, 28.102112%, 57.548523%)" offset="0.0898438"></stop><stop stop-opacity="1" stop-color="rgb(20.126343%, 28.250122%, 57.681274%)" offset="0.09375"></stop><stop stop-opacity="1" stop-color="rgb(20.458984%, 28.396606%, 57.8125%)" offset="0.0976562"></stop><stop stop-opacity="1" stop-color="rgb(20.791626%, 28.544617%, 57.945251%)" offset="0.101562"></stop><stop stop-opacity="1" stop-color="rgb(21.124268%, 28.692627%, 58.078003%)" offset="0.105469"></stop><stop stop-opacity="1" stop-color="rgb(21.456909%, 28.840637%, 58.210754%)" offset="0.109375"></stop><stop stop-opacity="1" stop-color="rgb(21.789551%, 28.988647%, 58.34198%)" offset="0.113281"></stop><stop stop-opacity="1" stop-color="rgb(22.122192%, 29.136658%, 58.474731%)" offset="0.117188"></stop><stop stop-opacity="1" stop-color="rgb(22.454834%, 29.284668%, 58.607483%)" offset="0.121094"></stop><stop stop-opacity="1" stop-color="rgb(22.787476%, 29.432678%, 58.740234%)" offset="0.125"></stop><stop stop-opacity="1" stop-color="rgb(23.120117%, 29.579163%, 58.872986%)" offset="0.128906"></stop><stop stop-opacity="1" stop-color="rgb(23.452759%, 29.727173%, 59.005737%)" offset="0.132812"></stop><stop stop-opacity="1" stop-color="rgb(23.783875%, 29.875183%, 59.136963%)" offset="0.136719"></stop><stop stop-opacity="1" stop-color="rgb(24.116516%, 30.023193%, 59.269714%)" offset="0.140625"></stop><stop stop-opacity="1" stop-color="rgb(24.449158%, 30.171204%, 59.402466%)" offset="0.144531"></stop><stop stop-opacity="1" stop-color="rgb(24.781799%, 30.319214%, 59.535217%)" offset="0.148438"></stop><stop stop-opacity="1" stop-color="rgb(25.114441%, 30.465698%, 59.666443%)" offset="0.152344"></stop><stop stop-opacity="1" stop-color="rgb(25.447083%, 30.613708%, 59.799194%)" offset="0.15625"></stop><stop stop-opacity="1" stop-color="rgb(25.779724%, 30.761719%, 59.931946%)" offset="0.160156"></stop><stop stop-opacity="1" stop-color="rgb(26.112366%, 30.909729%, 60.064697%)" offset="0.164063"></stop><stop stop-opacity="1" stop-color="rgb(26.445007%, 31.057739%, 60.195923%)" offset="0.167969"></stop><stop stop-opacity="1" stop-color="rgb(26.777649%, 31.20575%, 60.328674%)" offset="0.171875"></stop><stop stop-opacity="1" stop-color="rgb(27.110291%, 31.35376%, 60.461426%)" offset="0.175781"></stop><stop stop-opacity="1" stop-color="rgb(27.442932%, 31.50177%, 60.594177%)" offset="0.179688"></stop><stop stop-opacity="1" stop-color="rgb(27.775574%, 31.648254%, 60.725403%)" offset="0.183594"></stop><stop stop-opacity="1" stop-color="rgb(28.108215%, 31.796265%, 60.858154%)" offset="0.1875"></stop><stop stop-opacity="1" stop-color="rgb(28.440857%, 31.944275%, 60.990906%)" offset="0.191406"></stop><stop stop-opacity="1" stop-color="rgb(28.773499%, 32.092285%, 61.123657%)" offset="0.195312"></stop><stop stop-opacity="1" stop-color="rgb(29.10614%, 32.240295%, 61.254883%)" offset="0.199219"></stop><stop stop-opacity="1" stop-color="rgb(29.438782%, 32.388306%, 61.387634%)" offset="0.203125"></stop><stop stop-opacity="1" stop-color="rgb(29.771423%, 32.53479%, 61.520386%)" offset="0.207031"></stop><stop stop-opacity="1" stop-color="rgb(30.104065%, 32.6828%, 61.653137%)" offset="0.210938"></stop><stop stop-opacity="1" stop-color="rgb(30.436707%, 32.830811%, 61.784363%)" offset="0.214844"></stop><stop stop-opacity="1" stop-color="rgb(30.769348%, 32.978821%, 61.917114%)" offset="0.21875"></stop><stop stop-opacity="1" stop-color="rgb(31.100464%, 33.126831%, 62.049866%)" offset="0.222656"></stop><stop stop-opacity="1" stop-color="rgb(31.433105%, 33.274841%, 62.182617%)" offset="0.226562"></stop><stop stop-opacity="1" stop-color="rgb(31.765747%, 33.422852%, 62.315369%)" offset="0.230469"></stop><stop stop-opacity="1" stop-color="rgb(32.098389%, 33.570862%, 62.44812%)" offset="0.234375"></stop><stop stop-opacity="1" stop-color="rgb(32.43103%, 33.717346%, 62.579346%)" offset="0.238281"></stop><stop stop-opacity="1" stop-color="rgb(32.763672%, 33.865356%, 62.712097%)" offset="0.242188"></stop><stop stop-opacity="1" stop-color="rgb(33.096313%, 34.013367%, 62.844849%)" offset="0.246094"></stop><stop stop-opacity="1" stop-color="rgb(33.428955%, 34.161377%, 62.9776%)" offset="0.25"></stop><stop stop-opacity="1" stop-color="rgb(33.761597%, 34.309387%, 63.108826%)" offset="0.253906"></stop><stop stop-opacity="1" stop-color="rgb(34.094238%, 34.457397%, 63.241577%)" offset="0.257812"></stop><stop stop-opacity="1" stop-color="rgb(34.42688%, 34.603882%, 63.374329%)" offset="0.261719"></stop><stop stop-opacity="1" stop-color="rgb(34.759521%, 34.751892%, 63.50708%)" offset="0.265625"></stop><stop stop-opacity="1" stop-color="rgb(35.092163%, 34.899902%, 63.638306%)" offset="0.269531"></stop><stop stop-opacity="1" stop-color="rgb(35.424805%, 35.047913%, 63.771057%)" offset="0.273438"></stop><stop stop-opacity="1" stop-color="rgb(35.757446%, 35.195923%, 63.903809%)" offset="0.277344"></stop><stop stop-opacity="1" stop-color="rgb(36.090088%, 35.343933%, 64.03656%)" offset="0.28125"></stop><stop stop-opacity="1" stop-color="rgb(36.422729%, 35.491943%, 64.167786%)" offset="0.285156"></stop><stop stop-opacity="1" stop-color="rgb(36.755371%, 35.639954%, 64.300537%)" offset="0.289062"></stop><stop stop-opacity="1" stop-color="rgb(37.088013%, 35.786438%, 64.433289%)" offset="0.292969"></stop><stop stop-opacity="1" stop-color="rgb(37.420654%, 35.934448%, 64.56604%)" offset="0.296875"></stop><stop stop-opacity="1" stop-color="rgb(37.753296%, 36.082458%, 64.697266%)" offset="0.300781"></stop><stop stop-opacity="1" stop-color="rgb(38.085938%, 36.230469%, 64.830017%)" offset="0.304688"></stop><stop stop-opacity="1" stop-color="rgb(38.418579%, 36.378479%, 64.962769%)" offset="0.308594"></stop><stop stop-opacity="1" stop-color="rgb(38.751221%, 36.526489%, 65.09552%)" offset="0.3125"></stop><stop stop-opacity="1" stop-color="rgb(39.082336%, 36.6745%, 65.228271%)" offset="0.316406"></stop><stop stop-opacity="1" stop-color="rgb(39.414978%, 36.82251%, 65.361023%)" offset="0.320312"></stop><stop stop-opacity="1" stop-color="rgb(39.74762%, 36.968994%, 65.492249%)" offset="0.324219"></stop><stop stop-opacity="1" stop-color="rgb(40.080261%, 37.117004%, 65.625%)" offset="0.328125"></stop><stop stop-opacity="1" stop-color="rgb(40.412903%, 37.265015%, 65.757751%)" offset="0.332031"></stop><stop stop-opacity="1" stop-color="rgb(40.745544%, 37.413025%, 65.890503%)" offset="0.335938"></stop><stop stop-opacity="1" stop-color="rgb(41.078186%, 37.561035%, 66.021729%)" offset="0.339844"></stop><stop stop-opacity="1" stop-color="rgb(41.410828%, 37.709045%, 66.15448%)" offset="0.34375"></stop><stop stop-opacity="1" stop-color="rgb(41.743469%, 37.85553%, 66.287231%)" offset="0.347656"></stop><stop stop-opacity="1" stop-color="rgb(42.076111%, 38.00354%, 66.419983%)" offset="0.351562"></stop><stop stop-opacity="1" stop-color="rgb(42.408752%, 38.15155%, 66.551208%)" offset="0.355469"></stop><stop stop-opacity="1" stop-color="rgb(42.741394%, 38.299561%, 66.68396%)" offset="0.359375"></stop><stop stop-opacity="1" stop-color="rgb(43.074036%, 38.447571%, 66.816711%)" offset="0.363281"></stop><stop stop-opacity="1" stop-color="rgb(43.406677%, 38.595581%, 66.949463%)" offset="0.367188"></stop><stop stop-opacity="1" stop-color="rgb(43.739319%, 38.743591%, 67.080688%)" offset="0.371094"></stop><stop stop-opacity="1" stop-color="rgb(44.07196%, 38.891602%, 67.21344%)" offset="0.375"></stop><stop stop-opacity="1" stop-color="rgb(44.404602%, 39.038086%, 67.346191%)" offset="0.378906"></stop><stop stop-opacity="1" stop-color="rgb(44.737244%, 39.186096%, 67.478943%)" offset="0.382812"></stop><stop stop-opacity="1" stop-color="rgb(45.069885%, 39.334106%, 67.610168%)" offset="0.386719"></stop><stop stop-opacity="1" stop-color="rgb(45.402527%, 39.482117%, 67.74292%)" offset="0.390625"></stop><stop stop-opacity="1" stop-color="rgb(45.735168%, 39.630127%, 67.875671%)" offset="0.394531"></stop><stop stop-opacity="1" stop-color="rgb(46.06781%, 39.778137%, 68.008423%)" offset="0.398438"></stop><stop stop-opacity="1" stop-color="rgb(46.398926%, 39.924622%, 68.139648%)" offset="0.402344"></stop><stop stop-opacity="1" stop-color="rgb(46.731567%, 40.072632%, 68.2724%)" offset="0.40625"></stop><stop stop-opacity="1" stop-color="rgb(47.064209%, 40.220642%, 68.405151%)" offset="0.410156"></stop><stop stop-opacity="1" stop-color="rgb(47.396851%, 40.368652%, 68.537903%)" offset="0.414062"></stop><stop stop-opacity="1" stop-color="rgb(47.729492%, 40.516663%, 68.670654%)" offset="0.417969"></stop><stop stop-opacity="1" stop-color="rgb(48.062134%, 40.664673%, 68.803406%)" offset="0.421875"></stop><stop stop-opacity="1" stop-color="rgb(48.394775%, 40.812683%, 68.934631%)" offset="0.425781"></stop><stop stop-opacity="1" stop-color="rgb(48.727417%, 40.960693%, 69.067383%)" offset="0.429688"></stop><stop stop-opacity="1" stop-color="rgb(49.060059%, 41.107178%, 69.200134%)" offset="0.433594"></stop><stop stop-opacity="1" stop-color="rgb(49.3927%, 41.255188%, 69.332886%)" offset="0.4375"></stop><stop stop-opacity="1" stop-color="rgb(49.725342%, 41.403198%, 69.464111%)" offset="0.441406"></stop><stop stop-opacity="1" stop-color="rgb(50.057983%, 41.551208%, 69.596863%)" offset="0.445312"></stop><stop stop-opacity="1" stop-color="rgb(50.390625%, 41.699219%, 69.729614%)" offset="0.449219"></stop><stop stop-opacity="1" stop-color="rgb(50.723267%, 41.847229%, 69.862366%)" offset="0.453125"></stop><stop stop-opacity="1" stop-color="rgb(51.055908%, 41.993713%, 69.993591%)" offset="0.457031"></stop><stop stop-opacity="1" stop-color="rgb(51.38855%, 42.141724%, 70.126343%)" offset="0.460938"></stop><stop stop-opacity="1" stop-color="rgb(51.721191%, 42.289734%, 70.259094%)" offset="0.464844"></stop><stop stop-opacity="1" stop-color="rgb(52.053833%, 42.437744%, 70.391846%)" offset="0.46875"></stop><stop stop-opacity="1" stop-color="rgb(52.386475%, 42.585754%, 70.523071%)" offset="0.472656"></stop><stop stop-opacity="1" stop-color="rgb(52.719116%, 42.733765%, 70.655823%)" offset="0.476562"></stop><stop stop-opacity="1" stop-color="rgb(53.051758%, 42.881775%, 70.788574%)" offset="0.480469"></stop><stop stop-opacity="1" stop-color="rgb(53.384399%, 43.029785%, 70.921326%)" offset="0.484375"></stop><stop stop-opacity="1" stop-color="rgb(53.717041%, 43.17627%, 71.052551%)" offset="0.488281"></stop><stop stop-opacity="1" stop-color="rgb(54.049683%, 43.32428%, 71.185303%)" offset="0.492188"></stop><stop stop-opacity="1" stop-color="rgb(54.36554%, 43.411255%, 71.260071%)" offset="0.496094"></stop><stop stop-opacity="1" stop-color="rgb(54.681396%, 43.49823%, 71.334839%)" offset="0.5"></stop><stop stop-opacity="1" stop-color="rgb(54.962158%, 43.449402%, 71.278381%)" offset="0.503906"></stop><stop stop-opacity="1" stop-color="rgb(55.24292%, 43.400574%, 71.22345%)" offset="0.507813"></stop><stop stop-opacity="1" stop-color="rgb(55.522156%, 43.35022%, 71.168518%)" offset="0.511719"></stop><stop stop-opacity="1" stop-color="rgb(55.802917%, 43.301392%, 71.113586%)" offset="0.515625"></stop><stop stop-opacity="1" stop-color="rgb(56.082153%, 43.251038%, 71.057129%)" offset="0.519531"></stop><stop stop-opacity="1" stop-color="rgb(56.362915%, 43.202209%, 71.002197%)" offset="0.523438"></stop><stop stop-opacity="1" stop-color="rgb(56.643677%, 43.153381%, 70.94574%)" offset="0.527344"></stop><stop stop-opacity="1" stop-color="rgb(56.924438%, 43.104553%, 70.890808%)" offset="0.53125"></stop><stop stop-opacity="1" stop-color="rgb(57.203674%, 43.054199%, 70.835876%)" offset="0.535156"></stop><stop stop-opacity="1" stop-color="rgb(57.484436%, 43.005371%, 70.780945%)" offset="0.539062"></stop><stop stop-opacity="1" stop-color="rgb(57.765198%, 42.956543%, 70.724487%)" offset="0.542969"></stop><stop stop-opacity="1" stop-color="rgb(58.045959%, 42.907715%, 70.669556%)" offset="0.546875"></stop><stop stop-opacity="1" stop-color="rgb(58.325195%, 42.857361%, 70.613098%)" offset="0.550781"></stop><stop stop-opacity="1" stop-color="rgb(58.605957%, 42.808533%, 70.558167%)" offset="0.554688"></stop><stop stop-opacity="1" stop-color="rgb(58.885193%, 42.758179%, 70.503235%)" offset="0.558594"></stop><stop stop-opacity="1" stop-color="rgb(59.165955%, 42.709351%, 70.448303%)" offset="0.5625"></stop><stop stop-opacity="1" stop-color="rgb(59.446716%, 42.660522%, 70.391846%)" offset="0.566406"></stop><stop stop-opacity="1" stop-color="rgb(59.727478%, 42.611694%, 70.336914%)" offset="0.570313"></stop><stop stop-opacity="1" stop-color="rgb(60.006714%, 42.56134%, 70.280457%)" offset="0.574219"></stop><stop stop-opacity="1" stop-color="rgb(60.287476%, 42.512512%, 70.225525%)" offset="0.578125"></stop><stop stop-opacity="1" stop-color="rgb(60.566711%, 42.462158%, 70.170593%)" offset="0.582031"></stop><stop stop-opacity="1" stop-color="rgb(60.847473%, 42.41333%, 70.115662%)" offset="0.585938"></stop><stop stop-opacity="1" stop-color="rgb(61.128235%, 42.364502%, 70.059204%)" offset="0.589844"></stop><stop stop-opacity="1" stop-color="rgb(61.408997%, 42.315674%, 70.004272%)" offset="0.59375"></stop><stop stop-opacity="1" stop-color="rgb(61.688232%, 42.26532%, 69.947815%)" offset="0.597656"></stop><stop stop-opacity="1" stop-color="rgb(61.968994%, 42.216492%, 69.892883%)" offset="0.601563"></stop><stop stop-opacity="1" stop-color="rgb(62.24823%, 42.166138%, 69.837952%)" offset="0.605469"></stop><stop stop-opacity="1" stop-color="rgb(62.528992%, 42.11731%, 69.78302%)" offset="0.609375"></stop><stop stop-opacity="1" stop-color="rgb(62.809753%, 42.068481%, 69.726562%)" offset="0.613281"></stop><stop stop-opacity="1" stop-color="rgb(63.090515%, 42.019653%, 69.671631%)" offset="0.617188"></stop><stop stop-opacity="1" stop-color="rgb(63.369751%, 41.969299%, 69.615173%)" offset="0.621094"></stop><stop stop-opacity="1" stop-color="rgb(63.650513%, 41.920471%, 69.560242%)" offset="0.625"></stop><stop stop-opacity="1" stop-color="rgb(63.929749%, 41.871643%, 69.50531%)" offset="0.628906"></stop><stop stop-opacity="1" stop-color="rgb(64.21051%, 41.822815%, 69.450378%)" offset="0.632812"></stop><stop stop-opacity="1" stop-color="rgb(64.491272%, 41.772461%, 69.393921%)" offset="0.636719"></stop><stop stop-opacity="1" stop-color="rgb(64.772034%, 41.723633%, 69.338989%)" offset="0.640625"></stop><stop stop-opacity="1" stop-color="rgb(65.05127%, 41.673279%, 69.282532%)" offset="0.644531"></stop><stop stop-opacity="1" stop-color="rgb(65.332031%, 41.624451%, 69.2276%)" offset="0.648438"></stop><stop stop-opacity="1" stop-color="rgb(65.612793%, 41.575623%, 69.172668%)" offset="0.652344"></stop><stop stop-opacity="1" stop-color="rgb(65.893555%, 41.526794%, 69.117737%)" offset="0.65625"></stop><stop stop-opacity="1" stop-color="rgb(66.172791%, 41.47644%, 69.061279%)" offset="0.660156"></stop><stop stop-opacity="1" stop-color="rgb(66.453552%, 41.427612%, 69.006348%)" offset="0.664063"></stop><stop stop-opacity="1" stop-color="rgb(66.732788%, 41.377258%, 68.94989%)" offset="0.667969"></stop><stop stop-opacity="1" stop-color="rgb(67.01355%, 41.32843%, 68.894958%)" offset="0.671875"></stop><stop stop-opacity="1" stop-color="rgb(67.294312%, 41.279602%, 68.840027%)" offset="0.675781"></stop><stop stop-opacity="1" stop-color="rgb(67.575073%, 41.230774%, 68.785095%)" offset="0.679688"></stop><stop stop-opacity="1" stop-color="rgb(67.854309%, 41.18042%, 68.728638%)" offset="0.683594"></stop><stop stop-opacity="1" stop-color="rgb(68.135071%, 41.131592%, 68.673706%)" offset="0.6875"></stop><stop stop-opacity="1" stop-color="rgb(68.414307%, 41.081238%, 68.617249%)" offset="0.691406"></stop><stop stop-opacity="1" stop-color="rgb(68.695068%, 41.03241%, 68.562317%)" offset="0.695312"></stop><stop stop-opacity="1" stop-color="rgb(68.97583%, 40.983582%, 68.507385%)" offset="0.699219"></stop><stop stop-opacity="1" stop-color="rgb(69.256592%, 40.934753%, 68.452454%)" offset="0.703125"></stop><stop stop-opacity="1" stop-color="rgb(69.535828%, 40.884399%, 68.395996%)" offset="0.707031"></stop><stop stop-opacity="1" stop-color="rgb(69.816589%, 40.835571%, 68.341064%)" offset="0.710938"></stop><stop stop-opacity="1" stop-color="rgb(70.095825%, 40.785217%, 68.284607%)" offset="0.714844"></stop><stop stop-opacity="1" stop-color="rgb(70.376587%, 40.736389%, 68.229675%)" offset="0.71875"></stop><stop stop-opacity="1" stop-color="rgb(70.657349%, 40.687561%, 68.174744%)" offset="0.722656"></stop><stop stop-opacity="1" stop-color="rgb(70.93811%, 40.638733%, 68.119812%)" offset="0.726563"></stop><stop stop-opacity="1" stop-color="rgb(71.217346%, 40.588379%, 68.063354%)" offset="0.730469"></stop><stop stop-opacity="1" stop-color="rgb(71.498108%, 40.539551%, 68.008423%)" offset="0.734375"></stop><stop stop-opacity="1" stop-color="rgb(71.77887%, 40.490723%, 67.951965%)" offset="0.738281"></stop><stop stop-opacity="1" stop-color="rgb(72.059631%, 40.441895%, 67.897034%)" offset="0.742188"></stop><stop stop-opacity="1" stop-color="rgb(72.338867%, 40.391541%, 67.842102%)" offset="0.746094"></stop><stop stop-opacity="1" stop-color="rgb(72.619629%, 40.342712%, 67.78717%)" offset="0.75"></stop><stop stop-opacity="1" stop-color="rgb(72.898865%, 40.292358%, 67.730713%)" offset="0.753906"></stop><stop stop-opacity="1" stop-color="rgb(73.179626%, 40.24353%, 67.675781%)" offset="0.757812"></stop><stop stop-opacity="1" stop-color="rgb(73.460388%, 40.194702%, 67.619324%)" offset="0.761719"></stop><stop stop-opacity="1" stop-color="rgb(73.74115%, 40.145874%, 67.564392%)" offset="0.765625"></stop><stop stop-opacity="1" stop-color="rgb(74.020386%, 40.09552%, 67.50946%)" offset="0.769531"></stop><stop stop-opacity="1" stop-color="rgb(74.301147%, 40.046692%, 67.454529%)" offset="0.773438"></stop><stop stop-opacity="1" stop-color="rgb(74.580383%, 39.996338%, 67.398071%)" offset="0.777344"></stop><stop stop-opacity="1" stop-color="rgb(74.861145%, 39.94751%, 67.34314%)" offset="0.78125"></stop><stop stop-opacity="1" stop-color="rgb(75.141907%, 39.898682%, 67.286682%)" offset="0.785156"></stop><stop stop-opacity="1" stop-color="rgb(75.422668%, 39.849854%, 67.23175%)" offset="0.789063"></stop><stop stop-opacity="1" stop-color="rgb(75.701904%, 39.7995%, 67.176819%)" offset="0.792969"></stop><stop stop-opacity="1" stop-color="rgb(75.982666%, 39.750671%, 67.121887%)" offset="0.796875"></stop><stop stop-opacity="1" stop-color="rgb(76.261902%, 39.700317%, 67.06543%)" offset="0.800781"></stop><stop stop-opacity="1" stop-color="rgb(76.542664%, 39.651489%, 67.010498%)" offset="0.804688"></stop><stop stop-opacity="1" stop-color="rgb(76.823425%, 39.602661%, 66.954041%)" offset="0.808594"></stop><stop stop-opacity="1" stop-color="rgb(77.104187%, 39.553833%, 66.899109%)" offset="0.8125"></stop><stop stop-opacity="1" stop-color="rgb(77.383423%, 39.503479%, 66.844177%)" offset="0.816406"></stop><stop stop-opacity="1" stop-color="rgb(77.664185%, 39.454651%, 66.789246%)" offset="0.820312"></stop><stop stop-opacity="1" stop-color="rgb(77.944946%, 39.404297%, 66.732788%)" offset="0.824219"></stop><stop stop-opacity="1" stop-color="rgb(78.225708%, 39.355469%, 66.677856%)" offset="0.828125"></stop><stop stop-opacity="1" stop-color="rgb(78.504944%, 39.306641%, 66.621399%)" offset="0.832031"></stop><stop stop-opacity="1" stop-color="rgb(78.785706%, 39.257812%, 66.566467%)" offset="0.835938"></stop><stop stop-opacity="1" stop-color="rgb(79.064941%, 39.207458%, 66.511536%)" offset="0.839844"></stop><stop stop-opacity="1" stop-color="rgb(79.345703%, 39.15863%, 66.456604%)" offset="0.84375"></stop><stop stop-opacity="1" stop-color="rgb(79.626465%, 39.109802%, 66.400146%)" offset="0.847656"></stop><stop stop-opacity="1" stop-color="rgb(79.907227%, 39.060974%, 66.345215%)" offset="0.851563"></stop><stop stop-opacity="1" stop-color="rgb(80.186462%, 39.01062%, 66.288757%)" offset="0.855469"></stop><stop stop-opacity="1" stop-color="rgb(80.467224%, 38.961792%, 66.233826%)" offset="0.859375"></stop><stop stop-opacity="1" stop-color="rgb(80.74646%, 38.911438%, 66.178894%)" offset="0.863281"></stop><stop stop-opacity="1" stop-color="rgb(81.027222%, 38.86261%, 66.123962%)" offset="0.867188"></stop><stop stop-opacity="1" stop-color="rgb(81.307983%, 38.813782%, 66.067505%)" offset="0.871094"></stop><stop stop-opacity="1" stop-color="rgb(81.588745%, 38.764954%, 66.012573%)" offset="0.875"></stop><stop stop-opacity="1" stop-color="rgb(81.867981%, 38.7146%, 65.956116%)" offset="0.878906"></stop><stop stop-opacity="1" stop-color="rgb(82.148743%, 38.665771%, 65.901184%)" offset="0.882812"></stop><stop stop-opacity="1" stop-color="rgb(82.427979%, 38.615417%, 65.846252%)" offset="0.886719"></stop><stop stop-opacity="1" stop-color="rgb(82.70874%, 38.566589%, 65.791321%)" offset="0.890625"></stop><stop stop-opacity="1" stop-color="rgb(82.989502%, 38.517761%, 65.734863%)" offset="0.894531"></stop><stop stop-opacity="1" stop-color="rgb(83.270264%, 38.468933%, 65.679932%)" offset="0.898437"></stop><stop stop-opacity="1" stop-color="rgb(83.5495%, 38.418579%, 65.623474%)" offset="0.902344"></stop><stop stop-opacity="1" stop-color="rgb(83.830261%, 38.369751%, 65.568542%)" offset="0.90625"></stop><stop stop-opacity="1" stop-color="rgb(84.109497%, 38.319397%, 65.513611%)" offset="0.910156"></stop><stop stop-opacity="1" stop-color="rgb(84.390259%, 38.270569%, 65.458679%)" offset="0.914063"></stop><stop stop-opacity="1" stop-color="rgb(84.671021%, 38.221741%, 65.402222%)" offset="0.917969"></stop><stop stop-opacity="1" stop-color="rgb(84.951782%, 38.172913%, 65.34729%)" offset="0.921875"></stop><stop stop-opacity="1" stop-color="rgb(85.231018%, 38.122559%, 65.290833%)" offset="0.925781"></stop><stop stop-opacity="1" stop-color="rgb(85.51178%, 38.07373%, 65.235901%)" offset="0.929688"></stop><stop stop-opacity="1" stop-color="rgb(85.792542%, 38.024902%, 65.180969%)" offset="0.933594"></stop><stop stop-opacity="1" stop-color="rgb(86.073303%, 37.976074%, 65.126038%)" offset="0.9375"></stop><stop stop-opacity="1" stop-color="rgb(86.352539%, 37.92572%, 65.06958%)" offset="0.941406"></stop><stop stop-opacity="1" stop-color="rgb(86.633301%, 37.876892%, 65.014648%)" offset="0.945312"></stop><stop stop-opacity="1" stop-color="rgb(86.912537%, 37.826538%, 64.958191%)" offset="0.949219"></stop><stop stop-opacity="1" stop-color="rgb(87.193298%, 37.77771%, 64.903259%)" offset="0.953125"></stop><stop stop-opacity="1" stop-color="rgb(87.47406%, 37.728882%, 64.848328%)" offset="0.957031"></stop><stop stop-opacity="1" stop-color="rgb(87.754822%, 37.680054%, 64.793396%)" offset="0.960937"></stop><stop stop-opacity="1" stop-color="rgb(88.034058%, 37.6297%, 64.736938%)" offset="0.964844"></stop><stop stop-opacity="1" stop-color="rgb(88.314819%, 37.580872%, 64.682007%)" offset="0.96875"></stop><stop stop-opacity="1" stop-color="rgb(88.594055%, 37.530518%, 64.625549%)" offset="0.972656"></stop><stop stop-opacity="1" stop-color="rgb(88.874817%, 37.481689%, 64.570618%)" offset="0.976563"></stop><stop stop-opacity="1" stop-color="rgb(89.155579%, 37.432861%, 64.515686%)" offset="0.980469"></stop><stop stop-opacity="1" stop-color="rgb(89.43634%, 37.384033%, 64.460754%)" offset="0.984375"></stop><stop stop-opacity="1" stop-color="rgb(89.715576%, 37.333679%, 64.404297%)" offset="0.988281"></stop><stop stop-opacity="1" stop-color="rgb(89.996338%, 37.284851%, 64.349365%)" offset="0.992188"></stop><stop stop-opacity="1" stop-color="rgb(90.097046%, 37.266541%, 64.329529%)" offset="1"></stop></linearGradient><clipPath id="024aec429e"><rect x="0" width="384" y="0" height="270"></rect></clipPath><clipPath id="e628e0523f"><path d="M 0 0.0078125 L 384 0.0078125 L 384 270 L 0 270 Z M 0 0.0078125 " clip-rule="nonzero"></path></clipPath><clipPath id="c607440b15"><rect x="0" width="384" y="0" height="270"></rect></clipPath><clipPath id="4771d47537"><rect x="0" width="384" y="0" height="270"></rect></clipPath><mask id="7ecc293a05"><g filter="url(#9556e5c676)"><g><g clip-path="url(#4771d47537)"><g clip-path="url(#e628e0523f)"><g><g clip-path="url(#c607440b15)"><g fill="#000000" fill-opacity="1"><g transform="translate(0.951763, 185.75422)"><g><path d="M 5.234375 0 L 5.234375 -45.046875 L 21.25 -45.046875 C 24.375 -45.046875 26.96875 -44.515625 29.03125 -43.453125 C 31.09375 -42.390625 32.644531 -40.960938 33.6875 -39.171875 C 34.726562 -37.378906 35.25 -35.351562 35.25 -33.09375 C 35.25 -31.207031 34.914062 -29.632812 34.25 -28.375 C 33.582031 -27.113281 32.691406 -26.097656 31.578125 -25.328125 C 30.472656 -24.566406 29.238281 -23.984375 27.875 -23.578125 L 27.875 -23.21875 C 29.363281 -23.09375 30.800781 -22.59375 32.1875 -21.71875 C 33.582031 -20.84375 34.738281 -19.601562 35.65625 -18 C 36.570312 -16.394531 37.03125 -14.445312 37.03125 -12.15625 C 37.03125 -9.8125 36.492188 -7.726562 35.421875 -5.90625 C 34.359375 -4.082031 32.695312 -2.640625 30.4375 -1.578125 C 28.175781 -0.523438 25.265625 0 21.703125 0 Z M 10.90625 -5.015625 L 21.578125 -5.015625 C 25.066406 -5.015625 27.59375 -5.679688 29.15625 -7.015625 C 30.71875 -8.359375 31.5 -10.070312 31.5 -12.15625 C 31.5 -13.6875 31.109375 -15.082031 30.328125 -16.34375 C 29.554688 -17.601562 28.453125 -18.597656 27.015625 -19.328125 C 25.585938 -20.066406 23.878906 -20.4375 21.890625 -20.4375 L 10.90625 -20.4375 Z M 10.90625 -25.265625 L 21.0625 -25.265625 C 22.738281 -25.265625 24.226562 -25.578125 25.53125 -26.203125 C 26.84375 -26.828125 27.878906 -27.710938 28.640625 -28.859375 C 29.398438 -30.015625 29.78125 -31.367188 29.78125 -32.921875 C 29.78125 -34.953125 29.070312 -36.640625 27.65625 -37.984375 C 26.25 -39.335938 24.101562 -40.015625 21.21875 -40.015625 L 10.90625 -40.015625 Z M 10.90625 -25.265625 "></path></g></g></g><g fill="#000000" fill-opacity="1"><g transform="translate(38.764885, 185.75422)"><g><path d="M 17.296875 0.609375 C 14.367188 0.609375 11.828125 0.0664062 9.671875 -1.015625 C 7.515625 -2.109375 5.851562 -3.59375 4.6875 -5.46875 C 3.519531 -7.34375 2.9375 -9.457031 2.9375 -11.8125 C 2.9375 -13.664062 3.304688 -15.285156 4.046875 -16.671875 C 4.796875 -18.066406 5.875 -19.394531 7.28125 -20.65625 C 8.695312 -21.914062 10.367188 -23.269531 12.296875 -24.71875 L 19.078125 -29.71875 C 19.679688 -30.175781 20.296875 -30.691406 20.921875 -31.265625 C 21.546875 -31.835938 22.0625 -32.503906 22.46875 -33.265625 C 22.882812 -34.023438 23.09375 -34.882812 23.09375 -35.84375 C 23.09375 -37.28125 22.597656 -38.472656 21.609375 -39.421875 C 20.617188 -40.367188 19.320312 -40.84375 17.71875 -40.84375 C 16.582031 -40.84375 15.582031 -40.601562 14.71875 -40.125 C 13.851562 -39.65625 13.175781 -39.003906 12.6875 -38.171875 C 12.207031 -37.347656 11.96875 -36.382812 11.96875 -35.28125 C 11.96875 -34.207031 12.207031 -33.179688 12.6875 -32.203125 C 13.175781 -31.222656 13.863281 -30.175781 14.75 -29.0625 C 15.632812 -27.945312 16.679688 -26.644531 17.890625 -25.15625 L 38.625 0 L 32.125 0 L 15.046875 -20.5 C 13.296875 -22.65625 11.78125 -24.515625 10.5 -26.078125 C 9.21875 -27.648438 8.238281 -29.15625 7.5625 -30.59375 C 6.894531 -32.039062 6.5625 -33.601562 6.5625 -35.28125 C 6.5625 -37.289062 7.015625 -39.0625 7.921875 -40.59375 C 8.828125 -42.125 10.109375 -43.316406 11.765625 -44.171875 C 13.429688 -45.035156 15.375 -45.46875 17.59375 -45.46875 C 19.832031 -45.46875 21.765625 -45.035156 23.390625 -44.171875 C 25.023438 -43.316406 26.289062 -42.164062 27.1875 -40.71875 C 28.082031 -39.269531 28.53125 -37.632812 28.53125 -35.8125 C 28.53125 -34.488281 28.28125 -33.238281 27.78125 -32.0625 C 27.28125 -30.894531 26.582031 -29.804688 25.6875 -28.796875 C 24.800781 -27.796875 23.753906 -26.851562 22.546875 -25.96875 L 13.546875 -19.28125 C 11.691406 -17.914062 10.378906 -16.644531 9.609375 -15.46875 C 8.847656 -14.300781 8.46875 -13.023438 8.46875 -11.640625 C 8.46875 -10.191406 8.828125 -8.894531 9.546875 -7.75 C 10.273438 -6.613281 11.289062 -5.71875 12.59375 -5.0625 C 13.894531 -4.40625 15.367188 -4.078125 17.015625 -4.078125 C 18.804688 -4.078125 20.519531 -4.457031 22.15625 -5.21875 C 23.789062 -5.988281 25.253906 -7.070312 26.546875 -8.46875 C 27.847656 -9.875 28.875 -11.535156 29.625 -13.453125 C 30.382812 -15.367188 30.765625 -17.503906 30.765625 -19.859375 L 35.96875 -19.859375 C 35.96875 -17.097656 35.65625 -14.785156 35.03125 -12.921875 C 34.40625 -11.054688 33.660156 -9.53125 32.796875 -8.34375 C 31.929688 -7.15625 31.144531 -6.207031 30.4375 -5.5 L 29.375 -4.171875 C 27.925781 -2.597656 26.101562 -1.40625 23.90625 -0.59375 C 21.707031 0.207031 19.503906 0.609375 17.296875 0.609375 Z M 17.296875 0.609375 "></path></g></g></g><g fill="#000000" fill-opacity="1"><g transform="translate(75.671263, 185.75422)"><g><path d="M 23.640625 0.640625 C 19.734375 0.640625 16.253906 -0.304688 13.203125 -2.203125 C 10.160156 -4.097656 7.773438 -6.78125 6.046875 -10.25 C 4.328125 -13.71875 3.46875 -17.796875 3.46875 -22.484375 C 3.46875 -27.222656 4.328125 -31.320312 6.046875 -34.78125 C 7.773438 -38.238281 10.160156 -40.914062 13.203125 -42.8125 C 16.253906 -44.71875 19.734375 -45.671875 23.640625 -45.671875 C 25.929688 -45.671875 28.09375 -45.332031 30.125 -44.65625 C 32.164062 -43.988281 34 -43.007812 35.625 -41.71875 C 37.25 -40.425781 38.597656 -38.863281 39.671875 -37.03125 C 40.753906 -35.195312 41.492188 -33.109375 41.890625 -30.765625 L 36.1875 -30.765625 C 35.863281 -32.335938 35.3125 -33.71875 34.53125 -34.90625 C 33.757812 -36.101562 32.804688 -37.113281 31.671875 -37.9375 C 30.546875 -38.757812 29.300781 -39.378906 27.9375 -39.796875 C 26.582031 -40.210938 25.148438 -40.421875 23.640625 -40.421875 C 20.835938 -40.421875 18.332031 -39.710938 16.125 -38.296875 C 13.914062 -36.890625 12.179688 -34.847656 10.921875 -32.171875 C 9.660156 -29.503906 9.03125 -26.273438 9.03125 -22.484375 C 9.03125 -18.722656 9.664062 -15.503906 10.9375 -12.828125 C 12.207031 -10.160156 13.945312 -8.125 16.15625 -6.71875 C 18.363281 -5.320312 20.859375 -4.625 23.640625 -4.625 C 25.148438 -4.625 26.582031 -4.832031 27.9375 -5.25 C 29.300781 -5.675781 30.539062 -6.296875 31.65625 -7.109375 C 32.78125 -7.929688 33.734375 -8.9375 34.515625 -10.125 C 35.304688 -11.3125 35.875 -12.679688 36.21875 -14.234375 L 41.890625 -14.234375 C 41.515625 -11.941406 40.78125 -9.878906 39.6875 -8.046875 C 38.601562 -6.222656 37.253906 -4.660156 35.640625 -3.359375 C 34.023438 -2.066406 32.195312 -1.078125 30.15625 -0.390625 C 28.125 0.296875 25.953125 0.640625 23.640625 0.640625 Z M 23.640625 0.640625 "></path></g></g></g><g fill="#000000" fill-opacity="1"><g transform="translate(118.290109, 185.75422)"><g></g></g></g><g fill="#000000" fill-opacity="1"><g transform="translate(132.799879, 185.75422)"><g><path d="M 19.734375 0.78125 C 16.453125 0.78125 13.597656 0.234375 11.171875 -0.859375 C 8.742188 -1.960938 6.851562 -3.492188 5.5 -5.453125 C 4.144531 -7.421875 3.398438 -9.734375 3.265625 -12.390625 L 9.0625 -12.390625 C 9.1875 -10.597656 9.734375 -9.101562 10.703125 -7.90625 C 11.671875 -6.707031 12.941406 -5.8125 14.515625 -5.21875 C 16.097656 -4.625 17.835938 -4.328125 19.734375 -4.328125 C 21.816406 -4.328125 23.664062 -4.65625 25.28125 -5.3125 C 26.90625 -5.976562 28.1875 -6.910156 29.125 -8.109375 C 30.0625 -9.316406 30.53125 -10.710938 30.53125 -12.296875 C 30.53125 -13.710938 30.144531 -14.878906 29.375 -15.796875 C 28.613281 -16.710938 27.5625 -17.472656 26.21875 -18.078125 C 24.882812 -18.679688 23.347656 -19.210938 21.609375 -19.671875 L 16.265625 -21.15625 C 12.410156 -22.207031 9.472656 -23.679688 7.453125 -25.578125 C 5.441406 -27.484375 4.4375 -29.941406 4.4375 -32.953125 C 4.4375 -35.503906 5.113281 -37.734375 6.46875 -39.640625 C 7.820312 -41.546875 9.664062 -43.023438 12 -44.078125 C 14.332031 -45.140625 16.972656 -45.671875 19.921875 -45.671875 C 22.921875 -45.671875 25.5625 -45.132812 27.84375 -44.0625 C 30.132812 -43 31.9375 -41.53125 33.25 -39.65625 C 34.5625 -37.78125 35.257812 -35.644531 35.34375 -33.25 L 29.78125 -33.25 C 29.53125 -35.582031 28.488281 -37.394531 26.65625 -38.6875 C 24.820312 -39.976562 22.515625 -40.625 19.734375 -40.625 C 17.804688 -40.625 16.101562 -40.300781 14.625 -39.65625 C 13.15625 -39.007812 12.007812 -38.128906 11.1875 -37.015625 C 10.375 -35.910156 9.96875 -34.644531 9.96875 -33.21875 C 9.96875 -31.75 10.414062 -30.546875 11.3125 -29.609375 C 12.21875 -28.671875 13.335938 -27.921875 14.671875 -27.359375 C 16.015625 -26.796875 17.351562 -26.332031 18.6875 -25.96875 L 23.3125 -24.71875 C 24.738281 -24.363281 26.195312 -23.878906 27.6875 -23.265625 C 29.175781 -22.648438 30.554688 -21.867188 31.828125 -20.921875 C 33.097656 -19.972656 34.125 -18.789062 34.90625 -17.375 C 35.695312 -15.96875 36.09375 -14.273438 36.09375 -12.296875 C 36.09375 -9.796875 35.441406 -7.554688 34.140625 -5.578125 C 32.835938 -3.609375 30.96875 -2.054688 28.53125 -0.921875 C 26.09375 0.210938 23.160156 0.78125 19.734375 0.78125 Z M 19.734375 0.78125 "></path></g></g></g><g fill="#000000" fill-opacity="1"><g transform="translate(169.67601, 185.75422)"><g><path d="M 18.015625 -33.375 L 18.015625 -28.78125 L 0.578125 -28.78125 L 0.578125 -33.375 Z M 5.78125 -41.5625 L 11.15625 -41.5625 L 11.15625 -8.53125 C 11.15625 -7.09375 11.453125 -6.046875 12.046875 -5.390625 C 12.640625 -4.734375 13.640625 -4.40625 15.046875 -4.40625 C 15.410156 -4.40625 15.859375 -4.4375 16.390625 -4.5 C 16.929688 -4.5625 17.421875 -4.625 17.859375 -4.6875 L 18.734375 -0.15625 C 18.171875 0.0078125 17.539062 0.128906 16.84375 0.203125 C 16.15625 0.285156 15.476562 0.328125 14.8125 0.328125 C 11.925781 0.328125 9.695312 -0.40625 8.125 -1.875 C 6.5625 -3.34375 5.78125 -5.414062 5.78125 -8.09375 Z M 5.78125 -41.5625 "></path></g></g></g><g fill="#000000" fill-opacity="1"><g transform="translate(187.238509, 185.75422)"><g><path d="M 4.5625 0 L 4.5625 -33.375 L 9.734375 -33.375 L 9.734375 -28.234375 L 10.03125 -28.234375 C 10.65625 -29.921875 11.734375 -31.28125 13.265625 -32.3125 C 14.796875 -33.34375 16.5625 -33.859375 18.5625 -33.859375 C 18.976562 -33.859375 19.445312 -33.847656 19.96875 -33.828125 C 20.5 -33.804688 20.90625 -33.785156 21.1875 -33.765625 L 21.1875 -28.359375 C 21.03125 -28.390625 20.632812 -28.445312 20 -28.53125 C 19.363281 -28.613281 18.679688 -28.65625 17.953125 -28.65625 C 16.441406 -28.65625 15.078125 -28.332031 13.859375 -27.6875 C 12.640625 -27.039062 11.679688 -26.132812 10.984375 -24.96875 C 10.285156 -23.800781 9.9375 -22.421875 9.9375 -20.828125 L 9.9375 0 Z M 4.5625 0 "></path></g></g></g><g fill="#000000" fill-opacity="1"><g transform="translate(207.098048, 185.75422)"><g><path d="M 14.09375 0.71875 C 11.945312 0.71875 10.015625 0.328125 8.296875 -0.453125 C 6.578125 -1.234375 5.207031 -2.390625 4.1875 -3.921875 C 3.164062 -5.460938 2.65625 -7.328125 2.65625 -9.515625 C 2.65625 -11.429688 3.03125 -12.984375 3.78125 -14.171875 C 4.539062 -15.359375 5.550781 -16.300781 6.8125 -17 C 8.070312 -17.695312 9.472656 -18.21875 11.015625 -18.5625 C 12.554688 -18.90625 14.113281 -19.175781 15.6875 -19.375 C 17.71875 -19.632812 19.351562 -19.832031 20.59375 -19.96875 C 21.832031 -20.113281 22.75 -20.351562 23.34375 -20.6875 C 23.945312 -21.019531 24.25 -21.597656 24.25 -22.421875 L 24.25 -22.640625 C 24.25 -23.992188 23.976562 -25.148438 23.4375 -26.109375 C 22.90625 -27.078125 22.113281 -27.816406 21.0625 -28.328125 C 20.019531 -28.847656 18.722656 -29.109375 17.171875 -29.109375 C 15.578125 -29.109375 14.207031 -28.859375 13.0625 -28.359375 C 11.925781 -27.867188 11 -27.234375 10.28125 -26.453125 C 9.570312 -25.679688 9.078125 -24.863281 8.796875 -24 L 3.5625 -25.359375 C 4.25 -27.390625 5.285156 -29.023438 6.671875 -30.265625 C 8.066406 -31.503906 9.664062 -32.410156 11.46875 -32.984375 C 13.269531 -33.566406 15.128906 -33.859375 17.046875 -33.859375 C 18.335938 -33.859375 19.707031 -33.691406 21.15625 -33.359375 C 22.601562 -33.023438 23.96875 -32.441406 25.25 -31.609375 C 26.53125 -30.785156 27.570312 -29.613281 28.375 -28.09375 C 29.1875 -26.570312 29.59375 -24.613281 29.59375 -22.21875 L 29.59375 0 L 24.296875 0 L 24.296875 -4.59375 L 24 -4.59375 C 23.613281 -3.8125 23.007812 -3.003906 22.1875 -2.171875 C 21.363281 -1.347656 20.285156 -0.660156 18.953125 -0.109375 C 17.617188 0.441406 16 0.71875 14.09375 0.71875 Z M 14.96875 -4.046875 C 17 -4.046875 18.695312 -4.429688 20.0625 -5.203125 C 21.4375 -5.984375 22.476562 -7 23.1875 -8.25 C 23.894531 -9.5 24.25 -10.8125 24.25 -12.1875 L 24.25 -16.71875 C 24.019531 -16.476562 23.554688 -16.253906 22.859375 -16.046875 C 22.171875 -15.847656 21.367188 -15.664062 20.453125 -15.5 C 19.535156 -15.34375 18.628906 -15.207031 17.734375 -15.09375 C 16.835938 -14.988281 16.078125 -14.894531 15.453125 -14.8125 C 14.160156 -14.644531 12.945312 -14.363281 11.8125 -13.96875 C 10.6875 -13.582031 9.78125 -13.015625 9.09375 -12.265625 C 8.414062 -11.523438 8.078125 -10.519531 8.078125 -9.25 C 8.078125 -8.125 8.375 -7.171875 8.96875 -6.390625 C 9.5625 -5.617188 10.367188 -5.035156 11.390625 -4.640625 C 12.421875 -4.242188 13.613281 -4.046875 14.96875 -4.046875 Z M 14.96875 -4.046875 "></path></g></g></g><g fill="#000000" fill-opacity="1"><g transform="translate(238.775511, 185.75422)"><g><path d="M 18.015625 -33.375 L 18.015625 -28.78125 L 0.578125 -28.78125 L 0.578125 -33.375 Z M 5.78125 -41.5625 L 11.15625 -41.5625 L 11.15625 -8.53125 C 11.15625 -7.09375 11.453125 -6.046875 12.046875 -5.390625 C 12.640625 -4.734375 13.640625 -4.40625 15.046875 -4.40625 C 15.410156 -4.40625 15.859375 -4.4375 16.390625 -4.5 C 16.929688 -4.5625 17.421875 -4.625 17.859375 -4.6875 L 18.734375 -0.15625 C 18.171875 0.0078125 17.539062 0.128906 16.84375 0.203125 C 16.15625 0.285156 15.476562 0.328125 14.8125 0.328125 C 11.925781 0.328125 9.695312 -0.40625 8.125 -1.875 C 6.5625 -3.34375 5.78125 -5.414062 5.78125 -8.09375 Z M 5.78125 -41.5625 "></path></g></g></g><g fill="#000000" fill-opacity="1"><g transform="translate(255.733469, 185.75422)"><g><path d="M 18.53125 0.71875 C 15.300781 0.71875 12.519531 -0.00390625 10.1875 -1.453125 C 7.851562 -2.898438 6.0625 -4.910156 4.8125 -7.484375 C 3.5625 -10.066406 2.9375 -13.0625 2.9375 -16.46875 C 2.9375 -19.875 3.554688 -22.882812 4.796875 -25.5 C 6.035156 -28.125 7.785156 -30.171875 10.046875 -31.640625 C 12.316406 -33.117188 14.953125 -33.859375 17.953125 -33.859375 C 19.847656 -33.859375 21.671875 -33.539062 23.421875 -32.90625 C 25.179688 -32.269531 26.753906 -31.269531 28.140625 -29.90625 C 29.535156 -28.550781 30.632812 -26.804688 31.4375 -24.671875 C 32.238281 -22.535156 32.640625 -19.984375 32.640625 -17.015625 L 32.640625 -14.9375 L 6.40625 -14.9375 L 6.40625 -19.46875 L 29.71875 -19.46875 L 27.265625 -17.828125 C 27.265625 -20.023438 26.90625 -21.96875 26.1875 -23.65625 C 25.476562 -25.351562 24.429688 -26.679688 23.046875 -27.640625 C 21.671875 -28.597656 19.972656 -29.078125 17.953125 -29.078125 C 15.960938 -29.078125 14.242188 -28.59375 12.796875 -27.625 C 11.359375 -26.65625 10.253906 -25.367188 9.484375 -23.765625 C 8.722656 -22.171875 8.34375 -20.414062 8.34375 -18.5 L 8.34375 -15.65625 C 8.34375 -13.21875 8.757812 -11.128906 9.59375 -9.390625 C 10.4375 -7.660156 11.628906 -6.34375 13.171875 -5.4375 C 14.710938 -4.53125 16.507812 -4.078125 18.5625 -4.078125 C 19.925781 -4.078125 21.15625 -4.28125 22.25 -4.6875 C 23.351562 -5.09375 24.296875 -5.6875 25.078125 -6.46875 C 25.867188 -7.25 26.46875 -8.21875 26.875 -9.375 L 32.109375 -8.21875 C 31.597656 -6.46875 30.71875 -4.914062 29.46875 -3.5625 C 28.21875 -2.21875 26.660156 -1.164062 24.796875 -0.40625 C 22.929688 0.34375 20.84375 0.71875 18.53125 0.71875 Z M 18.53125 0.71875 "></path></g></g></g><g fill="#000000" fill-opacity="1"><g transform="translate(288.710622, 185.75422)"><g><path d="M 18.171875 13.296875 C 15.710938 13.296875 13.554688 12.96875 11.703125 12.3125 C 9.847656 11.65625 8.316406 10.757812 7.109375 9.625 C 5.898438 8.488281 4.992188 7.207031 4.390625 5.78125 L 8.984375 3.5625 C 9.421875 4.332031 10 5.101562 10.71875 5.875 C 11.445312 6.65625 12.410156 7.300781 13.609375 7.8125 C 14.816406 8.320312 16.335938 8.578125 18.171875 8.578125 C 20.890625 8.578125 23.101562 7.910156 24.8125 6.578125 C 26.53125 5.253906 27.390625 3.210938 27.390625 0.453125 L 27.390625 -5.890625 L 27 -5.890625 C 26.507812 -5.128906 25.878906 -4.304688 25.109375 -3.421875 C 24.347656 -2.546875 23.320312 -1.804688 22.03125 -1.203125 C 20.738281 -0.597656 19.097656 -0.296875 17.109375 -0.296875 C 14.390625 -0.296875 11.960938 -0.945312 9.828125 -2.25 C 7.691406 -3.550781 6.007812 -5.4375 4.78125 -7.90625 C 3.550781 -10.375 2.9375 -13.34375 2.9375 -16.8125 C 2.9375 -20.25 3.539062 -23.242188 4.75 -25.796875 C 5.957031 -28.347656 7.632812 -30.328125 9.78125 -31.734375 C 11.925781 -33.148438 14.398438 -33.859375 17.203125 -33.859375 C 19.191406 -33.859375 20.832031 -33.535156 22.125 -32.890625 C 23.414062 -32.242188 24.453125 -31.46875 25.234375 -30.5625 C 26.023438 -29.65625 26.648438 -28.816406 27.109375 -28.046875 L 27.5 -28.046875 L 27.5 -33.375 L 32.734375 -33.375 L 32.734375 0.6875 C 32.734375 3.632812 32.082031 6.039062 30.78125 7.90625 C 29.488281 9.769531 27.738281 11.132812 25.53125 12 C 23.320312 12.863281 20.867188 13.296875 18.171875 13.296875 Z M 17.984375 -5.078125 C 20.015625 -5.078125 21.738281 -5.550781 23.15625 -6.5 C 24.582031 -7.445312 25.660156 -8.804688 26.390625 -10.578125 C 27.128906 -12.347656 27.5 -14.453125 27.5 -16.890625 C 27.5 -19.296875 27.132812 -21.410156 26.40625 -23.234375 C 25.6875 -25.054688 24.613281 -26.476562 23.1875 -27.5 C 21.769531 -28.53125 20.035156 -29.046875 17.984375 -29.046875 C 15.910156 -29.046875 14.15625 -28.515625 12.71875 -27.453125 C 11.289062 -26.398438 10.207031 -24.960938 9.46875 -23.140625 C 8.738281 -21.316406 8.375 -19.234375 8.375 -16.890625 C 8.375 -14.515625 8.742188 -12.441406 9.484375 -10.671875 C 10.234375 -8.898438 11.320312 -7.523438 12.75 -6.546875 C 14.1875 -5.566406 15.929688 -5.078125 17.984375 -5.078125 Z M 17.984375 -5.078125 "></path></g></g></g><g fill="#000000" fill-opacity="1"><g transform="translate(323.531466, 185.75422)"><g><path d="M 4.5625 0 L 4.5625 -33.375 L 9.9375 -33.375 L 9.9375 0 Z M 7.25 -39.046875 C 6.25 -39.046875 5.378906 -39.398438 4.640625 -40.109375 C 3.898438 -40.816406 3.53125 -41.664062 3.53125 -42.65625 C 3.53125 -43.632812 3.898438 -44.472656 4.640625 -45.171875 C 5.378906 -45.867188 6.25 -46.21875 7.25 -46.21875 C 8.28125 -46.21875 9.160156 -45.867188 9.890625 -45.171875 C 10.628906 -44.472656 11 -43.632812 11 -42.65625 C 11 -41.664062 10.628906 -40.816406 9.890625 -40.109375 C 9.160156 -39.398438 8.28125 -39.046875 7.25 -39.046875 Z M 7.25 -39.046875 "></path></g></g></g><g fill="#000000" fill-opacity="1"><g transform="translate(335.562801, 185.75422)"><g><path d="M 15.953125 0.71875 C 13.660156 0.71875 11.609375 0.375 9.796875 -0.3125 C 7.984375 -1.007812 6.488281 -2.039062 5.3125 -3.40625 C 4.144531 -4.78125 3.390625 -6.476562 3.046875 -8.5 L 8.1875 -9.46875 C 8.613281 -7.59375 9.484375 -6.203125 10.796875 -5.296875 C 12.117188 -4.398438 13.820312 -3.953125 15.90625 -3.953125 C 18.21875 -3.953125 20.0625 -4.453125 21.4375 -5.453125 C 22.820312 -6.453125 23.515625 -7.644531 23.515625 -9.03125 C 23.515625 -10.207031 23.097656 -11.175781 22.265625 -11.9375 C 21.429688 -12.707031 20.207031 -13.269531 18.59375 -13.625 L 13.0625 -14.96875 C 10.019531 -15.664062 7.75 -16.773438 6.25 -18.296875 C 4.757812 -19.816406 4.015625 -21.757812 4.015625 -24.125 C 4.015625 -26.039062 4.539062 -27.726562 5.59375 -29.1875 C 6.65625 -30.644531 8.113281 -31.785156 9.96875 -32.609375 C 11.820312 -33.441406 13.941406 -33.859375 16.328125 -33.859375 C 18.617188 -33.859375 20.585938 -33.492188 22.234375 -32.765625 C 23.890625 -32.035156 25.226562 -31.023438 26.25 -29.734375 C 27.269531 -28.453125 27.984375 -26.960938 28.390625 -25.265625 L 23.453125 -24.265625 C 23.085938 -25.578125 22.347656 -26.742188 21.234375 -27.765625 C 20.117188 -28.785156 18.492188 -29.296875 16.359375 -29.296875 C 14.335938 -29.296875 12.675781 -28.832031 11.375 -27.90625 C 10.082031 -26.976562 9.4375 -25.804688 9.4375 -24.390625 C 9.4375 -23.140625 9.890625 -22.140625 10.796875 -21.390625 C 11.703125 -20.648438 13.09375 -20.0625 14.96875 -19.625 L 20.078125 -18.40625 C 23.140625 -17.6875 25.398438 -16.570312 26.859375 -15.0625 C 28.316406 -13.5625 29.046875 -11.65625 29.046875 -9.34375 C 29.046875 -7.363281 28.488281 -5.617188 27.375 -4.109375 C 26.269531 -2.597656 24.734375 -1.414062 22.765625 -0.5625 C 20.804688 0.289062 18.535156 0.71875 15.953125 0.71875 Z M 15.953125 0.71875 "></path></g></g></g><g fill="#000000" fill-opacity="1"><g transform="translate(365.154774, 185.75422)"><g><path d="M 18.015625 -33.375 L 18.015625 -28.78125 L 0.578125 -28.78125 L 0.578125 -33.375 Z M 5.78125 -41.5625 L 11.15625 -41.5625 L 11.15625 -8.53125 C 11.15625 -7.09375 11.453125 -6.046875 12.046875 -5.390625 C 12.640625 -4.734375 13.640625 -4.40625 15.046875 -4.40625 C 15.410156 -4.40625 15.859375 -4.4375 16.390625 -4.5 C 16.929688 -4.5625 17.421875 -4.625 17.859375 -4.6875 L 18.734375 -0.15625 C 18.171875 0.0078125 17.539062 0.128906 16.84375 0.203125 C 16.15625 0.285156 15.476562 0.328125 14.8125 0.328125 C 11.925781 0.328125 9.695312 -0.40625 8.125 -1.875 C 6.5625 -3.34375 5.78125 -5.414062 5.78125 -8.09375 Z M 5.78125 -41.5625 "></path></g></g></g></g></g></g></g></g></g></mask><clipPath id="9bdeb80abd"><path d="M 0 2.910156 L 384 2.910156 L 384 270 L 0 270 Z M 0 2.910156 " clip-rule="nonzero"></path></clipPath><clipPath id="59ebc0c861"><rect x="0" width="384" y="0" height="270"></rect></clipPath><clipPath id="d44c44dbd1"><rect x="0" width="384" y="0" height="270"></rect></clipPath><clipPath id="8132b8d7d6"><rect x="0" width="384" y="0" height="270"></rect></clipPath></defs><rect x="-38.4" width="460.8" fill="#ffffff" y="-38.399999" height="460.799983" fill-opacity="1"></rect><rect x="-38.4" width="460.8" fill="#f4f4f6" y="-38.399999" height="460.799983" fill-opacity="1"></rect><g transform="matrix(1, 0, 0, 1, 0, 56)"><g clip-path="url(#b88b3ada5c)"><g fill="#1f3f8b" fill-opacity="1"><g transform="translate(-1.953694, 184.703095)"><g><path d="M 70.984375 2.234375 C 58.191406 2.234375 47.164062 -0.585938 37.90625 -6.234375 C 28.65625 -11.890625 21.484375 -19.773438 16.390625 -29.890625 C 11.296875 -40.015625 8.75 -51.785156 8.75 -65.203125 C 8.75 -78.492188 11.296875 -90.195312 16.390625 -100.3125 C 21.484375 -110.4375 28.65625 -118.351562 37.90625 -124.0625 C 47.164062 -129.78125 58.191406 -132.640625 70.984375 -132.640625 C 85.878906 -132.640625 98.015625 -129.066406 107.390625 -121.921875 C 116.773438 -114.785156 122.769531 -104.820312 125.375 -92.03125 L 108.046875 -92.03125 C 106.066406 -100.101562 102 -106.59375 95.84375 -111.5 C 89.695312 -116.40625 81.410156 -118.859375 70.984375 -118.859375 C 61.660156 -118.859375 53.519531 -116.710938 46.5625 -112.421875 C 39.613281 -108.140625 34.242188 -101.992188 30.453125 -93.984375 C 26.671875 -85.972656 24.78125 -76.378906 24.78125 -65.203125 C 24.78125 -54.023438 26.671875 -44.429688 30.453125 -36.421875 C 34.242188 -28.410156 39.613281 -22.257812 46.5625 -17.96875 C 53.519531 -13.6875 61.660156 -11.546875 70.984375 -11.546875 C 81.410156 -11.546875 89.695312 -13.9375 95.84375 -18.71875 C 102 -23.5 106.066406 -29.863281 108.046875 -37.8125 L 125.375 -37.8125 C 122.769531 -25.269531 116.773438 -15.457031 107.390625 -8.375 C 98.015625 -1.300781 85.878906 2.234375 70.984375 2.234375 Z M 70.984375 2.234375 "></path></g></g></g></g></g><g transform="matrix(1, 0, 0, 1, 118, 59)"><g clip-path="url(#2963f39b1b)"><g fill="#1f3f8b" fill-opacity="1"><g transform="translate(0.502942, 182.286727)"><g><path d="M 13.625 0 L 13.625 -128.859375 L 31.65625 -128.859375 L 78.046875 -39.03125 L 124.0625 -128.859375 L 142.296875 -128.859375 L 142.296875 0 L 126.828125 0 L 126.828125 -101.25 L 83.75 -18.40625 L 72.15625 -18.40625 L 29.078125 -101.0625 L 29.078125 0 Z M 13.625 0 "></path></g></g></g></g></g><g transform="matrix(1, 0, 0, 1, 260, 59)"><g clip-path="url(#8211ea0109)"><g fill="#1f3f8b" fill-opacity="1"><g transform="translate(1.021432, 182.286727)"><g><path d="M 52.46875 0 L 4.046875 -128.859375 L 20.796875 -128.859375 L 61.484375 -16.390625 L 102.53125 -128.859375 L 118.921875 -128.859375 L 70.5 0 Z M 52.46875 0 "></path></g></g></g></g></g><g transform="matrix(1, 0, 0, 1, 0, 114)"><g clip-path="url(#8132b8d7d6)"><g clip-path="url(#572b825afa)"><g><g clip-path="url(#d44c44dbd1)"><g clip-path="url(#37ce880388)"><g mask="url(#7ecc293a05)"><g><g clip-path="url(#59ebc0c861)"><g clip-path="url(#9bdeb80abd)"><path fill="url(#6fd3484e88)" d="M 0 2.910156 L 0 270 L 384 270 L 384 2.910156 Z M 0 2.910156 " fill-rule="nonzero"></path></g></g></g></g></g></g></g></g></g></g></svg></svg><style>@media (prefers-color-scheme: light) { :root { filter: none; } }
@media (prefers-color-scheme: dark) { :root { filter: none; } }
</style></svg>