<svg width="24" height="24" viewBox="0 0 24 24" fill="none" xmlns="http://www.w3.org/2000/svg">
<mask id="path-1-inside-1_1002_64" fill="white">
<path d="M3 4C3 3.44772 3.44772 3 4 3H10C10.5523 3 11 3.44772 11 4V10C11 10.5523 10.5523 11 10 11H4C3.44772 11 3 10.5523 3 10V4Z"/>
</mask>
<path d="M3 4C3 3.44772 3.44772 3 4 3H10C10.5523 3 11 3.44772 11 4V10C11 10.5523 10.5523 11 10 11H4C3.44772 11 3 10.5523 3 10V4Z" stroke="#1F3F8B" stroke-width="4" mask="url(#path-1-inside-1_1002_64)"/>
<mask id="path-2-inside-2_1002_64" fill="white">
<path d="M13 14C13 13.4477 13.4477 13 14 13H20C20.5523 13 21 13.4477 21 14V20C21 20.5523 20.5523 21 20 21H14C13.4477 21 13 20.5523 13 20V14Z"/>
</mask>
<path d="M13 14C13 13.4477 13.4477 13 14 13H20C20.5523 13 21 13.4477 21 14V20C21 20.5523 20.5523 21 20 21H14C13.4477 21 13 20.5523 13 20V14Z" stroke="#1F3F8B" stroke-width="4" mask="url(#path-2-inside-2_1002_64)"/>
<mask id="path-3-inside-3_1002_64" fill="white">
<path d="M3 14C3 13.4477 3.44772 13 4 13H10C10.5523 13 11 13.4477 11 14V20C11 20.5523 10.5523 21 10 21H4C3.44772 21 3 20.5523 3 20V14Z"/>
</mask>
<path d="M3 14C3 13.4477 3.44772 13 4 13H10C10.5523 13 11 13.4477 11 14V20C11 20.5523 10.5523 21 10 21H4C3.44772 21 3 20.5523 3 20V14Z" stroke="#1F3F8B" stroke-width="4" mask="url(#path-3-inside-3_1002_64)"/>
<mask id="path-4-inside-4_1002_64" fill="white">
<path d="M13 4C13 3.44772 13.4477 3 14 3H20C20.5523 3 21 3.44772 21 4V10C21 10.5523 20.5523 11 20 11H14C13.4477 11 13 10.5523 13 10V4Z"/>
</mask>
<path d="M13 4C13 3.44772 13.4477 3 14 3H20C20.5523 3 21 3.44772 21 4V10C21 10.5523 20.5523 11 20 11H14C13.4477 11 13 10.5523 13 10V4Z" stroke="#1F3F8B" stroke-width="4" mask="url(#path-4-inside-4_1002_64)"/>
</svg>
