<svg width="24" height="24" viewBox="0 0 24 24" fill="none" xmlns="http://www.w3.org/2000/svg">
<circle cx="8.5" cy="8.5" r="4.5" stroke="#1F3F8B" stroke-width="2" stroke-linejoin="round"/>
<path d="M12.8803 10.9437C12.7202 11.1358 12.5602 11.3278 12.4001 11.5199C12.4468 11.6672 12.4988 11.8082 12.5561 11.9427C12.7854 12.4809 13.1 12.9167 13.5 13.25C14.9 14.4167 16.4162 15.4439 18.0485 16.3317C18.1651 16.3952 18.2823 16.4579 18.4001 16.5199C18.5602 16.3278 18.7202 16.1358 18.8803 15.9437C18.798 15.839 18.7152 15.7351 18.6318 15.6318C17.4642 14.1863 16.1804 12.8802 14.7804 11.7136C14.3804 11.3802 13.895 11.1493 13.3243 11.0208C13.1816 10.9887 13.0336 10.963 12.8803 10.9437Z" fill="#1F3F8B"/>
</svg>
