<svg width="24" height="24" viewBox="0 0 24 24" fill="none" xmlns="http://www.w3.org/2000/svg">
<path d="M17.5006 4.00748C19.2394 4.92255 19.9078 7.0742 18.9929 8.81303L16.3051 13.9204C15.3899 15.6593 13.238 16.3265 11.4991 15.4114C9.76041 14.4962 9.0926 12.3451 10.0077 10.6063L12.6955 5.49891C13.6107 3.76029 15.7619 3.09259 17.5006 4.00748Z" stroke="#1F3F8B" stroke-width="2"/>
<path d="M12.3529 7.76223C12.913 8.59116 12.7257 9.72129 11.9219 10.3169C11.3564 10.736 10.6033 10.8016 9.97374 10.4868L9.00001 9.99995L8.85016 9.31687C8.64486 8.38098 9.14791 7.43418 10.0384 7.0805L10.0909 7.05963C10.9138 6.73281 11.8572 7.02864 12.3529 7.76223Z" fill="white"/>
<path d="M11.5006 9.00748C13.2394 9.92255 13.9078 12.0742 12.9929 13.813L10.3051 18.9204C9.38995 20.6593 7.23796 21.3265 5.4991 20.4114C3.76041 19.4962 3.0926 17.3451 4.00767 15.6063L6.69553 10.4989C7.61067 8.76029 9.76187 8.09259 11.5006 9.00748Z" stroke="#1F3F8B" stroke-width="2"/>
<circle cx="10.5" cy="8.5" r="0.5" fill="#8B6FB6"/>
</svg>
