<svg width="24" height="24" viewBox="0 0 24 24" fill="none" xmlns="http://www.w3.org/2000/svg">
<path d="M10.5 16.5C8.83333 15 6.5 10.74 10.5 7.5L5 11.95L10.5 16.5Z" stroke="#1F3F8B" stroke-width="2" stroke-linecap="round" stroke-linejoin="round"/>
<path d="M23 11.625C23 11.875 23 12.125 23 12.375C22.7 12.4583 22.4 12.5333 22.1 12.6C20.9 12.8667 19.7 13 18.5 13C14.3 13 10.1 12.8185 5.9 12.4556C5.6 12.4296 5.3 12.4028 5 12.375C5 12.125 5 11.875 5 11.625C5.3 11.5972 5.6 11.5704 5.9 11.5444C10.1 11.1815 14.3 11 18.5 11C19.7 11 20.9 11.1333 22.1 11.4C22.4 11.4667 22.7 11.5417 23 11.625Z" fill="#1F3F8B"/>
</svg>
