<svg width="24" height="24" viewBox="0 0 24 24" fill="none" xmlns="http://www.w3.org/2000/svg">
<path d="M13.5 16.5C15.1667 15 17.5 10.74 13.5 7.5L19 11.95L13.5 16.5Z" stroke="#1F3F8B" stroke-width="2" stroke-linecap="round" stroke-linejoin="round"/>
<path d="M1 11.625C1 11.875 1 12.125 1 12.375C1.3 12.4583 1.6 12.5333 1.9 12.6C3.1 12.8667 4.3 13 5.5 13C9.7 13 13.9 12.8185 18.1 12.4556C18.4 12.4296 18.7 12.4028 19 12.375C19 12.125 19 11.875 19 11.625C18.7 11.5972 18.4 11.5704 18.1 11.5444C13.9 11.1815 9.7 11 5.5 11C4.3 11 3.1 11.1333 1.9 11.4C1.6 11.4667 1.3 11.5417 1 11.625Z" fill="#1F3F8B"/>
</svg>
