<svg width="40" height="24" viewBox="0 0 40 24" fill="none" xmlns="http://www.w3.org/2000/svg">
<g clip-path="url(#clip0_1018_1296)">
<g filter="url(#filter0_d_1018_1296)">
<path d="M20.5241 17.1392C19.8414 17.1392 19.2315 17.0215 18.6946 16.7862C18.161 16.5509 17.7384 16.2244 17.4268 15.8068C17.1186 15.3859 16.9529 14.8987 16.9297 14.3452H18.4908C18.5107 14.6468 18.6117 14.9086 18.794 15.1307C18.9796 15.3494 19.2216 15.5185 19.5199 15.6378C19.8182 15.7571 20.1496 15.8168 20.5142 15.8168C20.9152 15.8168 21.2699 15.7472 21.5781 15.608C21.8897 15.4687 22.1333 15.2749 22.3089 15.0263C22.4846 14.7744 22.5724 14.4844 22.5724 14.1562C22.5724 13.8149 22.4846 13.5149 22.3089 13.2564C22.1366 12.9946 21.883 12.7891 21.5483 12.6399C21.2169 12.4908 20.8158 12.4162 20.3452 12.4162H19.4851V11.1634H20.3452C20.723 11.1634 21.0545 11.0954 21.3395 10.9595C21.6278 10.8236 21.8532 10.6347 22.0156 10.3928C22.178 10.1475 22.2592 9.8608 22.2592 9.53267C22.2592 9.2178 22.188 8.94437 22.0455 8.71236C21.9063 8.47704 21.7074 8.29309 21.4489 8.16051C21.1937 8.02794 20.892 7.96165 20.544 7.96165C20.2126 7.96165 19.9027 8.02296 19.6143 8.1456C19.3293 8.26491 19.0973 8.43726 18.9183 8.66264C18.7393 8.88471 18.6432 9.15151 18.63 9.46307H17.1435C17.16 8.91288 17.3224 8.42898 17.6307 8.01136C17.9422 7.59375 18.3532 7.26728 18.8636 7.03196C19.3741 6.79664 19.9408 6.67898 20.5639 6.67898C21.2169 6.67898 21.7803 6.80658 22.2543 7.06179C22.7315 7.31368 23.0994 7.65009 23.358 8.07102C23.6198 8.49195 23.7491 8.95265 23.7457 9.45312C23.7491 10.0232 23.59 10.5071 23.2685 10.9048C22.9503 11.3026 22.526 11.5694 21.9957 11.7053V11.7848C22.6719 11.8875 23.1955 12.156 23.5668 12.5902C23.9413 13.0244 24.1269 13.563 24.1236 14.206C24.1269 14.7661 23.9711 15.2682 23.6562 15.7124C23.3447 16.1565 22.9188 16.5062 22.3786 16.7614C21.8383 17.0133 21.2202 17.1392 20.5241 17.1392Z" fill="#1F3F8B"/>
</g>
</g>
<defs>
<filter id="filter0_d_1018_1296" x="12.9297" y="6.6792" width="15.1989" height="18.46" filterUnits="userSpaceOnUse" color-interpolation-filters="sRGB">
<feFlood flood-opacity="0" result="BackgroundImageFix"/>
<feColorMatrix in="SourceAlpha" type="matrix" values="0 0 0 0 0 0 0 0 0 0 0 0 0 0 0 0 0 0 127 0" result="hardAlpha"/>
<feOffset dy="4"/>
<feGaussianBlur stdDeviation="2"/>
<feComposite in2="hardAlpha" operator="out"/>
<feColorMatrix type="matrix" values="0 0 0 0 0.545098 0 0 0 0 0.435294 0 0 0 0 0.713726 0 0 0 1 0"/>
<feBlend mode="normal" in2="BackgroundImageFix" result="effect1_dropShadow_1018_1296"/>
<feBlend mode="normal" in="SourceGraphic" in2="effect1_dropShadow_1018_1296" result="shape"/>
</filter>
<clipPath id="clip0_1018_1296">
<rect width="40" height="24" fill="white"/>
</clipPath>
</defs>
</svg>
