<svg width="40" height="24" viewBox="0 0 40 24" fill="none" xmlns="http://www.w3.org/2000/svg">
<g clip-path="url(#clip0_1018_1298)">
<g filter="url(#filter0_d_1018_1298)">
<path d="M20.3402 17.1392C19.7171 17.1392 19.157 17.0199 18.6598 16.7812C18.166 16.5393 17.7715 16.2079 17.4766 15.7869C17.1816 15.366 17.0241 14.8854 17.0043 14.3452H18.4957C18.5322 14.7827 18.7261 15.1423 19.0774 15.424C19.4287 15.7057 19.8497 15.8466 20.3402 15.8466C20.7313 15.8466 21.0777 15.7571 21.3793 15.5781C21.6842 15.3958 21.9228 15.1456 22.0952 14.8274C22.2708 14.5092 22.3587 14.1463 22.3587 13.7386C22.3587 13.3243 22.2692 12.9548 22.0902 12.63C21.9112 12.3052 21.6643 12.05 21.3494 11.8643C21.0379 11.6787 20.6799 11.5843 20.2756 11.581C19.9673 11.581 19.6574 11.634 19.3459 11.7401C19.0343 11.8461 18.7824 11.9853 18.5902 12.1577L17.1832 11.9489L17.755 6.81818H23.353V8.13565H19.0327L18.7095 10.9844H18.7692C18.968 10.7921 19.2315 10.6314 19.5597 10.5021C19.8911 10.3729 20.2457 10.3082 20.6236 10.3082C21.2434 10.3082 21.7952 10.4557 22.2791 10.7507C22.7663 11.0457 23.1491 11.4484 23.4276 11.9588C23.7093 12.4659 23.8485 13.0492 23.8452 13.7088C23.8485 14.3684 23.6993 14.9567 23.3977 15.4737C23.0994 15.9908 22.6851 16.3984 22.1548 16.6967C21.6278 16.9917 21.023 17.1392 20.3402 17.1392Z" fill="#1F3F8B"/>
</g>
</g>
<defs>
<filter id="filter0_d_1018_1298" x="13.0043" y="6.81836" width="14.8459" height="18.3208" filterUnits="userSpaceOnUse" color-interpolation-filters="sRGB">
<feFlood flood-opacity="0" result="BackgroundImageFix"/>
<feColorMatrix in="SourceAlpha" type="matrix" values="0 0 0 0 0 0 0 0 0 0 0 0 0 0 0 0 0 0 127 0" result="hardAlpha"/>
<feOffset dy="4"/>
<feGaussianBlur stdDeviation="2"/>
<feComposite in2="hardAlpha" operator="out"/>
<feColorMatrix type="matrix" values="0 0 0 0 0.545098 0 0 0 0 0.435294 0 0 0 0 0.713726 0 0 0 1 0"/>
<feBlend mode="normal" in2="BackgroundImageFix" result="effect1_dropShadow_1018_1298"/>
<feBlend mode="normal" in="SourceGraphic" in2="effect1_dropShadow_1018_1298" result="shape"/>
</filter>
<clipPath id="clip0_1018_1298">
<rect width="40" height="24" fill="white"/>
</clipPath>
</defs>
</svg>
