<svg width="40" height="24" viewBox="0 0 40 24" fill="none" xmlns="http://www.w3.org/2000/svg">
<g clip-path="url(#clip0_1018_1295)">
<g filter="url(#filter0_d_1018_1295)">
<path d="M16.9794 17V15.8864L20.4247 12.3168C20.7926 11.929 21.0959 11.5893 21.3345 11.2976C21.5765 11.0026 21.7571 10.7225 21.8764 10.4574C21.9957 10.1922 22.0554 9.91051 22.0554 9.61222C22.0554 9.27415 21.9759 8.98248 21.8168 8.73722C21.6577 8.48864 21.4406 8.29806 21.1655 8.16548C20.8904 8.02959 20.5805 7.96165 20.2358 7.96165C19.8712 7.96165 19.553 8.03622 19.2812 8.18537C19.0095 8.33452 18.8007 8.54498 18.6548 8.81676C18.509 9.08854 18.4361 9.40672 18.4361 9.77131H16.9695C16.9695 9.15151 17.112 8.60961 17.397 8.1456C17.6821 7.68158 18.0732 7.32197 18.5703 7.06676C19.0675 6.80824 19.6326 6.67898 20.2656 6.67898C20.9053 6.67898 21.4688 6.80658 21.956 7.06179C22.4465 7.31368 22.8293 7.65838 23.1044 8.09588C23.3795 8.53007 23.517 9.0206 23.517 9.56747C23.517 9.94531 23.4458 10.3149 23.3033 10.6761C23.1641 11.0374 22.9205 11.4401 22.5724 11.8842C22.2244 12.325 21.7405 12.8603 21.1207 13.4901L19.0973 15.608V15.6825H23.6811V17H16.9794Z" fill="#1F3F8B"/>
</g>
</g>
<defs>
<filter id="filter0_d_1018_1295" x="12.9695" y="6.6792" width="14.7116" height="18.3208" filterUnits="userSpaceOnUse" color-interpolation-filters="sRGB">
<feFlood flood-opacity="0" result="BackgroundImageFix"/>
<feColorMatrix in="SourceAlpha" type="matrix" values="0 0 0 0 0 0 0 0 0 0 0 0 0 0 0 0 0 0 127 0" result="hardAlpha"/>
<feOffset dy="4"/>
<feGaussianBlur stdDeviation="2"/>
<feComposite in2="hardAlpha" operator="out"/>
<feColorMatrix type="matrix" values="0 0 0 0 0.545098 0 0 0 0 0.435294 0 0 0 0 0.713726 0 0 0 1 0"/>
<feBlend mode="normal" in2="BackgroundImageFix" result="effect1_dropShadow_1018_1295"/>
<feBlend mode="normal" in="SourceGraphic" in2="effect1_dropShadow_1018_1295" result="shape"/>
</filter>
<clipPath id="clip0_1018_1295">
<rect width="40" height="24" fill="white"/>
</clipPath>
</defs>
</svg>
